<svg id="ëÎÓÈ_1" data-name="ëÎÓÈ 1" xmlns="http://www.w3.org/2000/svg" viewBox="0 0 1919.37 1285.53"><defs><style>.cls-1{fill:#ffe9e9;}.cls-2{fill:#fff;}.cls-3{fill:#000061;}.cls-4{fill:#ff5776;}.cls-5{fill:#00ccbe;}.cls-6{fill:#ffb149;}</style></defs><title>email_mobile</title><rect class="cls-1" x="1657.67" y="720.91" width="135.95" height="155.44"/><circle class="cls-1" cx="742.05" cy="894.66" r="163.81" transform="translate(-720.41 587.95) rotate(-45)"/><rect class="cls-1" x="689.33" y="1020.69" width="442.57" height="62.76"/><rect class="cls-1" x="314.27" y="837.3" width="214.51" height="131.48"/><polygon class="cls-1" points="1753.54 545.45 1465.56 545.45 1465.56 389.06 1609.55 283.56 1753.54 389.06 1753.54 545.45"/><polygon class="cls-2" points="1609.55 492.99 1745.65 393.27 1473.45 393.27 1609.55 492.99"/><rect class="cls-2" x="1900" y="605.89" width="5" height="152.11" transform="translate(-102.7 1576) rotate(-52.45)"/><polygon class="cls-3" points="1027.8 1256.04 1126.68 1246.08 1119.76 1251.12 1129.86 1213.11 1149.69 1220.03 1133.97 1256.07 1131.67 1261.35 1127.05 1261.12 1027.8 1256.04"/><path class="cls-4" d="M1458.94,1413.41a15.5,15.5,0,0,1-3.24-30.66l25.19-5.42a15.5,15.5,0,0,1,6.52,30.31l-25.2,5.42A15.88,15.88,0,0,1,1458.94,1413.41Z" transform="translate(-305.13 -198.8)"/><rect class="cls-5" x="1146.77" y="1410.6" width="315.71" height="41" transform="translate(-576.88 107.52) rotate(-12.14)"/><polygon class="cls-6" points="801.16 1274.31 846.03 1244.92 853.68 1285.2 801.16 1274.31"/><polygon class="cls-1" points="528.78 465.66 129.59 465.66 129.59 248.88 329.19 102.63 528.78 248.88 528.78 465.66"/><polygon class="cls-2" points="329.19 392.95 517.84 254.72 140.53 254.72 329.19 392.95"/><ellipse class="cls-6" cx="304.21" cy="779.93" rx="97.12" ry="98.94"/><rect class="cls-3" x="172.44" y="948.87" width="828.92" height="81.29"/><path class="cls-3" d="M1307,1229.45H477.07v-82.29H1307Zm-828.91-1H1306v-80.29H478.07Z" transform="translate(-305.13 -198.8)"/><rect class="cls-3" x="775.65" y="210.47" width="326.74" height="394.05"/><path class="cls-3" d="M737.82,618v460.24h450.56V618.47c0-152.39,123.54-275.92,275.93-275.92H1514V342H1013.75C861.36,342,737.82,465.56,737.82,618Z" transform="translate(-305.13 -198.8)"/><path class="cls-2" d="M1228.7,1082.81H775.14V619.57a278.92,278.92,0,0,1,278.93-278.92H1557.3v6.52h-52.67v-.52H1054.07A272.93,272.93,0,0,0,781.14,619.57v457.24H1228.7Z" transform="translate(-305.13 -198.8)"/><rect class="cls-6" x="714.29" y="273.63" width="349.56" height="100.42"/><rect class="cls-6" x="908.06" y="259.64" width="56.98" height="4"/><rect class="cls-6" x="736.84" y="259.64" width="149.94" height="4"/><rect class="cls-6" x="304.21" y="680.7" width="246.87" height="198.17"/><rect class="cls-4" x="600.06" y="270.73" width="74.38" height="106.84"/><rect class="cls-4" x="684.48" y="315.04" width="4" height="17.56"/><polygon class="cls-4" points="688.49 305.64 684.49 305.64 684.49 263.64 649.29 263.64 649.29 259.64 688.49 259.64 688.49 305.64"/><rect class="cls-5" x="528.78" y="354.04" width="598.59" height="467.15"/><rect class="cls-4" x="408.05" y="819.75" width="562.55" height="129.12"/><polygon class="cls-2" points="1108.51 819.75 568.8 819.75 568.8 377.57 926.53 581.42 1057.79 581.42 1108.51 377.57 1108.51 819.75"/><path class="cls-4" d="M1813.48,617.43v460.24H1362.92V618C1362.92,465.56,1239.38,342,1087,342h-49.67v-.52h500.23c136.44,0,249.75,99,272,229.12q.57,3.3,1,6.63a275.56,275.56,0,0,1,2.7,29.22c.09,2.48.16,5,.19,7.46C1813.47,615.1,1813.48,616.27,1813.48,617.43Z" transform="translate(-305.13 -198.8)"/><path class="cls-4" d="M1851,803.32h-8V589.79a277.52,277.52,0,0,0-1.69-30.56l8-.89a284,284,0,0,1,1.74,31.45Z" transform="translate(-305.13 -198.8)"/><polygon class="cls-2" points="1487.39 273.63 1025.77 273.63 1010.88 261.64 1487.39 261.64 1487.39 273.63"/><path class="cls-6" d="M1810.57,577.26,1575.94,805.57l-3.82-3.93,237.4-231Q1810.09,573.93,1810.57,577.26Z" transform="translate(-305.13 -198.8)"/><path class="cls-6" d="M1813.46,613.94,1630.71,791.76l-3.82-3.92,186.38-181.36C1813.36,609,1813.43,611.45,1813.46,613.94Z" transform="translate(-305.13 -198.8)"/><path class="cls-4" d="M1776.77,411.89a273.15,273.15,0,0,0-150.68-88.46l1.61-7.84a281.2,281.2,0,0,1,155.12,91.06Z" transform="translate(-305.13 -198.8)"/><path class="cls-2" d="M1369.92,874.14h-14V616A268.92,268.92,0,0,0,1087,347l-.69,0L1033,341.72l1.38-13.93,53,5.24A282.92,282.92,0,0,1,1369.92,616Z" transform="translate(-305.13 -198.8)"/><path class="cls-6" d="M1812.19,1190.89h0c0,.72,0,1.45,0,2.17,0,4-.07,7.92-.1,11.83,0,.61,0,1.23,0,1.84-.6,66.25-1.33,121.08-1.33,121.08L1686,1326.56h0l-4.58,0-9.66-.09-5-.05-34.94-.36-6-.06h-1.07l-6.25-.06L1231.66,1322V978s574.38,1.17,579.06,0C1813.4,977.36,1813,1092.55,1812.19,1190.89Z" transform="translate(-305.13 -198.8)"/><rect class="cls-5" x="1232.11" y="568.91" width="276.24" height="108.43"/><polygon class="cls-3" points="1706.8 768.71 1505.59 779.24 1505.59 1129.02 1706.8 1064.56 1706.8 768.71"/><rect class="cls-3" x="1727.74" y="861.36" width="8" height="96.47"/><path class="cls-3" d="M1956.26,1314.36l-2.44-7.62,79.06-25.33V1196h8v88.35a4,4,0,0,1-2.78,3.81Z" transform="translate(-305.13 -198.8)"/><rect class="cls-3" x="1887.65" y="1320.86" width="45.45" height="8" transform="translate(-618.3 447.34) rotate(-17.77)"/><rect class="cls-3" x="926.53" y="772.54" width="586.62" height="40.68"/><rect class="cls-6" x="901.65" y="651.59" width="628.48" height="138.64"/><polygon class="cls-4" points="1732.14 768.71 1530.13 790.23 1530.13 651.59 1732.14 666.12 1732.14 768.71"/><polygon class="cls-2" points="1270.45 896.16 1193.56 828.45 1119.64 896.16 1119.64 651.59 1270.45 651.59 1270.45 896.16"/><rect class="cls-6" x="1741.63" y="1423.87" width="68.52" height="24.13" transform="translate(3246.65 2673.07) rotate(180)"/><path class="cls-6" d="M1741.15,1423.39h69.48v25.09h-69.48Zm68.52,1h-67.55v23.16h67.55Z" transform="translate(-305.13 -198.8)"/><rect class="cls-5" x="1655.75" y="1423.87" width="68.52" height="24.13" transform="translate(3074.88 2673.07) rotate(180)"/><rect class="cls-6" x="423.23" y="732.18" width="68.52" height="24.13" transform="translate(609.83 1289.69) rotate(180)"/><path class="cls-6" d="M422.74,731.7h69.48v25.09H422.74Zm68.52,1H423.71v23.16h67.55Z" transform="translate(-305.13 -198.8)"/><rect class="cls-5" x="337.34" y="732.18" width="68.52" height="24.13" transform="translate(438.06 1289.69) rotate(180)"/><path class="cls-5" d="M2074.25,416.26a11.43,11.43,0,0,1,6,1.35,18.22,18.22,0,0,1,4.68,3.92c1.32,1.46,2.54,2.93,3.86,4.13a10.11,10.11,0,0,0,4.25,2.46l1.16.22h1.21a5.19,5.19,0,0,0,1.18-.11,4,4,0,0,0,1.15-.23,8.24,8.24,0,0,0,3.86-2.43,44.32,44.32,0,0,0,3.35-4.29,23.85,23.85,0,0,1,4.38-4.81c.5-.35,1-.71,1.51-1s1.12-.56,1.69-.83a13.84,13.84,0,0,1,3.63-.84l.92-.1c.31,0,.62,0,.92,0,.62,0,1.23,0,1.86.13s1.25.27,1.87.42,1.21.47,1.8.72a18.66,18.66,0,0,1,5.58,4.35c1.45,1.57,2.64,3.06,3.8,4.23a8.29,8.29,0,0,0,3.28,2.27,2.91,2.91,0,0,0,.82.21l.42.09c.14,0,.3,0,.46,0s.61.05.92,0,.6-.09.9-.12a6.17,6.17,0,0,0,3-1.6,25.86,25.86,0,0,0,3.1-3.71,30.45,30.45,0,0,1,4.44-5.12,13,13,0,0,1,1.6-1.24l.86-.59,1-.5a10.64,10.64,0,0,1,2-.83,16.2,16.2,0,0,1,2.1-.54c.69-.09,1.39-.17,2.08-.24s1.4,0,2.11,0c.35,0,.7,0,1.06.08l1.08.22a10.5,10.5,0,0,1,2.14.62,18.44,18.44,0,0,1,6.77,4.59c1.63,1.71,2.86,3.27,3.94,4.43a9.49,9.49,0,0,0,2.64,2.22c.18.06.33.17.51.23a2.64,2.64,0,0,1,.55.15c.2,0,.45,0,.67.07a2,2,0,0,0,.69,0,4.07,4.07,0,0,0,2.39-.65,15.09,15.09,0,0,0,3.15-2.89,51.75,51.75,0,0,1,4.59-4.66c.52-.4,1-.8,1.57-1.18s1.21-.72,1.81-1.05,1.33-.56,2-.81a13.5,13.5,0,0,1,2.07-.48,9.08,9.08,0,0,1,2-.18,9.62,9.62,0,0,1,2,.07c.66.09,1.32.2,2,.31s1.31.41,2,.64a14.74,14.74,0,0,1,6,4.61,44.91,44.91,0,0,1,3.32,5.15,17.65,17.65,0,0,0,3.06,4.15,10.37,10.37,0,0,0,4.59,2.42v1.16a11.81,11.81,0,0,1-3.16.16l-.83-.08-.8-.21a8.12,8.12,0,0,1-1.6-.53,19.61,19.61,0,0,1-5.35-3.71c-1.49-1.39-2.83-2.73-4.12-3.7a7.61,7.61,0,0,0-3.58-1.62c-.3,0-.57,0-.85-.07s-.62.07-.92.08a4.19,4.19,0,0,0-.87.17,2.21,2.21,0,0,0-.8.25,6.22,6.22,0,0,0-2.56,1.95c-.87,1-1.83,2.4-3,4.06a25.75,25.75,0,0,1-4.9,5.36c-.6.42-1.2.85-1.84,1.23s-1.38.69-2.08,1a16.34,16.34,0,0,1-4.41,1l-1.1.09a9.93,9.93,0,0,1-1.09,0,20.89,20.89,0,0,1-2.21-.21c-.75-.17-1.51-.36-2.25-.57s-1.43-.6-2.14-.92a20.26,20.26,0,0,1-6.13-5.2c-1.43-1.75-2.47-3.33-3.43-4.48a7.92,7.92,0,0,0-2.41-2.26,1.71,1.71,0,0,0-.6-.27l-.32-.14c-.11,0-.25,0-.38-.06s-.51-.12-.77-.13a7.12,7.12,0,0,1-.8,0,5.25,5.25,0,0,0-2.84,1,21.91,21.91,0,0,0-3.36,3.39,32.68,32.68,0,0,1-4.7,4.79,14.9,14.9,0,0,1-7.4,3.15c-.65,0-1.31.09-2,.11a16,16,0,0,1-2-.15c-.33,0-.65-.07-1-.13l-1-.27a10.17,10.17,0,0,1-1.92-.67,16.2,16.2,0,0,1-5.9-4.58c-1.43-1.7-2.5-3.33-3.57-4.68a12.52,12.52,0,0,0-3.19-3.08c-.29-.13-.56-.3-.85-.43s-.62-.19-.92-.3-.68-.09-1-.15a5,5,0,0,0-.52-.07l-.53,0a6.6,6.6,0,0,0-3.89,1.14,19.18,19.18,0,0,0-3.68,3.43,46.3,46.3,0,0,1-4.22,4.44,12.69,12.69,0,0,1-6.15,3,6.65,6.65,0,0,1-1.71.19,8,8,0,0,1-1.69,0l-1.68-.21c-.55-.14-1.1-.32-1.64-.48a13.36,13.36,0,0,1-5.33-3.79c-1.39-1.55-2.47-3.19-3.59-4.71a16.32,16.32,0,0,0-3.73-3.94,10,10,0,0,0-5-1.72Z" transform="translate(-305.13 -198.8)"/><path class="cls-5" d="M311.67,1274.51a11.55,11.55,0,0,1,6,1.35,18.81,18.81,0,0,1,4.68,3.92c1.32,1.46,2.53,2.94,3.85,4.13a10,10,0,0,0,4.26,2.46l1.16.22,1.2,0a5.92,5.92,0,0,0,1.19-.11,4.2,4.2,0,0,0,1.14-.24,8.19,8.19,0,0,0,3.87-2.43,44.12,44.12,0,0,0,3.35-4.28,24.39,24.39,0,0,1,4.37-4.82c.5-.34,1-.71,1.52-1s1.12-.56,1.69-.82a13.77,13.77,0,0,1,3.63-.85l.92-.09c.3,0,.61,0,.92,0a16.45,16.45,0,0,1,1.85.14c.63.13,1.26.27,1.88.42s1.2.46,1.8.71a18.8,18.8,0,0,1,5.57,4.36c1.45,1.56,2.64,3.06,3.8,4.22a8.33,8.33,0,0,0,3.28,2.27,2.89,2.89,0,0,0,.83.21l.41.1h.46a7.08,7.08,0,0,0,.92,0l.91-.12a6.28,6.28,0,0,0,3-1.59,26.11,26.11,0,0,0,3.1-3.72,30.42,30.42,0,0,1,4.44-5.11,12.33,12.33,0,0,1,1.6-1.25l.86-.59,1-.49a10.38,10.38,0,0,1,2-.83,16.48,16.48,0,0,1,2.09-.54c.7-.09,1.39-.17,2.09-.24a16.36,16.36,0,0,1,2.1,0,9.28,9.28,0,0,1,1.06.08l1.09.22a10.66,10.66,0,0,1,2.14.61,18.58,18.58,0,0,1,6.77,4.6c1.62,1.71,2.85,3.26,3.94,4.43a9.48,9.48,0,0,0,2.63,2.22c.18.05.34.16.52.23a1.8,1.8,0,0,1,.55.15c.19,0,.45,0,.66.07a2,2,0,0,0,.69,0,4,4,0,0,0,2.4-.65,15.23,15.23,0,0,0,3.15-2.88,49,49,0,0,1,4.58-4.66c.53-.41,1.05-.8,1.58-1.19s1.2-.71,1.81-1a21.19,21.19,0,0,1,2-.8,13.65,13.65,0,0,1,2.08-.49,9.64,9.64,0,0,1,2-.18,11.27,11.27,0,0,1,2,.07c.66.1,1.32.2,2,.32s1.32.41,2,.63a14.74,14.74,0,0,1,6,4.62,43,43,0,0,1,3.33,5.15,17.65,17.65,0,0,0,3.06,4.15,10.26,10.26,0,0,0,4.59,2.41v1.16a11.81,11.81,0,0,1-3.16.17l-.83-.08-.8-.21a7.93,7.93,0,0,1-1.6-.54,19.59,19.59,0,0,1-5.35-3.7,54.71,54.71,0,0,0-4.12-3.7,7.66,7.66,0,0,0-3.59-1.63c-.29,0-.57,0-.85-.07l-.91.09a3.8,3.8,0,0,0-.88.17,2.42,2.42,0,0,0-.8.24,6.25,6.25,0,0,0-2.56,2c-.86,1-1.82,2.4-3,4.06a25.83,25.83,0,0,1-4.91,5.36c-.6.42-1.19.85-1.83,1.23s-1.38.68-2.08,1a16.81,16.81,0,0,1-4.41,1l-1.1.09a10.11,10.11,0,0,1-1.1,0,20.74,20.74,0,0,1-2.2-.22q-1.14-.24-2.25-.57c-.73-.25-1.44-.59-2.14-.91a20.4,20.4,0,0,1-6.13-5.2c-1.44-1.76-2.47-3.33-3.43-4.49a8.19,8.19,0,0,0-2.42-2.26,2,2,0,0,0-.6-.27l-.31-.13a2.32,2.32,0,0,0-.38-.06,6.68,6.68,0,0,0-.78-.13,7.18,7.18,0,0,1-.8,0,5.17,5.17,0,0,0-2.83,1,21.06,21.06,0,0,0-3.36,3.39,33.71,33.71,0,0,1-4.7,4.79,15,15,0,0,1-7.4,3.15c-.66,0-1.32.08-2,.11a18.46,18.46,0,0,1-2-.16c-.33,0-.65-.06-1-.13l-1-.26a9.7,9.7,0,0,1-1.92-.67,16.34,16.34,0,0,1-5.91-4.58c-1.42-1.7-2.5-3.33-3.57-4.69a12.28,12.28,0,0,0-3.18-3.07c-.29-.13-.56-.31-.85-.44s-.62-.18-.93-.29-.68-.1-1-.16a4.34,4.34,0,0,0-.52-.07l-.52,0a6.71,6.71,0,0,0-3.89,1.14,18.92,18.92,0,0,0-3.68,3.43,46.47,46.47,0,0,1-4.23,4.44,12.58,12.58,0,0,1-6.15,3.06,7.64,7.64,0,0,1-1.7.19,8.77,8.77,0,0,1-1.7,0l-1.67-.21c-.56-.15-1.1-.32-1.65-.49a13.21,13.21,0,0,1-5.32-3.78c-1.39-1.55-2.47-3.19-3.59-4.71a16.53,16.53,0,0,0-3.73-3.94,9.94,9.94,0,0,0-5-1.73Z" transform="translate(-305.13 -198.8)"/><path class="cls-4" d="M2222.28,473.39a11.61,11.61,0,0,1-6-1.35,18.63,18.63,0,0,1-4.68-3.92c-1.32-1.46-2.54-2.94-3.86-4.14a10,10,0,0,0-4.25-2.45l-1.16-.22-1.21,0a6,6,0,0,0-1.19.11,4.28,4.28,0,0,0-1.14.24,8.11,8.11,0,0,0-3.86,2.43,42.62,42.62,0,0,0-3.35,4.28,24.46,24.46,0,0,1-4.38,4.81c-.5.35-1,.72-1.51,1s-1.13.56-1.7.82a13.68,13.68,0,0,1-3.63.85l-.91.09c-.31,0-.62,0-.92,0a16.63,16.63,0,0,1-1.86-.14l-1.88-.42c-.61-.2-1.2-.46-1.8-.71a18.93,18.93,0,0,1-5.57-4.36c-1.45-1.56-2.64-3.06-3.8-4.22a8.33,8.33,0,0,0-3.28-2.27,2.61,2.61,0,0,0-.82-.21l-.42-.1h-.46c-.31,0-.61-.05-.92,0l-.9.12a6.23,6.23,0,0,0-3,1.59,24.84,24.84,0,0,0-3.1,3.72,30.42,30.42,0,0,1-4.44,5.11,13,13,0,0,1-1.6,1.25l-.86.59-1,.49a10.64,10.64,0,0,1-2,.83,16.2,16.2,0,0,1-2.1.54c-.69.09-1.39.17-2.09.24a16.39,16.39,0,0,1-2.1,0c-.35,0-.7,0-1.06-.08l-1.09-.22a10.85,10.85,0,0,1-2.14-.61,18.75,18.75,0,0,1-6.77-4.6c-1.62-1.71-2.85-3.26-3.93-4.43a9.49,9.49,0,0,0-2.64-2.22c-.18-.05-.33-.16-.51-.23a1.8,1.8,0,0,1-.55-.15c-.2-.05-.45,0-.67-.07a2.28,2.28,0,0,0-.69,0,4,4,0,0,0-2.39.66,15,15,0,0,0-3.15,2.88,49.25,49.25,0,0,1-4.59,4.66c-.52.4-1,.8-1.57,1.19s-1.21.71-1.81,1.05-1.33.56-2,.8a12.53,12.53,0,0,1-2.08.48,9,9,0,0,1-2.05.19,11.12,11.12,0,0,1-2-.07c-.66-.1-1.32-.2-2-.32s-1.31-.41-1.95-.63a14.78,14.78,0,0,1-6-4.62,44.06,44.06,0,0,1-3.32-5.15,17.65,17.65,0,0,0-3.06-4.15,10.24,10.24,0,0,0-4.6-2.41v-1.16a11.88,11.88,0,0,1,3.17-.17l.83.08.8.21a8.15,8.15,0,0,1,1.6.54,19.37,19.37,0,0,1,5.35,3.7,52.83,52.83,0,0,0,4.12,3.7,7.51,7.51,0,0,0,3.58,1.62c.3,0,.57.05.85.07l.92-.08a3.72,3.72,0,0,0,.87-.17,2.42,2.42,0,0,0,.8-.24,6.34,6.34,0,0,0,2.56-2c.87-1,1.83-2.4,3-4.06a26.11,26.11,0,0,1,4.91-5.36c.6-.42,1.2-.85,1.84-1.23s1.37-.68,2.08-1a16.34,16.34,0,0,1,4.41-1l1.09-.09a10,10,0,0,1,1.1,0c.74.06,1.46.08,2.21.21s1.51.36,2.25.57,1.43.6,2.14.92a20.53,20.53,0,0,1,6.13,5.2c1.43,1.76,2.47,3.33,3.42,4.49a8.32,8.32,0,0,0,2.42,2.26,1.89,1.89,0,0,0,.6.26l.32.14a2.2,2.2,0,0,0,.37.06,7,7,0,0,0,.78.13,7.12,7.12,0,0,1,.8,0,5.15,5.15,0,0,0,2.83-1,21.06,21.06,0,0,0,3.36-3.39,33.29,33.29,0,0,1,4.71-4.79,15,15,0,0,1,7.39-3.15c.66-.05,1.32-.08,2-.11a18.28,18.28,0,0,1,2,.16c.33,0,.65.06,1,.12l1,.27a10.17,10.17,0,0,1,1.92.67,16.39,16.39,0,0,1,5.9,4.58c1.42,1.7,2.5,3.33,3.57,4.69a12.46,12.46,0,0,0,3.19,3.07c.29.13.56.31.85.44s.61.18.92.29.68.09,1,.16a4.63,4.63,0,0,0,.52.07l.52,0a6.64,6.64,0,0,0,3.89-1.15,18.84,18.84,0,0,0,3.69-3.42,46.3,46.3,0,0,1,4.22-4.44,12.62,12.62,0,0,1,6.15-3.06,7.66,7.66,0,0,1,1.71-.19,8.67,8.67,0,0,1,1.69,0l1.68.21c.55.15,1.1.32,1.64.49a13.24,13.24,0,0,1,5.33,3.78c1.39,1.55,2.47,3.19,3.59,4.71a16.48,16.48,0,0,0,3.72,3.94,10.07,10.07,0,0,0,5,1.73Z" transform="translate(-305.13 -198.8)"/><path class="cls-4" d="M616.79,374.17a11.43,11.43,0,0,1-6-1.35,18.39,18.39,0,0,1-4.68-3.91,55.79,55.79,0,0,0-3.86-4.14,10,10,0,0,0-4.25-2.45l-1.16-.22-1.2,0a5.28,5.28,0,0,0-1.19.11,3.86,3.86,0,0,0-1.14.24,8.11,8.11,0,0,0-3.87,2.43,44.12,44.12,0,0,0-3.35,4.28,23.85,23.85,0,0,1-4.38,4.81c-.5.35-1,.71-1.51,1s-1.12.56-1.69.83a13.84,13.84,0,0,1-3.63.84l-.92.1c-.31,0-.61,0-.92,0-.62,0-1.23,0-1.86-.13s-1.25-.27-1.87-.42-1.2-.47-1.8-.71a18.8,18.8,0,0,1-5.57-4.36c-1.45-1.56-2.64-3.06-3.8-4.22a8.32,8.32,0,0,0-3.29-2.28,3.3,3.3,0,0,0-.82-.21l-.41-.09c-.15,0-.31,0-.47,0s-.61-.05-.91,0a7.33,7.33,0,0,1-.91.12,6.39,6.39,0,0,0-3,1.6,25.46,25.46,0,0,0-3.1,3.72,30.42,30.42,0,0,1-4.44,5.11,12.1,12.1,0,0,1-1.6,1.24l-.86.59-1,.5a10.38,10.38,0,0,1-2,.83,16.2,16.2,0,0,1-2.1.54c-.69.09-1.38.17-2.08.24s-1.4,0-2.11,0c-.35,0-.7,0-1.06-.08l-1.08-.22a10.5,10.5,0,0,1-2.14-.62,18.44,18.44,0,0,1-6.77-4.59c-1.62-1.71-2.86-3.26-3.94-4.43a9.35,9.35,0,0,0-2.64-2.22c-.18-.06-.33-.16-.51-.23a2.14,2.14,0,0,1-.55-.15c-.2-.05-.45,0-.67-.07a2.21,2.21,0,0,0-.68,0,4.13,4.13,0,0,0-2.4.65,15.37,15.37,0,0,0-3.15,2.89,49.22,49.22,0,0,1-4.59,4.66c-.52.4-1,.8-1.57,1.18s-1.2.72-1.81,1.06-1.33.55-2,.8a13.23,13.23,0,0,1-2.07.48,8.54,8.54,0,0,1-2.05.18,10.35,10.35,0,0,1-2-.06c-.66-.1-1.32-.2-2-.32s-1.31-.41-1.95-.64a14.64,14.64,0,0,1-6-4.61,43,43,0,0,1-3.33-5.15,17.65,17.65,0,0,0-3.06-4.15,10.37,10.37,0,0,0-4.59-2.42v-1.15a11.41,11.41,0,0,1,3.16-.17l.83.08.8.21a8.12,8.12,0,0,1,1.6.53,19.61,19.61,0,0,1,5.35,3.71c1.49,1.39,2.83,2.73,4.12,3.7a7.65,7.65,0,0,0,3.58,1.62c.3,0,.57.05.85.07s.62-.07.92-.08a4.41,4.41,0,0,0,.88-.17,2.49,2.49,0,0,0,.8-.24,6.31,6.31,0,0,0,2.55-2c.87-1,1.83-2.4,3-4.06a25.75,25.75,0,0,1,4.9-5.36c.61-.42,1.2-.85,1.84-1.23s1.38-.68,2.08-1a16.34,16.34,0,0,1,4.41-1l1.1-.09a10.2,10.2,0,0,1,1.1,0c.73.06,1.45.08,2.2.21s1.51.36,2.25.57,1.44.6,2.14.92a20.4,20.4,0,0,1,6.13,5.2c1.43,1.75,2.47,3.33,3.43,4.48a8.11,8.11,0,0,0,2.41,2.27,1.85,1.85,0,0,0,.61.26l.31.14c.11,0,.25,0,.38.06s.51.12.78.13a7,7,0,0,1,.79,0,5.25,5.25,0,0,0,2.84-1A21.06,21.06,0,0,0,538,364a33.71,33.71,0,0,1,4.7-4.79,15,15,0,0,1,7.4-3.15c.66,0,1.32-.08,2-.11a18.65,18.65,0,0,1,2,.15c.32.05.65.07,1,.13l1,.27a10.17,10.17,0,0,1,1.92.67,16.43,16.43,0,0,1,5.91,4.58c1.42,1.7,2.5,3.33,3.57,4.68a12.17,12.17,0,0,0,3.18,3.08c.29.13.56.31.85.44s.62.18.93.29.68.09,1,.16a4.88,4.88,0,0,0,.52.06l.53,0a6.58,6.58,0,0,0,3.89-1.14,19.13,19.13,0,0,0,3.68-3.42,46.52,46.52,0,0,1,4.23-4.45,12.66,12.66,0,0,1,6.14-3.05,6.65,6.65,0,0,1,1.71-.19,8.05,8.05,0,0,1,1.7,0l1.67.21c.55.14,1.1.32,1.65.49a13.28,13.28,0,0,1,5.32,3.78c1.39,1.55,2.47,3.19,3.59,4.71a16.72,16.72,0,0,0,3.73,3.94,10.14,10.14,0,0,0,5,1.73Z" transform="translate(-305.13 -198.8)"/><rect class="cls-6" x="2155.21" y="1093.31" width="30.02" height="30.02" transform="translate(1114.21 -1408.75) rotate(45)"/><rect class="cls-6" x="311.35" y="1063.18" width="30.02" height="30.02" transform="translate(552.85 -113.78) rotate(45)"/><rect class="cls-6" x="1051.09" y="205.02" width="30.02" height="30.02" transform="translate(162.7 -888.2) rotate(45)"/><rect class="cls-5" x="600.06" y="818.48" width="204.91" height="65.66"/><circle class="cls-3" cx="1225.46" cy="463.72" r="49.22"/><rect class="cls-3" x="1200.57" y="54.63" width="7" height="388.52"/><rect class="cls-3" x="1176.21" y="54.63" width="7" height="410.01"/><polygon class="cls-3" points="1203.11 167.65 1299.44 107.58 1203.11 54.63 1203.11 167.65"/><circle class="cls-4" cx="1406.47" cy="886.87" r="53.57"/><path class="cls-2" d="M1711.6,1036.1a49.57,49.57,0,1,1-49.57,49.57,49.57,49.57,0,0,1,49.57-49.57Zm0-8a57.57,57.57,0,1,0,57.57,57.57,57.63,57.63,0,0,0-57.57-57.57Z" transform="translate(-305.13 -198.8)"/><polygon class="cls-6" points="1640.24 1022.44 1640.24 1085.88 1706.8 1064.56 1706.8 1005.54 1640.24 1022.44"/><polygon class="cls-4" points="1123.01 1125.15 926.53 1123.36 926.53 1043.5 1123.01 1043.5 1123.01 1125.15"/><rect class="cls-6" x="636.33" y="706.98" width="126.99" height="79.16"/><rect class="cls-3" x="109.65" y="1010.71" width="136.73" height="19.95"/><rect class="cls-3" x="408.72" y="760.4" width="120.07" height="34.57"/><path class="cls-3" d="M721,992.84l-7-.43c.13-2.06.19-4.15.19-6.22,0-52.63-41-95.44-91.37-95.44-37,0-70.12,23-84.37,58.72l-6.5-2.59c15.32-38.35,51-63.13,90.87-63.13,54.24,0,98.37,46,98.37,102.44C721.23,988.4,721.17,990.64,721,992.84Z" transform="translate(-305.13 -198.8)"/><circle class="cls-6" cx="1530.6" cy="662.51" r="18.78" transform="translate(229.01 1801.15) rotate(-76.72)"/><rect class="cls-3" x="1149.17" y="1433.1" width="101.7" height="41" transform="translate(-583.95 86.02) rotate(-12.14)"/><rect class="cls-3" x="1104.1" y="1470.19" width="9.56" height="5" transform="translate(-580.19 56.04) rotate(-11.67)"/><polygon class="cls-4" points="760.38 1162.81 637.38 1234.51 512.29 1182 635.29 1110.29 760.38 1162.81"/><polygon class="cls-2" points="682.93 1197.24 640.91 1221.73 630.01 1217.16 672.02 1192.66 682.93 1197.24"/><polygon class="cls-2" points="714.22 1179 693.37 1191.16 682.46 1186.58 703.31 1174.42 714.22 1179"/><ellipse class="cls-2" cx="937.73" cy="1335.68" rx="16.14" ry="8.04" transform="translate(-430.26 -101.55) rotate(-5.57)"/><polygon class="cls-6" points="628.99 1205.64 704.05 1161.88 616.01 1162.56 628.99 1205.64"/><rect class="cls-3" x="844.81" y="1367.47" width="38.45" height="7" transform="matrix(0.86, -0.5, 0.5, 0.86, -878.04, 422.97)"/><rect class="cls-3" x="891.32" y="1355.77" width="29.09" height="7" transform="translate(-866.46 442.45) rotate(-30.24)"/><rect class="cls-3" x="858.06" y="1374.99" width="29.7" height="7" transform="translate(-880.62 428.46) rotate(-30.24)"/><path class="cls-5" d="M933.43,1294.46l18.66,7.83L805.77,1387.6l-18.66-7.84,9.59-5.59a19.59,19.59,0,0,0,7.94,1.26,22.71,22.71,0,0,0,10.38-2.67c5-2.93,4.94-7-.16-9.17L833,1353c5.1,2.14,13.32,1.5,18.33-1.42s4.94-7-.16-9.17l18.16-10.59c5.1,2.14,13.31,1.51,18.32-1.41s5-7-.15-9.18l18.16-10.59c5.1,2.14,13.3,1.51,18.32-1.41,2.82-1.65,4-3.67,3.64-5.5-.29-1.43-1.56-2.74-3.8-3.68Z" transform="translate(-305.13 -198.8)"/><path class="cls-5" d="M804.64,1375.43l150.66,63.24c.3,1.42,1.57,2.74,3.8,3.67l-16.28,9.49-16.54-6.94c5-2.93,5-7-.15-9.18s-13.31-1.5-18.33,1.42l-18.46-7.75c5-2.92,4.94-7-.16-9.18s-13.3-1.5-18.32,1.42l-18.47-7.75c5-2.92,5-7-.15-9.18s-13.31-1.5-18.32,1.42l-18.48-7.75c5-2.92,5-7-.14-9.17S802,1387.68,797,1390.6l-16.54-6.94,16.27-9.49A19.59,19.59,0,0,0,804.64,1375.43Z" transform="translate(-305.13 -198.8)"/><path class="cls-5" d="M956.81,1306.69c5.1,2.14,13.31,1.5,18.32-1.42L993.6,1313c-5,2.93-5,7,.15,9.18s13.31,1.5,18.33-1.42l18.47,7.75c-5,2.93-5,7,.15,9.18s13.31,1.5,18.32-1.42l18.47,7.75c-5,2.92-5,7,.15,9.18s13.31,1.5,18.32-1.43l16.55,7-16.27,9.48a19.47,19.47,0,0,0-8-1.25l-150.65-63.24c-.29-1.43-1.56-2.74-3.8-3.68l16.27-9.48,16.55,6.94C951.64,1300.44,951.71,1304.55,956.81,1306.69Z" transform="translate(-305.13 -198.8)"/><path class="cls-5" d="M1077.18,1354.81l18.65,7.82-9.59,5.59a19.47,19.47,0,0,0-8-1.25,22.7,22.7,0,0,0-10.37,2.67c-5,2.93-5,7,.15,9.17l-18.16,10.59c-5.1-2.14-13.3-1.5-18.32,1.42s-4.94,7,.16,9.17l-18.17,10.59c-5.1-2.14-13.29-1.51-18.31,1.42s-4.95,7,.15,9.17l-18.17,10.59c-5.1-2.14-13.29-1.51-18.31,1.41-2.82,1.65-4,3.67-3.64,5.5.3,1.42,1.57,2.74,3.8,3.67l-9.6,5.6-18.65-7.83Z" transform="translate(-305.13 -198.8)"/><polygon class="cls-4" points="650.8 1183.76 639.6 1190.28 631.63 1186.94 642.83 1180.41 650.8 1183.76"/><polygon class="cls-4" points="659.06 1170.05 647.86 1176.58 639.89 1173.23 651.09 1166.7 659.06 1170.05"/><polygon class="cls-4" points="672.84 1175.83 661.64 1182.36 653.67 1179.01 664.87 1172.49 672.84 1175.83"/><polygon class="cls-6" points="229.47 1230.02 76.95 1191.88 184.7 1123.13 337.22 1161.27 229.47 1230.02"/><path class="cls-4" d="M672.88,1353.43l-16.07,10.26-181.44-45.37,16.07-10.25,11.9,3c-1.92,1.23-2.72,2.59-2.49,3.87.29,1.65,2.29,3.15,5.79,4,6.22,1.56,14.82.54,19.21-2.26l22.53,5.63c-4.4,2.8-2.91,6.34,3.3,7.9s14.83.54,19.22-2.27l22.53,5.63c-4.4,2.81-2.93,6.34,3.29,7.9s14.84.54,19.23-2.26l22.52,5.63c-4.39,2.8-2.92,6.34,3.3,7.89a30.16,30.16,0,0,0,11.59.33,20.81,20.81,0,0,0,7.64-2.59Z" transform="translate(-305.13 -198.8)"/><path class="cls-4" d="M500.85,1314.91,371.08,1397.7a20.7,20.7,0,0,0-7.62,2.59l-20.18-5,14.25-9.09c6.22,1.55,14.82.54,19.22-2.26s2.91-6.34-3.31-7.89l15.9-10.15c6.22,1.55,14.84.54,19.23-2.26s2.91-6.34-3.31-7.89l15.91-10.16c6.22,1.56,14.82.55,19.23-2.26s2.9-6.33-3.32-7.89L453,1325.24c6.22,1.55,14.83.54,19.22-2.26s2.91-6.34-3.3-7.89l14.25-9.1,20.18,5C501.42,1312.27,500.62,1313.63,500.85,1314.91Z" transform="translate(-305.13 -198.8)"/><path class="cls-4" d="M647.69,1366.86c-4.39,2.8-2.9,6.33,3.32,7.89l-15.92,10.15c-6.21-1.55-14.82-.54-19.22,2.26s-2.91,6.34,3.31,7.89l-15.91,10.16c-6.22-1.56-14.83-.55-19.22,2.25s-2.91,6.34,3.31,7.9l-15.91,10.15c-6.22-1.56-14.83-.55-19.22,2.26s-2.91,6.33,3.31,7.89l-14.25,9.09-20.17-5c1.92-1.23,2.72-2.6,2.48-3.88l129.76-82.78a20.81,20.81,0,0,0,7.64-2.59l20.17,5-14.25,9.1C660.7,1363,652.09,1364.06,647.69,1366.86Z" transform="translate(-305.13 -198.8)"/><path class="cls-4" d="M549.07,1432.43,533,1442.68l-11.88-3c1.92-1.23,2.72-2.6,2.48-3.88-.3-1.64-2.3-3.14-5.8-4-6.22-1.56-14.81-.55-19.21,2.26l-22.52-5.64c4.39-2.8,2.9-6.33-3.32-7.89s-14.81-.54-19.21,2.26L431,1417.18c4.39-2.8,2.91-6.33-3.3-7.89s-14.83-.54-19.22,2.26L386,1405.92c4.4-2.81,2.92-6.34-3.3-7.89a30.17,30.17,0,0,0-11.59-.33,20.7,20.7,0,0,0-7.62,2.59l-11.9-3,16.06-10.25Z" transform="translate(-305.13 -198.8)"/><polygon class="cls-2" points="196.73 1212.59 144.63 1199.57 154.03 1193.57 206.13 1206.6 196.73 1212.59"/><polygon class="cls-2" points="209.03 1202.6 183.17 1196.14 192.57 1190.14 218.43 1196.61 209.03 1202.6"/><ellipse class="cls-2" cx="530.85" cy="1363.48" rx="45.33" ry="18.92" transform="translate(-379.58 -167.42) rotate(-3.16)"/><polygon class="cls-2" points="197.31 1199.67 159.34 1190.18 194.83 1167.54 232.79 1177.03 197.31 1199.67"/><path class="cls-6" d="M544.27,1366.84c-5.23,3.34-15.48,4.55-22.9,2.69s-9.17-6.06-3.93-9.4,15.48-4.55,22.9-2.69S549.51,1363.5,544.27,1366.84Z" transform="translate(-305.13 -198.8)"/><rect class="cls-3" x="416.48" y="1374.52" width="7" height="32.79" transform="translate(-1336.4 1262.17) rotate(-75.96)"/><rect class="cls-3" x="603.44" y="1342.91" width="7" height="32.79" transform="translate(-1164.13 1419.61) rotate(-75.96)"/><rect class="cls-2" x="614.93" y="472.67" width="5" height="210.86" transform="translate(-522.32 516.55) rotate(-52.45)"/><rect class="cls-4" x="1854.97" y="263.33" width="139.1" height="5" transform="translate(103.39 1282.03) rotate(-46.57)"/><rect class="cls-4" x="1905.89" y="285.25" width="78.75" height="5" transform="translate(93.96 1303.94) rotate(-46.57)"/><rect class="cls-4" x="308.32" y="884.75" width="139.1" height="5" transform="translate(-831.4 352.98) rotate(-46.57)"/><rect class="cls-4" x="359.24" y="906.67" width="78.75" height="5" transform="translate(-840.83 374.9) rotate(-46.57)"/><path class="cls-1" d="M1946.47,982l-.85-8c4.23-.45,108.26-10.12,112.68-10.53l.74,8C2058,971.6,1950.64,981.57,1946.47,982Z" transform="translate(-305.13 -198.8)"/><rect class="cls-2" x="990.1" y="1063.49" width="110.93" height="8"/><rect class="cls-2" x="951.45" y="1063.49" width="21.22" height="8"/><rect class="cls-2" x="1027.8" y="1087.54" width="45.78" height="8"/><rect class="cls-2" x="951.45" y="1087.54" width="59.43" height="8"/><rect class="cls-2" x="1526.13" y="633.2" width="8" height="113.36"/><rect class="cls-2" x="427.64" y="1004.84" width="90.2" height="6"/><rect class="cls-2" x="158.1" y="1004.84" width="217.53" height="6"/><polygon class="cls-4" points="1119.64 896.16 1193.56 828.45 1270.45 896.16 1270.45 651.59 1119.64 896.16"/><path class="cls-3" d="M878.44,894.67h-9V576.37a4.5,4.5,0,0,1,6.72-3.92l203.45,115.61-4.45,7.82L878.44,584.1Z" transform="translate(-305.13 -198.8)"/><path class="cls-3" d="M1315.85,784.13h-84.19a4.44,4.44,0,0,1-2.22-.59l-83.26-47.31,4.45-7.82,82.22,46.72h83Z" transform="translate(-305.13 -198.8)"/><rect class="cls-2" x="659.87" y="345.85" width="388.75" height="9"/><polygon class="cls-4" points="636.33 786.14 763.32 706.98 763.32 786.14 636.33 786.14"/><rect class="cls-3" x="600.06" y="868.57" width="204.91" height="15.57"/><rect class="cls-2" x="1388.7" y="1398.66" width="24.45" height="7" transform="translate(-546.03 92.92) rotate(-10.95)"/><rect class="cls-2" x="1323.31" y="1409.31" width="45.09" height="7" transform="translate(-549.05 82.65) rotate(-10.95)"/><rect class="cls-6" x="1143.43" y="1443.41" width="106.15" height="7" transform="translate(-578.41 79.82) rotate(-11.93)"/><rect class="cls-3" x="1703.15" y="1165.08" width="178.51" height="5" transform="translate(-613.23 1373.56) rotate(-43.99)"/><rect class="cls-3" x="1668.5" y="1267.15" width="36.27" height="5" transform="translate(-713.79 1328.73) rotate(-43.99)"/><polygon class="cls-3" points="1359.42 1095.63 1326.69 1127.21 1320.64 1127.15 1319.57 1127.14 1355.95 1092.03 1359.42 1095.63"/><polygon class="cls-3" points="1577.52 937.98 1506.94 1006.1 1506.63 1006.4 1380.86 1127.76 1380.85 1127.76 1376.27 1127.71 1366.61 1127.62 1506.4 992.73 1507.06 992.1 1507.06 992.09 1570.58 930.78 1577.52 937.98"/><path class="cls-2" d="M713.18,1023.05v-9c12.83,0,441.81-5.22,446.15-5.27l.1,9C1155.1,1017.83,726.06,1023.05,713.18,1023.05Z" transform="translate(-305.13 -198.8)"/><path class="cls-2" d="M579.67,1077.37c-21.19-16.53-34.54-40.14-36.6-64.77-2.91-34.51,17.52-69.05,47.51-80.35a57.36,57.36,0,0,1,18.63-3.54c17.25-.47,34.61,6.11,45.33,17.21a41.8,41.8,0,0,1,11.92,32.45,36.33,36.33,0,0,1-25.35,32.31,38.91,38.91,0,0,1-20,.8c-8-1.94-13.71-6.79-16.07-13.67l8.52-2.92c1.91,5.58,10.88,11.5,24.85,7.19a27.28,27.28,0,0,0,19-24.27,33.06,33.06,0,0,0-9.42-25.64c-9-9.33-23.8-14.88-38.59-14.46a48.46,48.46,0,0,0-15.71,3c-13,4.89-24.35,15-32,28.56a74.69,74.69,0,0,0-9.7,42.61c1.86,22.14,14,43.44,33.18,58.43Z" transform="translate(-305.13 -198.8)"/><ellipse class="cls-2" cx="313.09" cy="796.74" rx="15.01" ry="13.2"/><rect class="cls-2" x="751.8" y="954.78" width="82.11" height="9" transform="translate(-307.21 -197.08) rotate(-0.12)"/><rect class="cls-3" x="1266.45" y="651.59" width="8" height="244.56"/><circle class="cls-5" cx="1513.14" cy="273.63" r="16.92"/><rect class="cls-2" x="901.65" y="786.23" width="109.07" height="8"/><rect class="cls-6" x="408.05" y="922.26" width="536.82" height="8.52"/><rect class="cls-3" x="1486.17" y="1000.73" width="8" height="641.13" transform="translate(-146.67 2603.36) rotate(-89.6)"/><path class="cls-3" d="M1068.45,986.94H987.59v-4h78.86V945.36h4v39.58A2,2,0,0,1,1068.45,986.94Z" transform="translate(-305.13 -198.8)"/><rect class="cls-1" x="1698.4" y="564.72" width="110.28" height="33.07"/></svg>