<svg xmlns="http://www.w3.org/2000/svg" viewBox="0 0 2499.93 1663.93"><defs><style>.cls-1{fill:#fff;}.cls-2{fill:#ffe9e9;}.cls-3{fill:#000061;}.cls-4{fill:#ffb2a8;}.cls-5{fill:#ff5776;}.cls-6{fill:#ffb149;}.cls-7{fill:#00ccbe;}.cls-8{fill:none;stroke:#000061;stroke-linejoin:round;stroke-width:4px;}</style></defs><title>Asset 2</title><g id="Layer_2" data-name="Layer 2"><g id="ëÎÓÈ_1" data-name="ëÎÓÈ 1"><rect class="cls-1" width="2499.93" height="1663.93"/><rect class="cls-2" x="1582.85" y="660.17" width="84.89" height="35.58"/><rect class="cls-2" x="2150.69" y="840.51" width="84.89" height="35.58"/><rect class="cls-2" x="637.94" y="370.32" width="105.11" height="26.4"/><rect class="cls-2" x="367.5" y="593.49" width="84.89" height="35.58"/><rect class="cls-2" x="1446.34" y="565" width="157.18" height="72.42"/><rect class="cls-2" x="674.35" y="1132.54" width="157.18" height="72.42"/><path class="cls-3" d="M633,1029s-9.37,1.4,2.78-23.83S666.63,962.53,671,970s5.27,21.16,5.27,21.16-13.7,40.18-15.57,40.18S633,1029,633,1029Z"/><path class="cls-4" d="M623.29,1017.33l-79-31.55a23.25,23.25,0,0,1-12.49-11.87h0a4.7,4.7,0,0,1,2.16-6.16l11.13-5.58L543,956.44a16.49,16.49,0,0,1,2.75-16.09h0a16.5,16.5,0,0,1,13.6-6l19.78,1-19.47-20a6.41,6.41,0,0,1-1-7.68h0a6.43,6.43,0,0,1,5.71-3.23h0A33.28,33.28,0,0,1,586,913l31.13,28.19L612.93,928a7.44,7.44,0,0,1,7.52-9.68h0a7.88,7.88,0,0,1,5.59,2.79l41.31,49L679.07,985l-35.89,43.61Z"/><path class="cls-3" d="M632,989.36c-18.57-15.49-8.68-35.17-8.58-35.37l3.56,1.83c-.36.69-8.48,17.07,7.58,30.47Z"/><rect class="cls-1" x="578.01" y="914.57" width="4" height="42.51" transform="translate(-517.81 852.36) rotate(-53.86)"/><rect class="cls-1" x="552.2" y="945.46" width="4" height="42.51" transform="translate(-549.61 1119.28) rotate(-68.04)"/><rect class="cls-1" x="564.78" y="926.98" width="4" height="54.58" transform="translate(-540.94 1023.7) rotate(-62.88)"/><circle class="cls-2" cx="1761.81" cy="959.36" r="203.98" transform="translate(-162.35 1526.78) rotate(-45)"/><rect class="cls-1" x="1578.7" y="928.49" width="162.42" height="64.74"/><circle class="cls-2" cx="937.67" cy="764.37" r="330.59"/><path class="cls-1" d="M784.77,454.6c12.19-3.1,25.63-1.43,36,6a34.63,34.63,0,0,1,13.78,33c-2.07,12.72-12.8,19.5-19.64,29.45-6,8.71-8.87,19.3-9,29.8-.38,22.29,11.08,42.38,28.47,55.76,18.45,14.18,45.15,23.66,68.54,20.5,39.4-5.34,53.73-50.27,78.9-74.84,37.51-36.61,90.33-11.87,135.76-15.59,23.68-1.94,44.48-12.84,58.73-32,13.59-18.28,19.66-41.79,15-64.21-.4-1.89-3.29-1.09-2.9.8,4.43,21.19-1.29,43.36-13.86,60.79-13.59,18.84-33.92,29.73-57,31.62-42.82,3.51-92.71-19.16-130.53,10.06-14.68,11.34-24.72,27.42-35.36,42.32-10.48,14.68-22.54,30.19-40.35,36-23.66,7.79-53.45-2.24-73-16.25-20.06-14.41-32.93-38.36-28.7-63.41a49.72,49.72,0,0,1,7.07-18.66c3.62-5.65,8.7-10,12.94-15.19a34.66,34.66,0,0,0,7.56-29.47C832.39,457,806.38,446,784,451.71c-1.87.47-1.08,3.37.79,2.89Z"/><path class="cls-3" d="M1280,619s-5.15-16.35-50.06-5.23c0,0-25.62-2.85-24.94,8.23l6.4,5.16,59.33,3.92S1280.17,637.19,1280,619Z"/><path class="cls-1" d="M1039.2,411.05c-10.3,16.65-14.51,37.33-17.85,56.35-3.6,20.49-6,41.6-5.3,62.43,1.24,38.3,10.76,77.22,23.24,113.28,25.7,74.27,71.34,149.26,141.52,188.78a195.87,195.87,0,0,0,127.09,22.67c1.9-.3,1.1-3.19-.8-2.89a191.75,191.75,0,0,1-115.5-17.45C1157.08,817,1128,790.32,1104.54,760c-24.75-31.92-43.89-68.16-58.1-105.9-13.59-36.08-23-74-26.57-112.45-2-21.73-.24-43.69,3-65.22,3.24-21.37,7.34-45.19,18.89-63.86,1-1.65-1.57-3.16-2.59-1.52Z"/><path class="cls-1" d="M574.52,869.62c14.94-31.86,43.94-65.64,81.53-68.23,15.09-1,31.11,2.76,43.17,12.16,15.8,12.31,19,31.17,16,50.12-2.93,18.76-8.33,36.71-2.63,55.53a71.06,71.06,0,0,0,26.77,37.45c12.64,8.84,28.72,12.29,43.68,7.94,18.17-5.29,33.58-17.36,51.5-23.38,11.59-3.89,23.82-4.54,35.9-2.89,10.53,1.44,20.47,4.34,28.57,11.48,13.47,11.87,20.18,29.48,28.57,44.89.93,1.7,3.52.18,2.6-1.51-7.6-13.95-13.77-29.12-24.55-41-12.39-13.71-30.31-17.84-48.29-17.67-19.63.17-36.06,8.79-53.1,17.56-9.25,4.76-19,10-29.45,11.15a47.7,47.7,0,0,1-26.35-4.66c-16.4-8-28.46-24-33.35-41.45-5.87-21,2.58-40.79,4.11-61.63,1.25-16.89-4.16-33-17.57-43.78-11.37-9.12-26.23-13.42-40.69-13.45-40.83-.08-73,35.59-89.05,69.89-.81,1.74,1.77,3.26,2.59,1.51Z"/><path class="cls-3" d="M427.73,1345.49,360.91,1238a1.5,1.5,0,0,1-.16-1.24,1.54,1.54,0,0,1,.82-.93l95.52-42.51,1.22,2.74-93.94,41.81,65.91,106.06Z"/><rect class="cls-3" x="475.73" y="1175.79" width="42.01" height="3" transform="translate(-435.82 303.73) rotate(-23.99)"/><path class="cls-3" d="M669.65,556l-13.76-35.53a4.67,4.67,0,0,0-1.68-2.14l-33.6-23.46,4.58-6.56,33.6,23.46a12.66,12.66,0,0,1,4.56,5.81l13.76,35.53Z"/><path class="cls-3" d="M979.32,410.45l-61.67-51.21a4.77,4.77,0,0,0-7.82,3.67v47.54Z"/><rect class="cls-1" x="940.33" y="375.46" width="3" height="49.17" transform="translate(31.05 866.48) rotate(-50.13)"/><polygon class="cls-1" points="647.93 1271.16 588.33 1152.97 392.85 1239.99 475.06 1372.26 647.93 1271.16"/><path class="cls-3" d="M585.54,1160.78l54.49,108-163,95.3-75.49-121.46,184-81.89Zm2.79-7.81-195.48,87,82.21,132.27,172.87-101.1L588.33,1153Z"/><polygon class="cls-3" points="475.06 1372.26 624.61 1364.47 758.67 1268.92 647.93 1271.16 475.06 1372.26"/><polygon class="cls-3" points="476.56 1384.49 626.11 1376.7 760.17 1281.15 649.43 1283.38 476.56 1384.49"/><rect class="cls-5" x="850.87" y="410.45" width="131.98" height="78.08" rx="3.04"/><path class="cls-1" d="M969.29,480.84H864.43a4.55,4.55,0,0,1-4.54-4.54V422.67a4.54,4.54,0,0,1,4.54-4.54H969.29a4.53,4.53,0,0,1,4.53,4.54V476.3A4.54,4.54,0,0,1,969.29,480.84ZM864.43,421.13a1.55,1.55,0,0,0-1.54,1.54V476.3a1.55,1.55,0,0,0,1.54,1.54H969.29a1.54,1.54,0,0,0,1.53-1.54V422.67a1.54,1.54,0,0,0-1.53-1.54Z"/><path class="cls-4" d="M1274.44,618l34.61-77.73a23.26,23.26,0,0,0,.67-17.22h0a4.71,4.71,0,0,0-5.85-2.91L1292,523.89l-2.51-5.56a16.51,16.51,0,0,0-13.19-9.61h0a16.47,16.47,0,0,0-14,5.18l-13.47,14.51V500.5a6.44,6.44,0,0,0-4.67-6.19h0a6.43,6.43,0,0,0-6.34,1.68h0a33.24,33.24,0,0,0-9.49,21.23l-2.64,41.91-6.21-12.38a7.43,7.43,0,0,0-12.14-1.69h0a7.9,7.9,0,0,0-2.06,5.9l4.6,63.94,2,18.85,59.24-4.48Z"/><polygon class="cls-6" points="1709.57 302.15 1671.71 261.16 1664.99 267.07 1666.06 288.13 1674.56 287.4 1679.23 292.98 1678.71 300.46 1685.65 299.38 1699.1 316.71 1709.57 302.15"/><path class="cls-6" d="M1717.47,299.37a22.35,22.35,0,1,0,22.36,22.35A22.35,22.35,0,0,0,1717.47,299.37Zm0,30.25a7.9,7.9,0,1,1,7.9-7.9A7.9,7.9,0,0,1,1717.47,329.62Z"/><path class="cls-3" d="M2197.91,746.71a4.5,4.5,0,0,1-3.2-7.66l2.78-2.8a4.5,4.5,0,1,1,6.39,6.33l-2.77,2.8A4.48,4.48,0,0,1,2197.91,746.71Z"/><rect class="cls-3" x="1569.13" y="1414.26" width="12" height="20.59" transform="translate(-515.91 1053.14) rotate(-32.05)"/><polygon class="cls-5" points="1839.15 1274.72 1934.87 1176.32 1945.14 1098.32 1844.16 1194.36 1839.15 1274.72"/><path class="cls-3" d="M1935.68,1202.83l-2.86-2.79L1953.3,1179l8.27-62.83,4,.52-8.36,63.49a2,2,0,0,1-.55,1.13Z"/><path class="cls-3" d="M1859.48,1280.3a2,2,0,0,1-2-2.28l10.49-71.78,4,.58-9.59,65.66,58.24-59.87,2.87,2.79-62.55,64.3A2,2,0,0,1,1859.48,1280.3Z"/><polygon class="cls-3" points="1949.14 798.78 1929.02 796.16 1936.01 763.51 1950.66 760.28 1963.7 773.44 1949.14 798.78"/><path class="cls-3" d="M1985.76,799.9s10.53,13.84,23.63,3c9.52-7.91,10.39-20.87,10.15-27.35a16.15,16.15,0,0,0-1.61-6.44c-3-6.31-10.24-23.57-5.89-38.34,5.44-18.45-9.16-22.2-9.16-22.2l-7.47,14L1988,758.88Z"/><path class="cls-3" d="M1446.34,992.21s-107.65,89,30.45,88.29,224.9-173,223.2-232.73c0,0,112.3.24,232.71-50l6.9-36.68s-209.54-39.31-289.54-32.83a9.69,9.69,0,0,0-5.54,2.3c-17.3,14.76-124.63,107.34-174.75,174.74h0Z"/><path class="cls-5" d="M1949.14,798.78l30.24,1.86a15.35,15.35,0,0,0,9.78-2.66,20.61,20.61,0,0,0,8.15-12.42,26.3,26.3,0,0,0-1-15.07c-2.42-6.72-5.71-20.88,2-35.47,10.61-20.19,4.6-26.49,4.6-26.49l-6.32,2.63a13.25,13.25,0,0,0-7.14,7.16l-9.6,23.24a22.67,22.67,0,0,1-9.8,11.06l-14.71,8.31S1958.38,785.14,1949.14,798.78Z"/><path class="cls-3" d="M1975.42,751.66a12.28,12.28,0,0,1-3.87-.58,8.22,8.22,0,0,1-4.68-4.06,5.86,5.86,0,0,1-.29-4.65c1.12-3.13,5.16-6.2,8.72-5.46,2.48.51,4.22,2.51,5.62,4.11l.24.27a6,6,0,0,0-1-4.59c-4.57-5.48-9.16-10.68-15-14.11l-.61-.35a18.28,18.28,0,0,1-3.19-2.13,7.94,7.94,0,0,1-2-8.72,9.17,9.17,0,0,1,7.77-6.39l.19,3c-2.56.16-4.41,2.31-5.12,4.37a4.93,4.93,0,0,0,1.17,5.49,16.43,16.43,0,0,0,2.7,1.79l.63.36c6.29,3.67,11.07,9.09,15.82,14.78,3,3.6,1.33,8.71,1.26,8.92a1.5,1.5,0,0,1-.82.89l-.71.32a2.13,2.13,0,0,1-2.53-.81l-.06-.08c-.31-.32-.61-.67-.92-1-1.22-1.39-2.48-2.84-4-3.14-1.89-.4-4.62,1.69-5.28,3.53a2.92,2.92,0,0,0,.16,2.34,5.27,5.27,0,0,0,2.94,2.51c2.32.78,5,.33,7.45-.08l.5,3A31,31,0,0,1,1975.42,751.66Z"/><path class="cls-5" d="M1963.45,756.34s-13.53-6.09-16.51,1.09,2.74,19.82,11,18.44S1963.45,756.34,1963.45,756.34Z"/><path class="cls-1" d="M1957,777.35a8.24,8.24,0,0,1-1.22-.08c-7.58-1-11-10.75-11.33-11.72s-3.75-10.13,7.09-15.28l1.29,2.71c-8.63,4.1-5.94,10.68-5.61,11.42l.07.17c0,.09,3,9,8.88,9.73,4.88.63,10.91-4.45,17.45-14.67l2.52,1.61C1969.32,771.94,1962.88,777.35,1957,777.35Z"/><path class="cls-1" d="M1983.1,805l-1.86-2.35c15.28-12.06,18.22-18.86,13.65-31.64-5.22-14.64-4.2-23.45,5-42.83,3.32-7,4.22-13,2.6-17.36a9.13,9.13,0,0,0-4.4-5.17l1.18-2.76a12.17,12.17,0,0,1,6,6.78c2,5.2,1.09,11.86-2.67,19.79-8.85,18.71-9.8,26.67-4.85,40.54C2003.31,785.65,1997.73,793.45,1983.1,805Z"/><rect class="cls-1" x="1678.28" y="845.58" width="49.56" height="6" transform="translate(675.91 2450.28) rotate(-83.81)"/><polygon class="cls-3" points="1679.78 552.54 1663.76 565 1645.49 537.05 1653.51 524.37 1672.03 524.37 1679.78 552.54"/><path class="cls-3" d="M1706.35,527.32s17.26,2.27,18.74-14.7c1.12-12.75-8.1-22.71-12.75-26.88a14.29,14.29,0,0,0-5-2.88c-6.41-2.17-24.12-9.22-31.65-22.89-9.28-16.86-22.22-9.12-22.22-9.12l4.71,15.18,20.59,30.81Z"/><path class="cls-3" d="M1462.46,426.28c2.13,7.53-4.67,16.05-15.18,19s-20.76-.73-22.89-8.27,4.66-16,15.18-19S1460.33,418.74,1462.46,426.28Z"/><path class="cls-3" d="M1315.61,459.86l125.18-24.06a1.67,1.67,0,0,0,.6-.25l103.67-72.11a1.58,1.58,0,0,0,.51-2l-61.7-122a1.57,1.57,0,0,0-2.48-.44l-47.55,44.51a1.52,1.52,0,0,1-.57.34c-6.77,2.29-117.89,39.75-118.94,39.1s-43.71-2.42-54.5-2.88a1.57,1.57,0,0,0-1.52,2.17l55.54,136.72A1.58,1.58,0,0,0,1315.61,459.86Z"/><path class="cls-3" d="M1539,312.39l-36.19-71.61-27.52,25.76-2.73-2.92,27.92-26.14a3.57,3.57,0,0,1,5.64,1l36.45,72.11Z"/><path class="cls-3" d="M1494,415.65l-2.28-3.28,72.4-50.36-14-27.74,3.57-1.8,14.19,28.06a3.6,3.6,0,0,1-1.15,4.55Z"/><path class="cls-3" d="M2079.56,388.11s-6.32,26.52,19.25,31c0,0-18.87,24.22,13,32.64,0,0-11.19,24.31,13.59,35.25l-18,7-26.28-26.41-10.7-24.4-4.69-40.68S2059,387.87,2079.56,388.11Z"/><path class="cls-6" d="M2121.11,487.5a19.93,19.93,0,0,1-19.93-19.93,20.71,20.71,0,0,1,.28-3.37,21,21,0,0,1-4.07.38,22.2,22.2,0,0,1-16.12-37.49,22.22,22.22,0,0,1-1.71-39A86.12,86.12,0,1,0,2042,551.73a86.26,86.26,0,0,0,79.54-53.11,84.79,84.79,0,0,0,3.89-11.59A19.34,19.34,0,0,1,2121.11,487.5Zm-79.16-53a31.13,31.13,0,1,1-31.14,31.13A31.16,31.16,0,0,1,2042,434.46Z"/><polygon class="cls-6" points="1704.64 1157.36 1690.79 1248.39 1839.15 1274.72 1854.9 1186.32 1704.64 1157.36"/><path class="cls-3" d="M948.31,678.19s18.23-2.41,15.89,18.12-46.59,36.09-46.59,36.09S914.19,692.94,948.31,678.19Z"/><ellipse class="cls-3" cx="781.16" cy="722.96" rx="11.43" ry="13.95"/><path class="cls-5" d="M881.49,712.36l66.82-34.17s-20.12,10.74-19.08,38.9S923.8,799.77,838,805.4,852.09,702,881.49,712.36Z"/><path class="cls-1" d="M863.7,794.74l-.86-2.87c36.7-11,55.53-36.17,56-74.81l3,0c-.19,16.39-3.72,30.69-10.48,42.51C901.77,776.31,885.75,788.14,863.7,794.74Z"/><path class="cls-7" d="M881.49,712.36s-37.92-42.11-90-5a28.46,28.46,0,0,0-6.85,6.91c-10.38,15-40.89,68.42,19.1,109.63a12.73,12.73,0,0,0,8.58,2.13c8.46-.9,24.91-4.71,25.71-20.6C839.12,784,854,727.39,881.49,712.36Z"/><path class="cls-3" d="M1405,1184s39.27-5.1,41.35-59.62-112.63-50.48-112.63-50.48Z"/><path class="cls-7" d="M1372.93,1113.2s77.75,71.74,174.45-26.84,35.45-281.51-8.18-322.37c0,0,79.21-79.59,128.26-200.52l-21.2-30.72s-171.82,118.68-225.49,180.63a16.81,16.81,0,0,0-4.08,9.86c-2.09,28.81-10.94,164.21,1.27,244.73h0Z"/><path class="cls-5" d="M1405,1184s-123,12-252-36c0,0-174,66-318,65,0,0-73-18-202-184,0,0,26-6,38-59C731.4,1016.4,785.9,1054,829.82,1076l.82.41c.64.32,1.3.61,2,.87a24.36,24.36,0,0,0,13.12,1.31l11.49-2,3.3-.58L992,1053l107-102,103.28-118.16,2.42-2.77L1217,816l-.23-3.77-.19-3L1205,622s69,13,75-3c0,0,69,137,58,303,0,0,47,26,79,19l1,27S1375.92,1066.73,1405,1184Z"/><path class="cls-4" d="M937.88,850.4s26.77-3.72,54.25,52.79-14.46,57.67-14.46,57.67l-39.79-9.28-21.77-32,5.1-56.09Z"/><path class="cls-4" d="M867.17,896.83s55.55,134,139.75,159.19c0,0,116.2,2.61,140.26-42s-88.32-79.49-107.14-69.59-137.89-63.76-137.89-63.76Z"/><rect class="cls-6" x="1914.43" y="912.65" width="68.52" height="24.13" transform="translate(3897.38 1849.42) rotate(180)"/><path class="cls-6" d="M1914,912.17h69.48v25.09H1914Zm68.51,1h-67.55v23.16h67.55Z"/><rect class="cls-1" x="1828.55" y="912.65" width="68.52" height="24.13" transform="translate(3725.61 1849.42) rotate(180)"/><rect class="cls-6" x="377.41" y="1072.2" width="68.52" height="24.13" transform="translate(823.33 2168.53) rotate(180)"/><path class="cls-6" d="M376.93,1071.72h69.48v25.09H376.93Zm68.51,1H377.89v23.16h67.55Z"/><rect class="cls-7" x="291.52" y="1072.2" width="68.52" height="24.13" transform="translate(651.56 2168.53) rotate(180)"/><path class="cls-7" d="M2172.31,575.66a11.55,11.55,0,0,1,6,1.35,18.55,18.55,0,0,1,4.67,3.92c1.33,1.46,2.54,2.93,3.86,4.13a9.88,9.88,0,0,0,4.26,2.46l1.15.22,1.21,0a6.75,6.75,0,0,0,1.19-.11,4.28,4.28,0,0,0,1.14-.24,8.19,8.19,0,0,0,3.86-2.43,42.62,42.62,0,0,0,3.35-4.28,24.49,24.49,0,0,1,4.38-4.82c.5-.35,1-.71,1.51-1l1.7-.83a14.06,14.06,0,0,1,3.63-.84l.92-.1c.3,0,.61,0,.92,0,.61,0,1.23,0,1.85.13s1.25.27,1.88.43,1.2.46,1.8.71a18.77,18.77,0,0,1,5.57,4.35c1.45,1.57,2.64,3.07,3.8,4.23a8.33,8.33,0,0,0,3.28,2.27,2.89,2.89,0,0,0,.83.21l.41.09a3.53,3.53,0,0,0,.46,0c.31,0,.61.05.92,0s.6-.09.91-.12a6.21,6.21,0,0,0,3-1.6,25.87,25.87,0,0,0,3.09-3.71,30.84,30.84,0,0,1,4.44-5.12,13,13,0,0,1,1.6-1.24l.87-.59,1-.49a10.27,10.27,0,0,1,2-.83,13.8,13.8,0,0,1,2.1-.54c.69-.1,1.39-.18,2.09-.25s1.4,0,2.1,0c.35,0,.7,0,1.06.08l1.09.23a10.85,10.85,0,0,1,2.14.61,18.67,18.67,0,0,1,6.77,4.6c1.62,1.7,2.85,3.26,3.94,4.42a9.42,9.42,0,0,0,2.63,2.23c.18,0,.34.16.51.22a2.64,2.64,0,0,1,.55.15c.2,0,.45,0,.67.07a2,2,0,0,0,.69,0,4.05,4.05,0,0,0,2.4-.65,15.34,15.34,0,0,0,3.15-2.89,49,49,0,0,1,4.58-4.65c.52-.41,1-.81,1.57-1.19s1.21-.71,1.82-1.05a19.21,19.21,0,0,1,2-.8,13.65,13.65,0,0,1,2.08-.49,9.59,9.59,0,0,1,2-.18,11.12,11.12,0,0,1,2,.07c.67.09,1.32.2,2,.31s1.31.42,1.95.64a14.61,14.61,0,0,1,6,4.62,41.53,41.53,0,0,1,3.32,5.14,17.72,17.72,0,0,0,3.06,4.15,10.16,10.16,0,0,0,4.6,2.42v1.16a12.31,12.31,0,0,1-3.17.17l-.82-.08-.81-.21a8.51,8.51,0,0,1-1.59-.54,19.31,19.31,0,0,1-5.35-3.71c-1.5-1.38-2.83-2.73-4.12-3.69a7.66,7.66,0,0,0-3.59-1.63c-.29,0-.57,0-.85-.07l-.91.09a4.4,4.4,0,0,0-.88.16,2.42,2.42,0,0,0-.8.25,6.22,6.22,0,0,0-2.56,1.95c-.87,1-1.82,2.41-3,4.07a26.08,26.08,0,0,1-4.91,5.36c-.6.42-1.19.84-1.83,1.23s-1.38.68-2.09,1a16.67,16.67,0,0,1-4.41,1l-1.09.09c-.37,0-.73,0-1.1,0a20.48,20.48,0,0,1-2.2-.22q-1.14-.24-2.25-.57a21.21,21.21,0,0,1-2.14-.92,20.12,20.12,0,0,1-6.13-5.19c-1.44-1.76-2.47-3.33-3.43-4.49a8.18,8.18,0,0,0-2.42-2.26,2,2,0,0,0-.6-.27,1.73,1.73,0,0,1-.31-.14c-.12,0-.26,0-.38,0a7,7,0,0,0-.78-.13c-.26,0-.53,0-.8,0a5.13,5.13,0,0,0-2.83,1,21.06,21.06,0,0,0-3.36,3.39,32.81,32.81,0,0,1-4.71,4.8,14.94,14.94,0,0,1-7.39,3.14c-.66.05-1.32.09-2,.11a16.16,16.16,0,0,1-2-.15c-.33,0-.65-.07-1-.13l-1-.26a9.7,9.7,0,0,1-1.92-.67,16.45,16.45,0,0,1-5.91-4.58c-1.42-1.71-2.5-3.34-3.57-4.69a12.31,12.31,0,0,0-3.19-3.07c-.28-.13-.55-.31-.85-.44s-.61-.19-.92-.3-.68-.09-1-.15a4.63,4.63,0,0,0-.52-.07l-.52,0a6.63,6.63,0,0,0-3.89,1.14,18.61,18.61,0,0,0-3.68,3.43,47.76,47.76,0,0,1-4.23,4.44,12.75,12.75,0,0,1-6.15,3.06,7.66,7.66,0,0,1-1.71.19,9.54,9.54,0,0,1-1.69,0l-1.68-.22c-.55-.14-1.1-.31-1.64-.48a13.44,13.44,0,0,1-5.33-3.78c-1.38-1.55-2.47-3.19-3.58-4.71a16.53,16.53,0,0,0-3.73-3.94,9.94,9.94,0,0,0-5-1.73Z"/><path class="cls-5" d="M2320.34,632.79a11.53,11.53,0,0,1-6-1.35,18.42,18.42,0,0,1-4.68-3.92c-1.32-1.46-2.53-2.94-3.85-4.13a10,10,0,0,0-4.26-2.46l-1.16-.22-1.2,0a6.75,6.75,0,0,0-1.19.11,4.2,4.2,0,0,0-1.14.24,8.27,8.27,0,0,0-3.87,2.43,44.12,44.12,0,0,0-3.35,4.28,23.88,23.88,0,0,1-4.38,4.82c-.49.35-1,.71-1.51,1l-1.69.83a14.25,14.25,0,0,1-3.63.84l-.92.1c-.31,0-.61,0-.92,0a16.81,16.81,0,0,1-1.86-.14c-.62-.12-1.25-.27-1.87-.42s-1.2-.46-1.8-.71a18.77,18.77,0,0,1-5.57-4.35c-1.45-1.57-2.64-3.07-3.8-4.23a8.28,8.28,0,0,0-3.29-2.27,2.83,2.83,0,0,0-.82-.21l-.41-.1h-.46c-.31,0-.62,0-.92,0l-.91.12a6.21,6.21,0,0,0-3,1.6,26,26,0,0,0-3.1,3.71,30.42,30.42,0,0,1-4.44,5.11,13,13,0,0,1-1.6,1.25l-.86.59-1,.49a9.79,9.79,0,0,1-2,.83,13.51,13.51,0,0,1-2.1.54c-.69.1-1.38.18-2.08.24a18.6,18.6,0,0,1-2.11,0c-.35,0-.7,0-1.05-.08l-1.09-.23a10.48,10.48,0,0,1-2.14-.61,18.58,18.58,0,0,1-6.77-4.6c-1.62-1.71-2.86-3.26-3.94-4.42a9.42,9.42,0,0,0-2.64-2.23c-.18-.05-.33-.16-.51-.23a2.12,2.12,0,0,1-.55-.14c-.19-.05-.45,0-.67-.07a1.94,1.94,0,0,0-.68,0,4,4,0,0,0-2.4.65,15,15,0,0,0-3.15,2.88,48.06,48.06,0,0,1-4.59,4.66c-.52.41-1,.8-1.57,1.19s-1.2.71-1.81,1a20.33,20.33,0,0,1-2,.8,13.26,13.26,0,0,1-2.07.49,9.7,9.7,0,0,1-2.05.18,11.2,11.2,0,0,1-2-.07c-.66-.09-1.32-.2-2-.32s-1.31-.41-2-.63a14.66,14.66,0,0,1-6-4.62,42.89,42.89,0,0,1-3.33-5.14,17.45,17.45,0,0,0-3.06-4.15,10.17,10.17,0,0,0-4.59-2.42v-1.16a12.24,12.24,0,0,1,3.16-.17l.83.08.8.21a8.86,8.86,0,0,1,1.6.54,19.61,19.61,0,0,1,5.35,3.71c1.49,1.38,2.83,2.73,4.12,3.69a7.66,7.66,0,0,0,3.59,1.63c.29,0,.57,0,.84.07l.92-.09a4.4,4.4,0,0,0,.88-.16,2.42,2.42,0,0,0,.8-.25,6.08,6.08,0,0,0,2.55-2c.87-1,1.83-2.4,3-4.06a26.29,26.29,0,0,1,4.9-5.36c.61-.42,1.2-.85,1.84-1.23s1.38-.68,2.08-1a16.75,16.75,0,0,1,4.41-1l1.1-.09c.36,0,.73,0,1.1,0a20.74,20.74,0,0,1,2.2.22c.75.16,1.51.35,2.25.57a21.21,21.21,0,0,1,2.14.92,20.24,20.24,0,0,1,6.13,5.19c1.43,1.76,2.47,3.33,3.43,4.49a8,8,0,0,0,2.41,2.26,2.23,2.23,0,0,0,.61.27l.31.13a2.32,2.32,0,0,0,.38.06,6.68,6.68,0,0,0,.78.13c.26,0,.52,0,.79,0a5.16,5.16,0,0,0,2.84-1,21.48,21.48,0,0,0,3.36-3.39,33.22,33.22,0,0,1,4.7-4.8,15,15,0,0,1,7.4-3.14l2-.12a18.68,18.68,0,0,1,2,.16c.32,0,.65.06,1,.13l1,.26a10.17,10.17,0,0,1,1.92.67,16.45,16.45,0,0,1,5.91,4.58c1.42,1.71,2.5,3.34,3.57,4.69a12.28,12.28,0,0,0,3.18,3.07c.29.13.56.31.85.44l.93.3c.32.09.68.09,1,.15a4.34,4.34,0,0,0,.52.07l.52,0a6.65,6.65,0,0,0,3.89-1.14,18.89,18.89,0,0,0,3.68-3.43,46.47,46.47,0,0,1,4.23-4.44A12.76,12.76,0,0,1,2296,617a7.66,7.66,0,0,1,1.71-.19,9.65,9.65,0,0,1,1.7,0l1.67.22c.55.14,1.1.31,1.65.48a13.47,13.47,0,0,1,5.32,3.78c1.39,1.55,2.47,3.19,3.59,4.71a16.53,16.53,0,0,0,3.73,3.94,9.94,9.94,0,0,0,5,1.73Z"/><path class="cls-7" d="M446.37,238.88a11.63,11.63,0,0,1,6,1.35,18.63,18.63,0,0,1,4.68,3.92c1.32,1.46,2.54,2.94,3.86,4.14a10,10,0,0,0,4.25,2.45l1.16.22,1.21,0a5.24,5.24,0,0,0,1.18-.11,4.36,4.36,0,0,0,1.15-.24,8.21,8.21,0,0,0,3.86-2.43,44.12,44.12,0,0,0,3.35-4.28,23.85,23.85,0,0,1,4.38-4.81c.5-.35,1-.72,1.51-1s1.12-.56,1.69-.82a13.87,13.87,0,0,1,3.63-.85l.92-.09c.31,0,.61,0,.92,0,.62,0,1.23,0,1.86.14s1.25.27,1.87.42,1.2.47,1.8.71A18.85,18.85,0,0,1,501.2,242c1.44,1.56,2.63,3.06,3.8,4.22a8.23,8.23,0,0,0,3.28,2.28,2.9,2.9,0,0,0,.82.2l.42.1H510c.3,0,.61.05.91,0s.61-.1.91-.13a6.28,6.28,0,0,0,3-1.59,25.46,25.46,0,0,0,3.1-3.72,30.42,30.42,0,0,1,4.44-5.11,12.1,12.1,0,0,1,1.6-1.24l.86-.59,1-.5a10.38,10.38,0,0,1,2-.83,16.2,16.2,0,0,1,2.1-.54c.69-.09,1.38-.17,2.08-.24a16.55,16.55,0,0,1,2.11,0c.35,0,.7,0,1.06.08l1.08.22a11.15,11.15,0,0,1,2.14.61,18.58,18.58,0,0,1,6.77,4.6c1.63,1.71,2.86,3.26,3.94,4.43a9.49,9.49,0,0,0,2.64,2.22c.18.06.33.16.51.23a1.8,1.8,0,0,1,.55.15c.2,0,.45,0,.67.07a2.23,2.23,0,0,0,.68,0,4,4,0,0,0,2.4-.66,15,15,0,0,0,3.15-2.88,50.47,50.47,0,0,1,4.59-4.66c.52-.4,1-.8,1.57-1.19s1.21-.71,1.81-1.05,1.33-.56,2-.8a13.23,13.23,0,0,1,2.07-.48,9.1,9.1,0,0,1,2.05-.19,11.2,11.2,0,0,1,2,.07c.66.1,1.32.2,2,.32s1.31.41,1.95.64a14.64,14.64,0,0,1,6,4.61,43,43,0,0,1,3.33,5.15A17.65,17.65,0,0,0,592,250a10.26,10.26,0,0,0,4.59,2.41v1.16a11.81,11.81,0,0,1-3.16.17l-.83-.08-.8-.21a8.15,8.15,0,0,1-1.6-.54,19.37,19.37,0,0,1-5.35-3.7,54.71,54.71,0,0,0-4.12-3.7,7.61,7.61,0,0,0-3.58-1.62c-.3,0-.57-.05-.85-.07s-.62.06-.92.08a3.62,3.62,0,0,0-.87.17,2.42,2.42,0,0,0-.8.24,6.34,6.34,0,0,0-2.56,2c-.87,1-1.83,2.4-3,4.06a25.75,25.75,0,0,1-4.9,5.36c-.6.42-1.2.85-1.84,1.23s-1.38.68-2.08,1a16.34,16.34,0,0,1-4.41,1l-1.1.09a9.93,9.93,0,0,1-1.09,0c-.74-.06-1.46-.08-2.21-.21s-1.51-.36-2.25-.57-1.43-.6-2.14-.92A20.4,20.4,0,0,1,540,252c-1.43-1.75-2.47-3.33-3.43-4.49a8.18,8.18,0,0,0-2.41-2.26,1.85,1.85,0,0,0-.61-.26l-.31-.14a2.16,2.16,0,0,0-.38-.06,6.51,6.51,0,0,0-.77-.13,7.12,7.12,0,0,1-.8,0,5.17,5.17,0,0,0-2.84,1,21.91,21.91,0,0,0-3.36,3.39,33.18,33.18,0,0,1-4.7,4.79A15,15,0,0,1,513,257c-.65,0-1.31.08-2,.11a18.68,18.68,0,0,1-2-.16c-.32,0-.64-.06-1-.12l-1-.27a10.17,10.17,0,0,1-1.92-.67,16.43,16.43,0,0,1-5.91-4.58c-1.42-1.7-2.5-3.33-3.57-4.69a12.28,12.28,0,0,0-3.18-3.07c-.29-.13-.56-.31-.85-.44s-.62-.18-.93-.29-.67-.09-1-.16a3.19,3.19,0,0,0-.52-.06l-.53,0a6.6,6.6,0,0,0-3.89,1.14,19.1,19.1,0,0,0-3.68,3.42,46.3,46.3,0,0,1-4.22,4.44,12.62,12.62,0,0,1-6.15,3.06,7.66,7.66,0,0,1-1.71.19,8.67,8.67,0,0,1-1.69,0l-1.68-.21c-.55-.15-1.1-.32-1.64-.49a13.24,13.24,0,0,1-5.33-3.78c-1.39-1.55-2.47-3.19-3.59-4.71a16.32,16.32,0,0,0-3.73-3.94,10,10,0,0,0-5-1.73Z"/><path class="cls-5" d="M594.4,296a11.4,11.4,0,0,1-6-1.35,18.22,18.22,0,0,1-4.68-3.92c-1.32-1.46-2.54-2.93-3.86-4.13a10.11,10.11,0,0,0-4.25-2.46l-1.16-.21-1.21,0a5.33,5.33,0,0,0-1.19.11,3.92,3.92,0,0,0-1.14.23,8.19,8.19,0,0,0-3.86,2.43,42.81,42.81,0,0,0-3.35,4.29,24.46,24.46,0,0,1-4.38,4.81c-.5.35-1,.71-1.51,1s-1.13.56-1.7.83a13.66,13.66,0,0,1-3.63.84l-.91.1c-.31,0-.62,0-.93,0-.61,0-1.23,0-1.85-.13L547,298c-.61-.2-1.2-.47-1.8-.71a18.93,18.93,0,0,1-5.57-4.36c-1.45-1.57-2.64-3.06-3.8-4.23a8.43,8.43,0,0,0-3.28-2.27,2.91,2.91,0,0,0-.82-.21l-.42-.09c-.14,0-.31,0-.46,0-.31,0-.61-.05-.92,0s-.6.09-.9.12a6.29,6.29,0,0,0-3,1.6,25.22,25.22,0,0,0-3.1,3.71,30.06,30.06,0,0,1-4.44,5.12,13,13,0,0,1-1.6,1.24l-.86.59-1,.5a10.92,10.92,0,0,1-2,.83,16.2,16.2,0,0,1-2.1.54c-.69.09-1.39.17-2.09.24s-1.4,0-2.1,0c-.35,0-.7,0-1.06-.08l-1.09-.22a10.88,10.88,0,0,1-2.14-.62,18.61,18.61,0,0,1-6.77-4.59c-1.62-1.71-2.85-3.27-3.94-4.43a9.34,9.34,0,0,0-2.63-2.22c-.18-.06-.33-.17-.51-.23a2.14,2.14,0,0,1-.55-.15c-.2-.05-.45,0-.67-.07a2.28,2.28,0,0,0-.69,0,4.07,4.07,0,0,0-2.39.65,15.34,15.34,0,0,0-3.16,2.89,50.19,50.19,0,0,1-4.58,4.66c-.52.4-1,.8-1.57,1.18s-1.21.72-1.81,1.05-1.33.56-2,.81a13.62,13.62,0,0,1-2.08.48,9,9,0,0,1-2.05.18,9.54,9.54,0,0,1-2-.07c-.67-.09-1.32-.2-2-.31s-1.31-.41-1.95-.64a14.68,14.68,0,0,1-6-4.61,44.91,44.91,0,0,1-3.32-5.15,17.65,17.65,0,0,0-3.06-4.15,10.35,10.35,0,0,0-4.6-2.42v-1.16a11.89,11.89,0,0,1,3.17-.16l.83.08.8.21a8.12,8.12,0,0,1,1.6.53,19.41,19.41,0,0,1,5.34,3.71c1.5,1.39,2.83,2.73,4.12,3.7A7.68,7.68,0,0,0,463.6,291c.3,0,.57,0,.85.07s.62-.07.92-.08a4.32,4.32,0,0,0,.87-.17,2.42,2.42,0,0,0,.8-.24,6.34,6.34,0,0,0,2.56-2c.87-1,1.82-2.4,3-4.06a26.11,26.11,0,0,1,4.91-5.36c.6-.42,1.2-.85,1.83-1.23s1.38-.69,2.09-1a16.34,16.34,0,0,1,4.41-1l1.09-.09a10,10,0,0,1,1.1,0c.74.06,1.46.08,2.21.21s1.5.36,2.25.57,1.43.6,2.14.92a20.38,20.38,0,0,1,6.13,5.2c1.43,1.75,2.47,3.33,3.42,4.48a8,8,0,0,0,2.42,2.26,1.71,1.71,0,0,0,.6.27l.32.14c.11,0,.25,0,.37.06s.52.12.78.13a7.15,7.15,0,0,1,.8,0,5.22,5.22,0,0,0,2.83-1,21.06,21.06,0,0,0,3.36-3.39,32.79,32.79,0,0,1,4.71-4.79,15,15,0,0,1,7.39-3.15c.66-.05,1.32-.09,2-.11a16.16,16.16,0,0,1,2,.15c.33,0,.65.07,1,.13l1,.27a10.17,10.17,0,0,1,1.92.67,16.28,16.28,0,0,1,5.9,4.58c1.42,1.7,2.5,3.33,3.57,4.68a12.35,12.35,0,0,0,3.19,3.08c.29.13.56.3.85.43s.61.19.92.3.68.09,1,.16c.17,0,.35.06.52.06l.52,0A6.56,6.56,0,0,0,556,291.1a18.92,18.92,0,0,0,3.69-3.43,46.3,46.3,0,0,1,4.22-4.44,12.69,12.69,0,0,1,6.15-3.05,6.65,6.65,0,0,1,1.71-.19,8,8,0,0,1,1.69,0l1.68.21c.55.14,1.1.32,1.64.48a13.36,13.36,0,0,1,5.33,3.79c1.39,1.55,2.47,3.19,3.59,4.71a16.48,16.48,0,0,0,3.72,3.94,10.17,10.17,0,0,0,5,1.73Z"/><rect class="cls-6" x="1843.39" y="1357.25" width="30.02" height="30.02" transform="translate(1514.65 -912.17) rotate(45)"/><rect class="cls-2" x="1821.51" y="483.4" width="30.02" height="30.02" transform="translate(890.34 -1152.64) rotate(45)"/><rect class="cls-6" x="358.07" y="937.62" width="30.02" height="30.02" transform="translate(782.89 15.21) rotate(45)"/><rect class="cls-6" x="722.98" y="213.94" width="30.02" height="30.02" transform="translate(378.05 -454.78) rotate(45)"/><path class="cls-1" d="M860.51,1076l-3.3.58a15.5,15.5,0,1,1-24.61.7c-.66-.26-1.32-.55-2-.87l-.82-.41a18.51,18.51,0,1,0,30.69,0Z"/><path class="cls-1" d="M1056,1126a18.5,18.5,0,1,1,18.5-18.5A18.52,18.52,0,0,1,1056,1126Zm0-34a15.5,15.5,0,1,0,15.5,15.5A15.51,15.51,0,0,0,1056,1092Z"/><path class="cls-1" d="M687.17,1097.86a18.5,18.5,0,1,1,18.5-18.5A18.52,18.52,0,0,1,687.17,1097.86Zm0-34a15.5,15.5,0,1,0,15.5,15.5A15.52,15.52,0,0,0,687.17,1063.86Z"/><path class="cls-1" d="M929.86,1213.57a18.5,18.5,0,1,1,18.5-18.5A18.52,18.52,0,0,1,929.86,1213.57Zm0-34a15.5,15.5,0,1,0,15.5,15.5A15.52,15.52,0,0,0,929.86,1179.57Z"/><path class="cls-1" d="M1219.92,808.86a17.85,17.85,0,0,0-3.38.32l.19,3a14.64,14.64,0,0,1,3.19-.34A15.5,15.5,0,1,1,1204.66,830l-2.42,2.77a18.5,18.5,0,1,0,17.68-23.95Z"/><path class="cls-1" d="M1297.34,694.17a18.5,18.5,0,1,1,18.5-18.5A18.52,18.52,0,0,1,1297.34,694.17Zm0-34a15.5,15.5,0,1,0,15.5,15.5A15.51,15.51,0,0,0,1297.34,660.17Z"/><path class="cls-1" d="M1338.24,899.16a18.5,18.5,0,1,1,18.5-18.5A18.52,18.52,0,0,1,1338.24,899.16Zm0-34a15.5,15.5,0,1,0,15.5,15.5A15.52,15.52,0,0,0,1338.24,865.16Z"/><path class="cls-1" d="M1268.26,1126a18.5,18.5,0,1,1,18.5-18.5A18.52,18.52,0,0,1,1268.26,1126Zm0-34a15.5,15.5,0,1,0,15.5,15.5A15.51,15.51,0,0,0,1268.26,1092Z"/><path class="cls-1" d="M1357.43,1005a18.5,18.5,0,1,1,18.5-18.5A18.52,18.52,0,0,1,1357.43,1005Zm0-34a15.5,15.5,0,1,0,15.5,15.5A15.51,15.51,0,0,0,1357.43,971Z"/><path class="cls-1" d="M1211,984.15a18.5,18.5,0,1,1,18.5-18.5A18.52,18.52,0,0,1,1211,984.15Zm0-34a15.5,15.5,0,1,0,15.5,15.5A15.51,15.51,0,0,0,1211,950.15Z"/><path class="cls-3" d="M920.35,919.83c3.27,11.54,13.08,23,37.83,26.65,0,0-12.12-31.85,7.74-47s27.6.07,57.36,1.71,44,43.63,19,76S957,1003.73,910.16,934.77c0,0-11.11-21.55-10-41.22,0,0-12.69-4.46-33,3.28,0,0-13.52-48.17,5.54-39.67,0,0,7.42-44.8,20-18.15,0,0,6.77-40.49,20.61-14.51,0,0,2.14-32.31,17.63-8.7,0,0-2.46-26.75,14.59-19.44,15.67,6.72,13.37,62.36-15.22,88.6A34.71,34.71,0,0,0,920.35,919.83Z"/><path class="cls-3" d="M965.39,897.11l-2.95-.56c0-.08,1.36-7.79-2.29-8.88-3.15-.95-6.77,4.56-7.79,6.56l-2.67-1.35c.2-.41,5.11-9.93,11.32-8.09S965.47,896.68,965.39,897.11Z"/><polygon class="cls-6" points="1963.97 1062.81 1909.46 1116.42 1905.28 1120.53 1887.86 1137.66 1883.69 1141.77 1862.05 1163.04 1698.24 1133.26 1795.62 1053.69 1800.17 1049.97 1819.19 1034.43 1820.92 1033.01 1827.39 1034.36 1963.97 1062.81"/><ellipse class="cls-1" cx="835.09" cy="717.87" rx="16.27" ry="19.66" transform="translate(-231.01 993.82) rotate(-55.2)"/><path class="cls-3" d="M835.23,729.75a24.33,24.33,0,0,1-8.14-3.7c-9.58-6.66-12.83-18.63-7.24-26.67a15.19,15.19,0,0,1,3.87-3.84l1.7,2.47a12.3,12.3,0,0,0-3.11,3.08c-4.64,6.69-1.73,16.78,6.49,22.49a21.34,21.34,0,0,0,7.14,3.26Z"/><path class="cls-3" d="M843.46,730.19l-.44-3a13.26,13.26,0,0,0,9.12-5.39c3.44-5,2.86-11.9-1.48-17.7l2.4-1.8c5.13,6.85,5.74,15.18,1.54,21.21A16.21,16.21,0,0,1,843.46,730.19Z"/><path class="cls-5" d="M2121.49,498.62a86.08,86.08,0,0,1-141.33,26.94c5.28-8,12.48-14.58,21.46-16.54,5-1.08,10.41-.89,14.71,1.77,3.42,2.11,5.79,5.55,8.86,8.13,5.7,4.81,15.21,6,20.22.45,1.78-2,2.78-4.52,4.14-6.8a20.61,20.61,0,0,1,11.86-9.44,15.87,15.87,0,0,1,14.57,3.06c2.2,1.95,3.83,4.62,6.43,6,3.93,2.06,8.78.52,12.7-1.57,7.78-4.15,14.76-10.47,23.49-11.77A20.12,20.12,0,0,1,2121.49,498.62Z"/><path class="cls-1" d="M2043,407.13a7.13,7.13,0,1,1-7.13-7.12A7.13,7.13,0,0,1,2043,407.13Z"/><path class="cls-1" d="M1983.51,459.53a7.13,7.13,0,1,1-7.12-7.12A7.13,7.13,0,0,1,1983.51,459.53Z"/><path class="cls-1" d="M1997,418.43a4.17,4.17,0,1,1-4.17-4.17A4.17,4.17,0,0,1,1997,418.43Z"/><polygon class="cls-7" points="2096.23 1028.6 2150.17 1002.42 2077.28 974.39 2096.23 1028.6"/><polygon class="cls-6" points="2077.28 974.39 2095.49 962.41 2147.26 982.97 2150.17 1002.42 2077.28 974.39"/><polygon class="cls-1" points="2096.23 1028.6 2125.95 993.11 2098.14 982.41 2096.23 1028.6"/><polygon class="cls-5" points="2098.14 982.41 2119.17 972.01 2125.95 993.11 2098.14 982.41"/><polygon class="cls-7" points="1376.71 302.76 1296.48 279.44 1344.91 412.1 1443.71 433.94 1376.71 302.76"/><polygon class="cls-1" points="1300.28 289.84 1273.59 283.69 1329.3 430.8 1443.71 433.94 1344.91 412.1 1300.28 289.84"/><path class="cls-3" d="M1293.21,339.73l-21-55.51a1.5,1.5,0,0,1,1.74-2l10.75,2.48-.68,2.92-8-1.84,20,52.88Z"/><polygon class="cls-7" points="1376.82 302.88 1404.81 224.16 1484.12 341.03 1444.06 433.94 1376.82 302.88"/><polygon class="cls-1" points="1411.03 233.32 1421.65 208.08 1508.41 339.3 1444.06 433.94 1484.12 341.03 1411.03 233.32"/><path class="cls-3" d="M1453.13,258.41l-31.19-47.17-3.19,7.59-2.76-1.17,4.27-10.17a1.5,1.5,0,0,1,2.64-.24l32.73,49.51Z"/><path class="cls-1" d="M1030.06,1058.14a257.45,257.45,0,0,1-38.52-2.7,2.5,2.5,0,0,1,.84-4.93c1,.16,96,15.67,148.55-31.68.74-.78,8.86-9.69,6.37-22.53-3-15.22-20-30.1-49.35-43a2.5,2.5,0,0,1,2-4.57c31.39,13.84,49,29.57,52.25,46.75,3,15.76-7.33,26.5-7.77,26.94l-.11.11c-15.71,14.18-45.33,31.79-97.15,35.11C1041.2,1058,1035.45,1058.14,1030.06,1058.14Z"/><polygon class="cls-6" points="519.28 604.63 452.21 644.87 339.8 486.94 432.86 431.12 519.28 604.63"/><polygon class="cls-5" points="497.6 548.37 412.77 599.26 361.55 531.36 461.81 471.22 497.6 548.37"/><polygon class="cls-3" points="445.21 433.77 336.32 499.09 332.61 485.61 435.07 424.14 445.21 433.77"/><polygon class="cls-3" points="431.01 428.39 338.27 484.03 334.07 470.83 421.34 418.48 431.01 428.39"/><polygon class="cls-3" points="415.45 422.01 407.27 414.06 392.48 422.93 379.79 446.08 415.45 422.01"/><rect class="cls-1" x="353.41" y="443.72" width="93.05" height="3" transform="translate(-172.05 269.16) rotate(-30.96)"/><path class="cls-5" d="M1679.78,552.54l22.61-20.17a15.28,15.28,0,0,0,5-8.81A20.54,20.54,0,0,0,1704.3,509a26.23,26.23,0,0,0-11.41-9.89c-6.47-3-18.85-10.65-23.81-26.37-6.86-21.75-15.57-21.91-15.57-21.91l-2.58,6.33a13.24,13.24,0,0,0,.06,10.12l9.74,23.17a22.71,22.71,0,0,1,1,14.75l-4.45,16.3S1676.6,536.38,1679.78,552.54Z"/><path class="cls-3" d="M1658,503.92a7.57,7.57,0,0,1-2.47-.4,5.91,5.91,0,0,1-3.51-3.07c-1.43-3-.76-8,2.26-10,2.11-1.4,4.75-1.23,6.88-1.09l.36,0a6,6,0,0,0-4-2.51c-7.11-.61-14-1-20.6.75l-.67.18a18.89,18.89,0,0,1-3.78.76,7.93,7.93,0,0,1-7.61-4.7,9.18,9.18,0,0,1,.93-10l2.26,2c-1.69,1.93-1.47,4.76-.5,6.71a4.92,4.92,0,0,0,4.72,3,16.85,16.85,0,0,0,3.18-.66l.69-.19c7-1.89,14.25-1.47,21.64-.84,4.67.4,7.12,5.19,7.22,5.39a1.5,1.5,0,0,1,.06,1.21l-.28.72c-.33.87-1.11,1.28-2.35,1.23h-.11c-.44,0-.9,0-1.37-.07-1.85-.12-3.76-.24-5,.6-1.61,1.07-2.05,4.48-1.21,6.24a2.9,2.9,0,0,0,1.78,1.53,5.19,5.19,0,0,0,3.85-.32c2.19-1.09,3.78-3.35,5.19-5.35l2.45,1.73c-1.53,2.17-3.44,4.87-6.3,6.31A8.41,8.41,0,0,1,1658,503.92Z"/><path class="cls-1" d="M1420,1083.27l-2.12-5.61c.21-.08,21.43-8.2,45.72-26.42,22.32-16.74,51.9-45.7,66.07-88.59,21-63.48,3.57-139.32-51.76-225.42l-1.55-2.41,2.33-1.66c1.32-.94,132.19-94.46,158.38-165.54l5.63,2.08c-11.29,30.65-41.77,68.32-90.6,112-30.74,27.48-59.43,48.76-67.62,54.72,55.17,86.74,72.28,163.51,50.87,228.21-8.12,24.52-26.56,60.31-68.33,91.58C1442.11,1074.84,1420.92,1082.93,1420,1083.27Z"/><path class="cls-5" d="M1659.71,512.5s-13.85,5.33-10.85,12.5,16,12,20.84,5.17S1659.71,512.5,1659.71,512.5Z"/><path class="cls-1" d="M1662.35,534.81a23.38,23.38,0,0,1-9.46-2.34c-1.12-.45-9.84-4.46-5.87-15.78l2.83,1c-3.24,9.24,3.86,11.91,4.16,12l.18.07c.08,0,8.46,4.21,13.16.54,3.88-3,4.52-10.88,1.86-22.72l2.93-.66c3,13.25,2,21.92-3,25.75A10.86,10.86,0,0,1,1662.35,534.81Z"/><path class="cls-1" d="M1708.15,532l-3-.34c2.17-19.16-.36-25.27-12.9-31.15-14.08-6.59-19.62-13.52-26.93-33.68-2.65-7.3-6.28-12.16-10.5-14.07a9.16,9.16,0,0,0-6.77-.51l-1.13-2.78a12.17,12.17,0,0,1,9,.52c5.09,2.25,9.19,7.57,12.18,15.82,7.06,19.46,12,25.74,25.38,32C1707.31,504.23,1710.46,511.58,1708.15,532Z"/><rect class="cls-1" x="1538.93" y="737.6" width="6" height="49.56" transform="translate(-135.68 1142.37) rotate(-39.07)"/><polygon class="cls-3" points="1862.06 1163.03 1859.05 1189.22 1956.59 1093.3 1963.98 1062.8 1862.06 1163.03"/><polygon class="cls-5" points="1698.24 1133.26 1695.36 1161.02 1859.05 1189.22 1862.06 1163.03 1698.24 1133.26"/><polygon class="cls-1" points="1744.6 1169.5 1741.8 1185.92 1797.73 1193.96 1800.61 1179.15 1744.6 1169.5"/><rect class="cls-5" x="1526.18" y="1291.72" width="78.7" height="123.21" transform="translate(-397.92 699.7) rotate(-22.43)"/><path class="cls-5" d="M1553.42,1427.13l-2.61-1.08-47-113.89,1.09-2.61,72.75-30,2.61,1.09,47,113.89-1.09,2.61Zm-45.16-114.65,45.49,110.19,69-28.5L1577.32,1284Z"/><rect class="cls-1" x="1523.12" y="1309.32" width="60.54" height="29.17" transform="matrix(0.92, -0.38, 0.38, 0.92, -387.62, 692.84)"/><rect class="cls-3" x="1529.45" y="1336.24" width="60.54" height="6" transform="translate(-392.94 696.26) rotate(-22.43)"/><circle class="cls-3" cx="1574.27" cy="1374.49" r="27.35" transform="translate(-299.19 2300.62) rotate(-67.43)"/><path class="cls-1" d="M1574.26,1355.14h0a19.37,19.37,0,1,1-7.37,1.47,19.29,19.29,0,0,1,7.37-1.47Zm0-8a27.35,27.35,0,1,0,25.29,16.92,27.28,27.28,0,0,0-25.29-16.92Z"/><path class="cls-3" d="M1317.33,1414.24c-4.13-6.93-8.69-14.33-13.95-21.52-14.37-19.66-33-36.72-55.4-50.71-58.24-36.4-126.33-42.76-173.19-41.7-13,.3-26,1.25-38.88,2.83C961,1312.37,890.22,1345.28,825.5,1401l-3.26-3.79c65.48-56.34,137.17-89.65,213-99,13-1.6,26.26-2.56,39.39-2.86,47.54-1.09,116.66,5.39,176,42.45,22.94,14.33,42,31.82,56.79,52,5.38,7.37,10,14.89,14.21,21.91Z"/><path class="cls-3" d="M1512.37,1496.64c-22.1,0-52.67-6.82-70.87-25-18.61,16.65-47.27,12.95-67.29,4-22.13-9.83-34.64-25.83-44-40.18l4.19-2.72c9.37,14.42,20.92,29.06,41.8,38.33,18.56,8.25,45,11.84,61.88-3.17a50.37,50.37,0,0,1-9.54-17.22c-3.94-12.38-.66-20.74,3.36-24.12,4.71-4,8.6-3.9,11-3.13,4.31,1.38,7.79,6.08,9.56,12.9,3,11.75.83,21.84-6.74,30.83-.25.3-.51.59-.76.88a71.2,71.2,0,0,0,21.8,14.4,116.07,116.07,0,0,0,49,9.09c22.12-.8,42.46-9.58,55.8-24.09,9.56-10.38,16-27.3,2.68-40.78l3.56-3.51c14.77,15,9.36,34.73-2.56,47.68-14.24,15.48-35.86,24.85-59.3,25.69C1514.85,1496.62,1513.62,1496.64,1512.37,1496.64Zm-72.13-68.58c-1.51,0-3.21.79-5.08,2.37-4.22,3.56-3.9,12.24-1.81,18.79a45.21,45.21,0,0,0,8.31,15.14l.31-.37c6.46-7.67,8.33-16.29,5.73-26.36-1.29-5-3.68-8.57-6.24-9.38A3.84,3.84,0,0,0,1440.24,1428.06Z"/><path class="cls-3" d="M899.64,1457.93l-4-3a586.83,586.83,0,0,1,78-79.85c27.28-23,54.39-41,80.55-53.65,32.85-15.85,64.33-23.15,93.56-21.7l-.25,5c-28.38-1.41-59,5.73-91.14,21.21-25.79,12.44-52.54,30.27-79.5,53A581.32,581.32,0,0,0,899.64,1457.93Z"/><circle class="cls-3" cx="1146.44" cy="1302" r="7.02"/><rect class="cls-5" x="2106.5" y="774.71" width="106.91" height="11" transform="translate(86.24 1767.05) rotate(-45.31)"/><rect class="cls-5" x="2136.29" y="762.28" width="71.93" height="11" transform="translate(98.72 1772.09) rotate(-45.31)"/><rect class="cls-3" x="2117.17" y="800.28" width="34.98" height="11" transform="translate(60.56 1756.65) rotate(-45.31)"/><path class="cls-5" d="M2180.25,779.44l-3.34-3.72,19.89-17.88-5.17-9.78,4.42-2.34,6.08,11.51a2.49,2.49,0,0,1-.54,3Z"/><polygon class="cls-7" points="2118.56 814.15 2110.79 830.41 2126.21 822.28 2118.56 814.15"/><rect class="cls-1" x="1683.44" y="256.7" width="3" height="54.79" transform="translate(220.11 1163.88) rotate(-40.56)"/><polygon class="cls-5" points="1786.37 335.81 1842.12 333.53 1842.7 342.46 1833.77 343.31 1833.54 349.5 1830.56 349.69 1827.19 345.26 1821.57 350.1 1814.33 350.74 1809.41 356.41 1805.26 350.73 1783.5 353.5 1786.37 335.81"/><path class="cls-5" d="M1751.12,328.28a22.36,22.36,0,1,0,31.62,0A22.36,22.36,0,0,0,1751.12,328.28Zm10.24,10.22a7.9,7.9,0,1,1,0,11.17A7.89,7.89,0,0,1,1761.36,338.5Z"/><rect class="cls-1" x="1789.16" y="338.92" width="54.79" height="3" transform="translate(-21.17 144.12) rotate(-4.52)"/><path class="cls-3" d="M1766.77,350.36l-3.5-1.93a18.05,18.05,0,0,0,2-5.72c1-5.64-.83-11.43-5-16.29a29.76,29.76,0,0,0-17.66-9.57c-12.11-2.05-23.74,2.85-28.28,11.92l-3.57-1.8c5.32-10.62,18.69-16.4,32.52-14.06a33.76,33.76,0,0,1,20,10.89c5,5.78,7.1,12.74,5.94,19.58A21.74,21.74,0,0,1,1766.77,350.36Z"/><path class="cls-3" d="M1740.77,364.14a36.93,36.93,0,0,1-6.1-.51c-11.11-1.88-20.45-8.69-24.36-17.76l3.67-1.59c3.39,7.84,11.57,13.75,21.36,15.4a31.53,31.53,0,0,0,13.32-.56l1,3.87A34.8,34.8,0,0,1,1740.77,364.14Z"/><rect class="cls-3" x="840.82" y="437.56" width="42.26" height="23.84" rx="2.32"/><circle class="cls-1" cx="870.43" cy="449.48" r="7.93" transform="translate(295.26 1242.5) rotate(-81.36)"/><rect class="cls-3" x="2013.97" y="1217.68" width="192.49" height="105.96" transform="translate(-350.7 1163.51) rotate(-28.56)"/><path class="cls-3" d="M2052.44,1365.85l-4.07-1.2-50.66-93.07,1.2-4.07,169.07-92,4.07,1.2,50.66,93.07-1.2,4.06Zm-48-94.5,47.79,87.79L2216,1270l-47.79-87.8Z"/><rect class="cls-1" x="2032.57" y="1238.73" width="148.29" height="51.01" transform="translate(-348.06 1161.06) rotate(-28.56)"/><polygon class="cls-5" points="2179.27 1293.39 2091.81 1341 2086.95 1313.49 2158.81 1274.38 2179.27 1293.39"/><rect class="cls-3" x="2092.67" y="1259.91" width="29.93" height="7.66" rx="2.93" transform="translate(-347.7 1161.44) rotate(-28.56)"/><rect class="cls-3" x="2070.05" y="1251.54" width="61.68" height="4" transform="translate(-343.64 1156.69) rotate(-28.55)"/><rect class="cls-3" x="2081.47" y="1272.51" width="61.68" height="4" transform="translate(-352.28 1164.69) rotate(-28.55)"/><circle class="cls-5" cx="2079.63" cy="1278.98" r="10.41" transform="translate(-194.04 389.55) rotate(-10.23)"/><path class="cls-5" d="M2143,1244.51a10.41,10.41,0,1,1-14.13-4.16A10.42,10.42,0,0,1,2143,1244.51Z"/><rect class="cls-7" x="2019.6" y="1234.47" width="148.29" height="11.86" transform="translate(-338.24 1151.96) rotate(-28.56)"/><path class="cls-1" d="M2048.4,1349.56l-42.09-77.33a1,1,0,0,1,.4-1.36l147.47-80.27,1,1.75-146.6,79.8,41.61,76.45Z"/><path class="cls-1" d="M2104.93,1318.78a5.17,5.17,0,1,1-7-2.07A5.17,5.17,0,0,1,2104.93,1318.78Z"/><path class="cls-1" d="M2162.57,1287.41a5.17,5.17,0,1,1-7-2.07A5.16,5.16,0,0,1,2162.57,1287.41Z"/><rect class="cls-6" x="966.91" y="293.4" width="76.62" height="49.66" rx="4.11" transform="translate(472.87 -591.9) rotate(42.11)"/><rect class="cls-3" x="972" y="307.15" width="76.62" height="10.9" transform="translate(470.4 -596.76) rotate(42.11)"/><circle class="cls-6" cx="910.4" cy="261.55" r="23.04" transform="translate(81.71 720.36) rotate(-45)"/><path class="cls-5" d="M910.4,245.51a16,16,0,1,1-16,16,16.05,16.05,0,0,1,16-16Zm0-7a23,23,0,1,0,23,23,23,23,0,0,0-23-23Z"/><circle class="cls-6" cx="819.65" cy="329.71" r="23.04" transform="translate(6.93 676.15) rotate(-45)"/><path class="cls-5" d="M819.65,313.68a16,16,0,1,1-16,16,16,16,0,0,1,16-16Zm0-7a23,23,0,1,0,23,23,23,23,0,0,0-23-23Z"/><path class="cls-1" d="M1442.88,434.16a2.5,2.5,0,0,1-2.22-1.35l-69.4-133.74a2.5,2.5,0,0,1,4.44-2.3l69.39,133.73a2.5,2.5,0,0,1-1.06,3.37A2.42,2.42,0,0,1,1442.88,434.16Z"/><rect class="cls-3" x="1722.46" y="405.04" width="4" height="180.5"/><rect class="cls-3" x="2009.1" y="623.39" width="4" height="100.8"/><rect class="cls-3" x="1144.44" y="410.7" width="4" height="180.5"/><rect class="cls-3" x="1370.93" y="1089.1" width="4" height="234.81"/><rect class="cls-3" x="563.55" y="870.28" width="4" height="198.7"/><path class="cls-3" d="M666,537.07c1.94,2.19,3.68,4.48,5.44,6.75s3.39,4.61,4.94,7c.77,1.18,1.77,2.26,2.67,3.39a8.76,8.76,0,0,1,1.76,3.81,16.43,16.43,0,0,1,.25,4.48,15.77,15.77,0,0,1-1.33,5.19l-1,.45a15.39,15.39,0,0,1-4.76-2.46,16.14,16.14,0,0,1-3.18-3.16,8.64,8.64,0,0,1-1.67-3.85c-.25-1.42-.39-2.89-.76-4.25q-1.11-4.1-1.93-8.33c-.53-2.83-1.07-5.64-1.42-8.55Z"/><polygon class="cls-3" points="758.67 1268.92 760.17 1281.15 738.22 1283.49 758.67 1268.92"/><polygon class="cls-3" points="475.06 1372.26 476.56 1384.49 520.06 1366.51 475.06 1372.26"/><circle class="cls-6" cx="562.49" cy="1259.81" r="20.95" transform="translate(-782.46 1567.42) rotate(-78.82)"/><polygon class="cls-7" points="462.87 1341.12 491.17 1268.92 633.29 1255.48 640.03 1268.84 477.09 1364.09 462.87 1341.12"/><polygon class="cls-5" points="572.36 1261.24 584.48 1229.58 619.82 1228.71 633.29 1255.48 572.36 1261.24"/><polygon class="cls-1" points="641.46 1335.01 688.04 1300.48 657.98 1301.95 612.59 1335.01 641.46 1335.01"/><path class="cls-6" d="M580.39,450.59s34.9,9.28,46.41,24.49c0,0,5.58,14.81-12,29.82a19.09,19.09,0,0,1-12.15,4.64c-7.22,0-18.15-2.78-27.16-17.51a13.77,13.77,0,0,1-1.93-5.58c-.64-5.57-.5-17.37,9.34-28.83l-4.39-3.36Z"/><path class="cls-3" d="M602.41,512.54c-8.24,0-19.95-3.33-29.5-18.95a16.78,16.78,0,0,1-2.35-6.79,39.91,39.91,0,0,1,8.06-28.66l-2-1.5a3,3,0,0,1-.84-3.76l1.89-3.66a3,3,0,0,1,3.44-1.53c1.46.39,36,9.73,48,25.58a3.07,3.07,0,0,1,.42.75c.25.69,6.11,17-12.89,33.16a22.12,22.12,0,0,1-14.07,5.36ZM584.2,454.86l.51.38a3,3,0,0,1,.45,4.34c-9,10.45-9.27,21.1-8.64,26.52a10.76,10.76,0,0,0,1.51,4.36c8.18,13.38,17.87,16.17,24.58,16.08a16,16,0,0,0,10.22-3.93c14.33-12.21,11.93-23.84,11.27-26.11C615.53,465.67,593.74,457.86,584.2,454.86Z"/><rect class="cls-3" x="581.49" y="452.98" width="7.18" height="6" transform="translate(-156.69 452.21) rotate(-37.64)"/><rect class="cls-1" x="580.04" y="451.26" width="4" height="4.18" transform="translate(-87.86 762.43) rotate(-62.68)"/><path class="cls-6" d="M705.51,512.93s-27.76-23.09-46.83-23.68c0,0-15.31,4-17.36,27.07a19.06,19.06,0,0,0,3.25,12.59c4.13,5.92,12.77,13.19,30,12a13.58,13.58,0,0,0,5.66-1.66c4.92-2.69,14.46-9.64,18.1-24.29l5.29,1.63Z"/><path class="cls-3" d="M670.89,544.05c-15.92,0-24.4-7.16-28.78-13.43a22,22,0,0,1-3.77-14.57c2.2-24.86,18.87-29.51,19.58-29.7a3,3,0,0,1,.85-.09c19.87.6,47.49,23.39,48.66,24.36a3,3,0,0,1,.75,3.69l-1.9,3.66a3,3,0,0,1-3.55,1.49l-2.35-.72a39.81,39.81,0,0,1-18.71,23.15,16.86,16.86,0,0,1-6.9,2C673.43,544,672.14,544.05,670.89,544.05Zm-11.81-51.78c-2.19.77-13.1,5.52-14.77,24.31A16.08,16.08,0,0,0,647,527.19c3.83,5.49,11.68,11.81,27.33,10.74a10.72,10.72,0,0,0,4.43-1.3c4.78-2.62,13.31-9,16.63-22.39a3,3,0,0,1,3.8-2.14l.61.19C691.85,506.25,672.87,493,659.08,492.27Z"/><path class="cls-3" d="M747.34,579.84l-13.75-35.53a4.62,4.62,0,0,0-1.69-2.14l-33.59-23.46,4.58-6.56,33.59,23.46a12.64,12.64,0,0,1,4.57,5.81L754.8,577Z"/><rect class="cls-3" x="694.81" y="509.21" width="7.18" height="6" transform="translate(158.85 1189.72) rotate(-87.72)"/><rect class="cls-1" x="700.31" y="511.09" width="4" height="4.18" transform="translate(-75.94 901.66) rotate(-62.68)"/><path class="cls-3" d="M649.91,493.19c-8.38-12.56-20.61-10.46-20.73-10.44l-1.46-7.86c.71-.14,17.57-3,28.84,13.86Z"/><path class="cls-3" d="M739.72,554.29c1.93,2.19,3.68,4.48,5.44,6.75s3.38,4.61,4.93,7c.77,1.18,1.78,2.26,2.67,3.39a8.66,8.66,0,0,1,1.77,3.81,16.06,16.06,0,0,1,.24,4.48,15.29,15.29,0,0,1-1.33,5.19l-1,.45a15.39,15.39,0,0,1-4.76-2.46,16.48,16.48,0,0,1-3.19-3.16,8.63,8.63,0,0,1-1.66-3.85c-.26-1.42-.39-2.89-.77-4.25-.74-2.74-1.38-5.51-1.92-8.33s-1.08-5.64-1.43-8.55Z"/><path class="cls-1" d="M595,470.8c.6,2.14,1.12,4.29,1.69,6.43s1,4.3,1.53,6.46a41.3,41.3,0,0,1,1.38,6.48,24.8,24.8,0,0,1-.24,6.75l-.3.05a25.11,25.11,0,0,1-2.42-6.31,42.53,42.53,0,0,1-.79-6.58q-.36-3.3-.64-6.6c-.17-2.21-.37-4.41-.5-6.63Z"/><path class="cls-1" d="M587.21,477.6c.46,1.33.85,2.68,1.28,4s.77,2.68,1.13,4a17,17,0,0,1,1,4.07,12.65,12.65,0,0,1-.1,2.12,8.51,8.51,0,0,1-.55,2.21l-.29.05a8.64,8.64,0,0,1-1.24-1.91,11.79,11.79,0,0,1-.78-2,16.54,16.54,0,0,1-.39-4.16c-.11-1.39-.19-2.79-.24-4.19s-.1-2.8-.1-4.21Z"/><path class="cls-1" d="M662,503.28c.6,2.13,1.12,4.28,1.68,6.43s1.05,4.3,1.54,6.45a41.55,41.55,0,0,1,1.38,6.48,24.88,24.88,0,0,1-.24,6.76l-.3.05a24.88,24.88,0,0,1-2.42-6.31,41.35,41.35,0,0,1-.79-6.58q-.36-3.3-.65-6.61c-.16-2.21-.37-4.41-.49-6.63Z"/><path class="cls-1" d="M654.13,510.08c.46,1.33.85,2.68,1.28,4s.77,2.69,1.13,4a16.94,16.94,0,0,1,1,4.06,12.77,12.77,0,0,1-.1,2.13,8.35,8.35,0,0,1-.55,2.2l-.3.05a8.65,8.65,0,0,1-1.23-1.9,11.56,11.56,0,0,1-.78-2,16.46,16.46,0,0,1-.39-4.16c-.11-1.39-.19-2.78-.24-4.18s-.11-2.8-.1-4.21Z"/><path class="cls-2" d="M861,899.53a17.14,17.14,0,0,1,3.85-3.89,25.69,25.69,0,0,1,4.55-2.74,18.5,18.5,0,0,1,5-1.54l1.32-.19,1.32-.14c.88-.08,1.74-.24,2.63-.29a46.76,46.76,0,0,1,10.51,0,37.62,37.62,0,0,1,10,2.58l-.16.57a47.2,47.2,0,0,0-9.93-.15c-.82,0-1.63.2-2.44.29s-1.61.21-2.41.4l-2.38.47-2.36.6a24.17,24.17,0,0,0-2.32.76c-.77.26-1.52.56-2.27.89a31.94,31.94,0,0,1-4.6,1.46,52.75,52.75,0,0,1-10.1,1.49Z"/><circle class="cls-3" cx="899.96" cy="1462.52" r="10.54" transform="translate(-770.57 1064.73) rotate(-45)"/><rect class="cls-3" x="896.41" y="1443.13" width="21.65" height="8" transform="translate(-773.85 1145.13) rotate(-47.73)"/><circle class="cls-3" cx="816.53" cy="1412.55" r="10.54" transform="translate(-797.73 1175.5) rotate(-51.62)"/><rect class="cls-3" x="815.81" y="1394.85" width="21.65" height="8" transform="translate(-671.18 769.03) rotate(-36.61)"/><path class="cls-1" d="M1356.25,926.9c-48.44-26-120.7-16.77-121.42-16.67l-.66-5c3-.4,74.57-9.51,124.44,17.22Z"/><path class="cls-1" d="M1979.14,533.89l-2.91-.73a43.78,43.78,0,0,1,5.75-12.43c5.58-8.33,13.27-13.06,22.22-13.67a22.3,22.3,0,0,1,15.25,4.81,87.47,87.47,0,0,1,6.78,6c3.11,3,6.55,4.31,10.23,3.85a14.37,14.37,0,0,0,10-6.58l.61-1c3.84-6.29,10.26-16.81,25.13-11.91.23.08,4.15,1.6,8.69,7,2.47,2.92,7.69,5.4,24.6-6.63,15.47-11,21.94-2.49,22.21-2.12l-2.43,1.76c-.19-.25-5.12-6.39-18,2.8-9.83,7-22,14-28.63,6.13-4-4.72-7.36-6.07-7.4-6.08-12.56-4.13-17.76,4.41-21.57,10.64l-.62,1a17.48,17.48,0,0,1-12.18,8c-3.18.39-8-.09-12.69-4.67a83.71,83.71,0,0,0-6.54-5.77,19.28,19.28,0,0,0-13.2-4.18C1985,511.37,1979.2,533.66,1979.14,533.89Z"/><path class="cls-8" d="M2058.2,546.48a86.73,86.73,0,0,0,38.46-42.65,85.22,85.22,0,0,0,3.88-11.59,19.93,19.93,0,0,1-24.19-19.47,20.8,20.8,0,0,1,.28-3.37,21.06,21.06,0,0,1-4.08.39,22.21,22.21,0,0,1-16.12-37.49,22.24,22.24,0,0,1-12.45-20,22,22,0,0,1,1.89-9ZM1997,387a86.15,86.15,0,0,0,20.14,169.9,88.44,88.44,0,0,0,11-.69Zm48.82,95.87A31.16,31.16,0,1,1,2034.5,445Z"/><polygon class="cls-1" points="1859.56 1190.83 1858.8 1190.69 1688.07 1161.29 1688.58 1158.33 1858.55 1187.61 1964.74 1083.19 1966.84 1085.32 1859.56 1190.83"/><polygon class="cls-1" points="1909.46 1116.42 1905.28 1120.53 1819.19 1034.43 1820.92 1033.01 1827.39 1034.36 1909.46 1116.42"/><polygon class="cls-1" points="1887.86 1137.66 1883.69 1141.77 1795.62 1053.69 1800.17 1049.97 1887.86 1137.66"/><rect class="cls-3" x="2159.49" y="1307.72" width="58.24" height="4" transform="translate(-360.91 1236.64) rotate(-29.26)"/><path class="cls-3" d="M2225.29,1291.47l-1.95-3.49,16-9-30.85-60.71,3.57-1.81,31.71,62.42a2,2,0,0,1-.8,2.65Z"/><polygon class="cls-1" points="2097.73 1028.67 2094.74 1028.54 2096.68 981.46 2121.34 969.27 2122.67 971.96 2099.61 983.36 2097.73 1028.67"/><polygon class="cls-1" points="2151.51 1005.04 2124.73 994.23 2121.13 983.02 2123.99 982.1 2127.16 991.98 2152.64 1002.26 2151.51 1005.04"/><path class="cls-3" d="M2082.32,1017.16a1.42,1.42,0,0,1-.57-.12,1.49,1.49,0,0,1-.85-.89l-19-54.21a1.49,1.49,0,0,1,.59-1.75l18.21-12a1.48,1.48,0,0,1,1.37-.14l17.64,7-1.11,2.79-16.91-6.72-16.57,10.91,18,51.52,42.65-20.7,1.31,2.7L2083,1017A1.55,1.55,0,0,1,2082.32,1017.16Z"/><path class="cls-3" d="M2133.57,981.65,2132,971.1l-26.06-10.35L2107,958l26.85,10.67a1.49,1.49,0,0,1,.93,1.17l1.71,11.41Z"/><polygon class="cls-7" points="491.27 821.83 501.97 756.74 430.51 804.46 491.27 821.83"/><polygon class="cls-6" points="430.51 804.46 431.3 780.49 482.63 747.01 501.97 756.74 430.51 804.46"/><polygon class="cls-1" points="491.27 821.83 478.22 772.59 450.97 790.8 491.27 821.83"/><polygon class="cls-5" points="450.97 790.8 454.96 765.3 478.22 772.59 450.97 790.8"/><polygon class="cls-1" points="490.36 823.01 449.35 791.44 454.02 761.63 456.98 762.1 452.59 790.15 492.19 820.64 490.36 823.01"/><polygon class="cls-1" points="478.44 774.24 466.14 770.38 467.04 767.51 478 770.95 503.47 754.54 505.1 757.06 478.44 774.24"/><path class="cls-3" d="M470.81,827.62a1.52,1.52,0,0,1-.42-.06l-60.75-17.37a1.49,1.49,0,0,1-1.09-1.49l.78-24a1.52,1.52,0,0,1,.68-1.21l17.49-11.4,1.64,2.51-16.83,11-.72,22,58,16.58,8.48-51.64,3,.49-8.75,53.3a1.51,1.51,0,0,1-.68,1A1.44,1.44,0,0,1,470.81,827.62Z"/><path class="cls-3" d="M436.36,769.92l-1.64-2.51L461.35,750a1.5,1.5,0,0,1,1.49-.08l11.34,5.7-1.35,2.68L462.26,753Z"/><rect class="cls-3" x="2138.25" y="781.65" width="32.2" height="3" transform="translate(62.28 1720.06) rotate(-44.1)"/><rect class="cls-1" x="1339.14" y="275.44" width="5" height="58.49" transform="translate(735.17 1539.6) rotate(-76.64)"/><rect class="cls-1" x="1362.92" y="317.03" width="5" height="32.69" transform="translate(725.54 1584.8) rotate(-76.64)"/><rect class="cls-1" x="1329.12" y="317.94" width="5" height="14.8" transform="translate(707.32 1545.71) rotate(-76.64)"/><rect class="cls-1" x="1379.44" y="351.22" width="5" height="19.86" transform="translate(711.23 1622.23) rotate(-76.64)"/><rect class="cls-1" x="1348.2" y="337.28" width="5" height="32.9" transform="translate(694.41 1586.13) rotate(-76.64)"/><rect class="cls-1" x="1373.52" y="273.49" width="50.99" height="5" transform="translate(638.69 1482.36) rotate(-68.94)"/><rect class="cls-1" x="1416.32" y="278.06" width="9.79" height="5" transform="translate(648.88 1506.15) rotate(-68.95)"/><rect class="cls-1" x="1392.76" y="303.76" width="37.12" height="5" transform="translate(618.33 1513.23) rotate(-68.94)"/><rect class="cls-1" x="1423.95" y="306.78" width="20.34" height="5" transform="translate(630.14 1536.46) rotate(-68.94)"/><rect class="cls-1" x="1414.18" y="337.18" width="16.48" height="5" transform="translate(594.47 1545.15) rotate(-68.95)"/><path class="cls-1" d="M926,267.77l-2.79-1.11a13.81,13.81,0,0,0-10-18.63l.61-2.94A16.82,16.82,0,0,1,926,267.77Z"/><path class="cls-1" d="M910.4,278.34a16.8,16.8,0,0,1-10.35-30l1.85,2.36a13.81,13.81,0,0,0,14,23.54l1.19,2.75A16.73,16.73,0,0,1,910.4,278.34Z"/><path class="cls-1" d="M835.25,335.78l-2.79-1.11a13.66,13.66,0,0,0,1-5.11,13.84,13.84,0,0,0-11-13.52l.6-2.94a16.82,16.82,0,0,1,12.22,22.68Z"/><path class="cls-1" d="M819.65,346.35a16.79,16.79,0,0,1-10.35-30l1.85,2.36a13.8,13.8,0,0,0,14,23.54l1.19,2.75A16.72,16.72,0,0,1,819.65,346.35Z"/><rect class="cls-1" x="1005.15" y="278.34" width="3" height="76.62" transform="translate(96.74 851.13) rotate(-47.89)"/><path class="cls-1" d="M411.52,607.5l-2.77-1.16,26.63-63.66-46.15,10.23a1.5,1.5,0,0,1-1.54-2.34l40.08-56.27-65.46,38.36-1.52-2.59,71.5-41.9a1.51,1.51,0,0,1,1.87.29,1.49,1.49,0,0,1,.11,1.88l-41.88,58.79,45.16-10a1.5,1.5,0,0,1,1.71,2Z"/><rect class="cls-3" x="435.44" y="565.16" width="61.67" height="4" transform="translate(-225.34 320.69) rotate(-30.96)"/><rect class="cls-6" x="461.51" y="618.05" width="51.6" height="13" transform="translate(-251.86 339.64) rotate(-30.96)"/><rect class="cls-1" x="615.46" y="1306.73" width="176.45" height="3" transform="translate(-642.49 680.18) rotate(-36.71)"/><rect class="cls-1" x="471.58" y="1368.18" width="106.18" height="3" transform="translate(-65.83 27.06) rotate(-2.78)"/><polygon class="cls-3" points="491.17 1268.92 593.84 1295.84 640.03 1268.84 633.29 1255.48 491.17 1268.92"/><rect class="cls-3" x="621.16" y="1315.33" width="70.16" height="3" transform="translate(-657.4 654.23) rotate(-36.74)"/><path class="cls-3" d="M1573.29,1317.85l-16.54-40.06L1517.37,1294l-1.53-3.69,41.23-17a2,2,0,0,1,1.53,0,2,2,0,0,1,1.08,1.09l17.3,41.91Z"/><path class="cls-3" d="M1532.09,1421.09a2,2,0,0,1-.76-.15,2,2,0,0,1-1.09-1.08l-47-113.89a2,2,0,0,1,1.08-2.61l16-6.63,1.53,3.7-14.2,5.86,45.48,110.19,25.77-10.64,1.53,3.7-27.62,11.4A2.07,2.07,0,0,1,1532.09,1421.09Z"/><path class="cls-1" d="M810.34,827.79c-5.36,0-9.45-2.58-16.52-9.57l2.11-2.14c10.88,10.75,13.33,10,27,6,13-3.83,13.61-16.21,13.63-16.73,2.82-39.16,23.77-73.4,24-73.74l2.56,1.58c-.21.33-20.78,34-23.54,72.32,0,.1-.69,15-15.78,19.44C817.93,826.67,813.86,827.79,810.34,827.79Z"/><path class="cls-1" d="M1415.5,1213.8c-22.78-32.87-29.75-84.45-20.71-153.31a591.13,591.13,0,0,1,20.32-93.44l5.71,1.85a584.2,584.2,0,0,0-20.09,92.47c-6.07,46.26-7.57,109.67,19.7,149Z"/><circle class="cls-1" cx="1017.85" cy="535.51" r="11.26" transform="translate(-80.54 876.58) rotate(-45)"/><path class="cls-3" d="M835,1215l-.1-4c.49,0,49.07-1.29,116.59-12.23,62.27-10.1,153.85-30.72,236.51-71.65l1.77,3.58c-83.12,41.17-175.15,61.89-237.71,72C884.29,1213.69,835.5,1215,835,1215Z"/><path class="cls-3" d="M1330.86,799.92c-10-100.06-52.23-179.21-52.66-180l3.52-1.91c.43.8,43.08,80.66,53.12,181.5Z"/><path class="cls-3" d="M1249.67,1176.42c-43.55-6.49-99.3-28.06-99.86-28.27l1.45-3.73c.55.21,55.9,21.62,99,28Z"/><path class="cls-3" d="M1248.7,604l-4-.41c2.17-20.89-15.64-27.06-15.82-27.12l1.26-3.79C1230.38,572.75,1251.2,580,1248.7,604Z"/><rect class="cls-1" x="1227.33" y="527.39" width="42.51" height="4" transform="translate(517.84 1671.86) rotate(-80.37)"/><rect class="cls-1" x="1267.37" y="531.52" width="42.51" height="4" transform="translate(280.27 1497.06) rotate(-66.19)"/><rect class="cls-1" x="1259.04" y="541.76" width="13.64" height="4" transform="translate(414.93 1627.27) rotate(-75.1)"/></g></g></svg>