<svg
  xmlns="http://www.w3.org/2000/svg" viewBox="0 0 100 31.486730602593664"
  xmlns:xlink="http://www.w3.org/1999/xlink" version="1.1"  >
  <g transform="translate(39.5291456769816 14.583853485878777) scale(0.4021207537193966)" id="horizontalContainerlessSvgTemplate">
    <g fill="#4fd1c5">
      <g transform="translate(-1.3148283418553692 -5.514974433893354) scale(0.5072640207775343)" fill="#4fd1c5">
        <g id="line1" fill="#4fd1c5">
          <path d="M31.248-4.968L32.760-4.968L32.760-16.128L13.248-22.824L13.248-23.616L32.760-30.240L32.760-41.472L31.248-41.472L2.592-29.808L2.592-16.560Z"></path>
          <path d="M40.313-4.464C42.785-0.816 46.469 1.008 51.365 1.008C53.813 1.008 55.985 0.408 57.881-0.792C59.777-1.992 61.325-3.360 62.525-4.896L62.525 0L82.253 0L82.253-11.808L79.085-11.808L79.085-56.016L58.277-56.016L58.277-44.208L62.525-44.208L62.525-35.136C61.325-36.672 59.777-38.040 57.881-39.240C55.985-40.440 53.813-41.040 51.365-41.040C46.469-41.040 42.785-39.216 40.313-35.568C37.841-31.920 36.605-26.736 36.605-20.016C36.605-13.296 37.841-8.112 40.313-4.464ZM61.481-12.924C60.785-12.180 59.741-11.808 58.349-11.808C56.957-11.808 55.913-12.180 55.217-12.924C54.521-13.668 54.173-14.832 54.173-16.416L54.173-23.616C54.173-25.200 54.521-26.364 55.217-27.108C55.913-27.852 56.957-28.224 58.349-28.224C59.741-28.224 60.785-27.852 61.481-27.108C62.177-26.364 62.525-25.200 62.525-23.616L62.525-16.416C62.525-14.832 62.177-13.668 61.481-12.924Z"></path>
          <path d="M89.986-4.356C93.826-0.780 99.154 1.008 105.970 1.008C109.762 1.008 113.278 0.636 116.518-0.108C119.758-0.852 122.218-1.680 123.898-2.592L123.898-14.112C121.930-13.440 119.626-12.888 116.986-12.456C114.346-12.024 111.562-11.808 108.634-11.808C106.186-11.808 104.434-12.228 103.378-13.068C102.322-13.908 101.794-15.216 101.794-16.992L101.794-17.424L125.122-17.424L125.122-22.608C125.122-27.840 123.622-32.220 120.622-35.748C117.622-39.276 112.738-41.040 105.970-41.040C99.154-41.040 93.826-39.252 89.986-35.676C86.146-32.100 84.226-26.880 84.226-20.016C84.226-13.152 86.146-7.932 89.986-4.356ZM110.146-25.344L101.794-25.344L101.794-26.208C101.794-27.792 102.142-28.956 102.838-29.700C103.534-30.444 104.578-30.816 105.970-30.816C107.362-30.816 108.406-30.456 109.102-29.736C109.798-29.016 110.146-27.840 110.146-26.208Z"></path>
          <path d="M138.758 0L160.214 0L169.070-28.224L172.094-28.224L172.094-40.032L151.214-40.032L151.214-28.224L154.238-28.224L150.422-13.968L149.702-13.968L145.886-28.224L148.910-28.224L148.910-40.032L126.662-40.032L126.662-28.224L129.686-28.224Z"></path>
          <path d="M171.331 10.872L181.627 10.872L204.667-58.320L204.667-60.624L194.443-60.624L171.331 8.568Z"></path>
          <path d="M206.352-4.968L207.864-4.968L236.520-16.560L236.520-29.808L207.864-41.472L206.352-41.472L206.352-30.240L225.864-23.616L225.864-22.824L206.352-16.128Z"></path>
        </g>
      </g>
      <g transform="translate(-0.3652300949598249 33.41490138787438) scale(0.5072640207775345)" fill="#4fd1c5">
        <g id="line2" fill="#4fd1c5">
          <path d="M12.492 16.272C15.636 16.752 18.936 16.992 22.392 16.992C29.352 16.992 34.560 15.420 38.016 12.276C41.472 9.132 43.200 4.080 43.200-2.880L43.200-28.224L46.368-28.224L46.368-40.032L26.640-40.032L26.640-35.136C25.440-36.672 23.892-38.040 21.996-39.240C20.100-40.440 17.928-41.040 15.480-41.040C10.584-41.040 6.900-39.216 4.428-35.568C1.956-31.920 0.720-26.736 0.720-20.016C0.720-13.296 1.956-8.112 4.428-4.464C6.900-0.816 10.584 1.008 15.480 1.008C17.928 1.008 20.100 0.408 21.996-0.792C23.892-1.992 25.440-3.360 26.640-4.896L26.640-1.800C26.640 0.504 26.028 2.076 24.804 2.916C23.580 3.756 21.600 4.176 18.864 4.176C14.832 4.176 10.272 3.720 5.184 2.808L5.184 14.616C6.912 15.240 9.348 15.792 12.492 16.272ZM25.596-12.924C24.900-12.180 23.856-11.808 22.464-11.808C21.072-11.808 20.028-12.180 19.332-12.924C18.636-13.668 18.288-14.832 18.288-16.416L18.288-23.616C18.288-25.200 18.636-26.364 19.332-27.108C20.028-27.852 21.072-28.224 22.464-28.224C23.856-28.224 24.900-27.852 25.596-27.108C26.292-26.364 26.640-25.200 26.640-23.616L26.640-16.416C26.640-14.832 26.292-13.668 25.596-12.924Z"></path>
          <path d="M90.317-11.808L87.149-11.808L87.149-25.128C87.149-30.552 85.613-34.560 82.541-37.152C79.469-39.744 74.357-41.040 67.205-41.040C64.373-41.040 61.469-40.848 58.493-40.464C55.517-40.080 52.757-39.576 50.213-38.952L50.213-25.704C52.277-26.472 54.545-27.084 57.017-27.540C59.489-27.996 61.805-28.224 63.965-28.224C66.605-28.224 68.477-27.924 69.581-27.324C70.685-26.724 71.309-25.608 71.453-23.976C56.045-23.736 48.341-19.080 48.341-10.008C48.341-6.504 49.373-3.792 51.437-1.872C53.501 0.048 56.333 1.008 59.933 1.008C62.669 1.008 64.985 0.408 66.881-0.792C68.777-1.992 70.253-3.360 71.309-4.896L71.309 0L90.317 0ZM71.309-16.848L71.309-16.416C71.309-14.496 70.973-13.008 70.301-11.952C69.629-10.896 68.669-10.368 67.421-10.368C66.509-10.368 65.801-10.620 65.297-11.124C64.793-11.628 64.541-12.288 64.541-13.104C64.541-14.448 65.129-15.408 66.305-15.984C67.481-16.560 69.149-16.848 71.309-16.848Z"></path>
          <path d="M95.710-4.464C98.182-0.816 101.866 1.008 106.762 1.008C109.210 1.008 111.382 0.408 113.278-0.792C115.174-1.992 116.722-3.360 117.922-4.896L117.922 0L137.650 0L137.650-11.808L134.482-11.808L134.482-56.016L113.674-56.016L113.674-44.208L117.922-44.208L117.922-35.136C116.722-36.672 115.174-38.040 113.278-39.240C111.382-40.440 109.210-41.040 106.762-41.040C101.866-41.040 98.182-39.216 95.710-35.568C93.238-31.920 92.002-26.736 92.002-20.016C92.002-13.296 93.238-8.112 95.710-4.464ZM116.878-12.924C116.182-12.180 115.138-11.808 113.746-11.808C112.354-11.808 111.310-12.180 110.614-12.924C109.918-13.668 109.570-14.832 109.570-16.416L109.570-23.616C109.570-25.200 109.918-26.364 110.614-27.108C111.310-27.852 112.354-28.224 113.746-28.224C115.138-28.224 116.182-27.852 116.878-27.108C117.574-26.364 117.922-25.200 117.922-23.616L117.922-16.416C117.922-14.832 117.574-13.668 116.878-12.924Z"></path>
          <path d="M151.106 16.272C154.250 16.752 157.550 16.992 161.006 16.992C167.966 16.992 173.174 15.420 176.630 12.276C180.086 9.132 181.814 4.080 181.814-2.880L181.814-28.224L184.982-28.224L184.982-40.032L165.254-40.032L165.254-35.136C164.054-36.672 162.506-38.040 160.610-39.240C158.714-40.440 156.542-41.040 154.094-41.040C149.198-41.040 145.514-39.216 143.042-35.568C140.570-31.920 139.334-26.736 139.334-20.016C139.334-13.296 140.570-8.112 143.042-4.464C145.514-0.816 149.198 1.008 154.094 1.008C156.542 1.008 158.714 0.408 160.610-0.792C162.506-1.992 164.054-3.360 165.254-4.896L165.254-1.800C165.254 0.504 164.642 2.076 163.418 2.916C162.194 3.756 160.214 4.176 157.478 4.176C153.446 4.176 148.886 3.720 143.798 2.808L143.798 14.616C145.526 15.240 147.962 15.792 151.106 16.272ZM164.210-12.924C163.514-12.180 162.470-11.808 161.078-11.808C159.686-11.808 158.642-12.180 157.946-12.924C157.250-13.668 156.902-14.832 156.902-16.416L156.902-23.616C156.902-25.200 157.250-26.364 157.946-27.108C158.642-27.852 159.686-28.224 161.078-28.224C162.470-28.224 163.514-27.852 164.210-27.108C164.906-26.364 165.254-25.200 165.254-23.616L165.254-16.416C165.254-14.832 164.906-13.668 164.210-12.924Z"></path>
          <path d="M192.427-4.356C196.267-0.780 201.595 1.008 208.411 1.008C212.203 1.008 215.719 0.636 218.959-0.108C222.199-0.852 224.659-1.680 226.339-2.592L226.339-14.112C224.371-13.440 222.067-12.888 219.427-12.456C216.787-12.024 214.003-11.808 211.075-11.808C208.627-11.808 206.875-12.228 205.819-13.068C204.763-13.908 204.235-15.216 204.235-16.992L204.235-17.424L227.563-17.424L227.563-22.608C227.563-27.840 226.063-32.220 223.063-35.748C220.063-39.276 215.179-41.040 208.411-41.040C201.595-41.040 196.267-39.252 192.427-35.676C188.587-32.100 186.667-26.880 186.667-20.016C186.667-13.152 188.587-7.932 192.427-4.356ZM212.587-25.344L204.235-25.344L204.235-26.208C204.235-27.792 204.583-28.956 205.279-29.700C205.975-30.444 207.019-30.816 208.411-30.816C209.803-30.816 210.847-30.456 211.543-29.736C212.239-29.016 212.587-27.840 212.587-26.208Z"></path>
          <path d="M235.980-2.700C238.548-0.228 242.376 1.008 247.464 1.008C249.816 1.008 252.132 0.780 254.412 0.324C256.692-0.132 258.504-0.624 259.848-1.152L259.848-12.456C257.688-12.024 255.696-11.808 253.872-11.808C252.480-11.808 251.436-12.180 250.740-12.924C250.044-13.668 249.696-14.832 249.696-16.416L249.696-28.224L259.416-28.224L259.416-40.032L249.696-40.032L249.696-48.528L234.432-48.528L234.432-45.288C234.432-43.656 233.976-42.372 233.064-41.436C232.152-40.500 230.784-40.032 228.960-40.032L228.960-28.224L232.128-28.224L232.128-15.192C232.128-9.336 233.412-5.172 235.980-2.700Z"></path>
          <path d="M262.109-1.872C267.725 0.048 273.557 1.008 279.605 1.008C285.221 1.008 289.553-0.144 292.601-2.448C295.649-4.752 297.173-8.088 297.173-12.456C297.173-15.912 296.261-18.744 294.437-20.952C292.613-23.160 289.565-24.672 285.293-25.488L281.189-26.280C279.413-26.664 278.189-27.072 277.517-27.504C276.845-27.936 276.509-28.560 276.509-29.376C276.509-30.912 277.709-31.680 280.109-31.680C281.357-31.680 282.305-31.428 282.953-30.924C283.601-30.420 283.925-29.688 283.925-28.728L283.925-28.008L294.869-28.008L294.869-38.016C290.741-40.032 285.677-41.040 279.677-41.040C274.301-41.040 270.029-39.888 266.861-37.584C263.693-35.280 262.109-32.040 262.109-27.864C262.109-20.664 265.877-16.392 273.413-15.048L277.013-14.400C278.885-14.064 280.193-13.656 280.937-13.176C281.681-12.696 282.053-11.976 282.053-11.016C282.053-9.240 280.757-8.352 278.165-8.352C275.237-8.352 273.773-9.504 273.773-11.808L273.773-12.528L262.109-12.528Z"></path>
        </g>
      </g>
      <g transform="translate(-100.91173606038473 -38.877404431458494) scale(1.305028000973947)" id="logomark">
        <g fill="#4fd1c5">
          <path d="M58 2H32v2h26a2 2 0 0 1 2 2v52a2 2 0 0 1-2 2H38v2h20a4 4 0 0 0 4-4V6a4 4 0 0 0-4-4z"></path>
          <path d="M44 8a9.007 9.007 0 0 0-6.75 3.047l1.5 1.324a7 7 0 1 1 1.75 10.693l-1 1.731A9 9 0 1 0 44 8z"></path>
          <path d="M44 22a5 5 0 1 0-5-5 5.006 5.006 0 0 0 5 5zm0-8a3 3 0 1 1-3 3 3 3 0 0 1 3-3zM44 29a13.943 13.943 0 0 0-13.625 10.77l1.946.46a12 12 0 1 1 6.141 13.419l-.924 1.773A14 14 0 1 0 44 29z"></path>
          <path d="M44 51a7.986 7.986 0 0 1-5.333-2.037l-1.334 1.49a10 10 0 1 0-3.085-9.674l1.95.442A8 8 0 1 1 44 51zM56 6h2v2h-2zM30 56h2v2h-2zM56 56h2v2h-2z"></path>
          <path d="M5 62h28a3 3 0 0 0 3-3V45a3 3 0 0 0-3-3h-6.323l-1.748-4.372A1 1 0 0 0 24 37H14a1 1 0 0 0-.929.628L11.323 42H5a3 3 0 0 0-3 3v14a3 3 0 0 0 3 3zM4 45a1 1 0 0 1 1-1h7a1 1 0 0 0 .929-.628L14.677 39h8.646l1.748 4.372A1 1 0 0 0 26 44h7a1 1 0 0 1 1 1v14a1 1 0 0 1-1 1H5a1 1 0 0 1-1-1z"></path>
          <path d="M19 58a7 7 0 1 0-7-7 7.008 7.008 0 0 0 7 7zm0-12a5 5 0 1 1-5 5 5.006 5.006 0 0 1 5-5zM7 46h2v2H7zM28 46h4v2h-4zM3 26h3.08A7 7 0 0 0 12 31.92V32a3 3 0 0 0 6 0V18a3 3 0 0 0-6 0v.08a6.98 6.98 0 0 0-4 2.03V20a12 12 0 0 1 24 0v.11a6.98 6.98 0 0 0-4-2.03V18a3 3 0 0 0-6 0v14a3 3 0 0 0 6 0v-.08A7 7 0 0 0 33.92 26H37a1 1 0 0 0 1-1v-5a18 18 0 0 0-36 0v5a1 1 0 0 0 1 1zm11 5V18a1 1 0 0 1 2 0v14a1 1 0 0 1-2 0zm12-12v13a1 1 0 0 1-2 0V18a1 1 0 0 1 2 0zm2 10.9v-9.8a5 5 0 0 1 0 9.8zm-16-9.8v9.8a5 5 0 0 1 0-9.8zM4 20a16 16 0 0 1 32 0v4h-2v-4a14 14 0 0 0-28 0v4H4z"></path>
        </g>
      </g>
    </g>
  </g>
</svg>