<svg xmlns="http://www.w3.org/2000/svg" viewBox="0 0 2499.97 1663.95"><defs><style>.cls-1{fill:#fff;}.cls-2{fill:#ffe9e9;}.cls-3{fill:#000061;}.cls-4{fill:#ff5776;}.cls-5{fill:#ffb2a8;}.cls-6{fill:#ffb149;}.cls-7{fill:#00ccbe;}</style></defs><title>Asset 1</title><g id="Layer_2" data-name="Layer 2"><g id="ëÎÓÈ_1" data-name="ëÎÓÈ 1"><rect class="cls-1" width="2499.97" height="1663.95"/><rect class="cls-2" x="1935.17" y="958.75" width="143.8" height="118.24"/><rect class="cls-2" x="446.58" y="1030.41" width="143.8" height="118.24"/><rect class="cls-2" x="1210.98" y="299.48" width="224.19" height="65.3"/><rect class="cls-2" x="1840.42" y="530.34" width="206.6" height="65.3"/><rect class="cls-2" x="300" y="747.68" width="206.6" height="65.3"/><rect class="cls-2" x="329.76" y="827.54" width="206.6" height="65.3"/><rect class="cls-2" x="634.75" y="1443.03" width="640.23" height="64.79"/><rect class="cls-2" x="1370.98" y="1475.42" width="347.22" height="56.93"/><rect class="cls-3" x="1192.98" y="1255.99" width="82" height="82"/><path class="cls-3" d="M1934.32,1118.82s34.12-8.14,33-146.68-80.89-22.39-80.89-22.39S1901,1075.93,1934.32,1118.82Z"/><path class="cls-2" d="M1077.28,825.83c0,153.72-124.62,278.34-278.34,278.34S571.12,973.05,571.12,819.32s74.09-271.83,227.82-271.83S1077.28,672.11,1077.28,825.83Z"/><path class="cls-1" d="M856.27,800.82c3.32-25.36,18.35-47.87,39.43-62.07,17-11.42,39.28-17.06,54.41.37,7,8.08,10.78,18.61,16.8,27.42,5.14,7.52,11.48,14.72,19.77,18.83,18.19,9,37.5-.14,49-15.13,7.65-10,12.59-21.66,17-33.37a341.31,341.31,0,0,0,13.84-47.52c.41-1.88-2.48-2.69-2.89-.8a343.85,343.85,0,0,1-11.89,42.15c-4.15,11.75-8.72,23.54-15.68,34-6.4,9.56-15.28,18.09-26.88,20.54s-22.39-1.44-30.74-9.46c-7.51-7.2-12.8-16.41-17.63-25.52-4.59-8.67-10.1-17-19-21.73-16.64-8.85-35.88-.76-49.93,9.31-20.83,14.93-35.21,37.49-38.56,63-.25,1.91,2.75,1.89,3,0Z"/><path class="cls-1" d="M863,544.19c2.51,9.3,5.27,19.55,1.12,28.8-4.89,10.87-15,9.86-25,11.18-12.21,1.6-22.64,10-28.12,20.88a36.29,36.29,0,0,0,.65,34.84c6.49,11.23,18.11,18.41,30,22.8,13.1,4.84,28.93,7.81,42.79,5.22,7.69-1.44,13.7-5.39,19.56-10.39,6.67-5.67,13.17-10.41,21.83-12.46,16.46-3.89,32.19,1.8,43.79,13.64,9.39,9.59,19.39,20.42,34,14.73,7.71-3,14.51-9,20.45-14.64s11.54-12.27,14.88-20c5.63-13,3.82-29.57-8.16-38.35-1.56-1.15-3.06,1.46-1.52,2.59,12.94,9.47,11.57,28,3.93,40.28-4.23,6.83-10,12.53-16.15,17.68-6.27,5.29-13.67,11.25-22.33,11.08-13.89-.26-22-16.72-32.47-23.66a48.22,48.22,0,0,0-35.13-6.72,44.63,44.63,0,0,0-17.54,7.36c-6.07,4.31-11,10.18-17.86,13.41-13.54,6.4-31.62,3-45.35-1.34-12.4-3.92-24.94-10.77-31.82-22.22-7.36-12.23-5.76-27.15,2.76-38.36a34.46,34.46,0,0,1,18.29-12.68c7.48-2,15.78-.19,22.79-4,14.67-8,11-27.38,7.5-40.47a1.5,1.5,0,0,0-2.89.8Z"/><circle class="cls-2" cx="1548.98" cy="685.79" r="278.34"/><path class="cls-1" d="M1357.6,467.24c14.43,2.67,26.21,15.14,32.91,27.57,3.27,6.05,5.62,12.83,5.47,19.77-.2,9.21-2.8,18.23-5,27.11-3.66,14.95-5.81,29.85.77,44.34a73.88,73.88,0,0,0,26.76,30.81c10.7,6.93,24.21,10.75,36.61,6.27,12.68-4.57,17.68-17,22.7-28.44,13.42-30.5,37.21-66.2,73.45-70.14,43.16-4.69,69.06,37.92,87,70.18.94,1.69,3.53.18,2.59-1.51-15.92-28.67-34.83-61.05-68.9-70-32.45-8.55-61,12.91-78.84,38.1a178.85,178.85,0,0,0-14.3,24.2c-3.18,6.45-5.66,13.24-9,19.6-3.61,6.84-8.57,12.84-16.13,15.38s-15.49,1.85-22.83-.76c-14.49-5.16-26.71-17.28-34.12-30.52-9.42-16.86-6-33.84-1.6-51.64,2.08-8.45,4.53-17.64,3.76-26.43-.61-6.95-3.31-13.64-6.8-19.63-7.18-12.3-19.16-24.45-33.68-27.13-1.89-.35-2.69,2.54-.8,2.89Z"/><path class="cls-1" d="M1629.73,795.93c-20.27-25.12-40.46-50.51-54.58-79.72-14-28.94-22.72-60.37-28.4-91.93-6-33-7.51-66.8-1.67-100,5.35-30.37,16-59.56,29.11-87.4,14.86-31.59,32.83-61.59,50.85-91.44a1.5,1.5,0,0,0-2.59-1.52c-32.36,53.6-65.61,109-78.61,171-6.7,32-6.8,64.57-2.14,96.84s12.8,64.45,25.62,94.42c14.61,34.14,37.14,63.14,60.29,91.84,1.21,1.5,3.32-.63,2.12-2.12Z"/><path class="cls-4" d="M1558,1311a128,128,0,0,0-128,128h256A128,128,0,0,0,1558,1311Z"/><path class="cls-1" d="M1508.79,1312.65c-16.23,13.92-8.73,40.53,4.52,53.86,5.8,5.84,14.18,8.67,21.64,4.11,7.15-4.37,10.6-12.83,15.44-19.31,7-9.32,19.07-14,30.45-10.76,12.52,3.61,19.85,15.54,19.85,28.11,0,9.7,1.91,17.81,9.47,24.48a32.62,32.62,0,0,0,25.56,7.82c25.83-3.09,39.37-28.07,45.64-50.64a1.5,1.5,0,0,0-2.89-.8c-5.72,20.6-17.19,43.2-40.13,48a29.91,29.91,0,0,1-28-8.4,23.84,23.84,0,0,1-6.37-12.46c-.86-5.35.23-10.78-1-16.12A30.77,30.77,0,0,0,1568.2,1337a31.33,31.33,0,0,0-19.64,11.82c-4.92,6.32-8.32,15.48-15.61,19.53-12.15,6.75-22-8-26.25-17.3-5.48-11.9-6.62-27,4.21-36.26,1.47-1.25-.66-3.37-2.12-2.12Z"/><path class="cls-1" d="M1424.51,1410.16a29.83,29.83,0,0,1,13.89-19.35c6.72-4,17.38-6.12,23.65-.07,6.1,5.9,1.53,15.85,4.84,23,2.55,5.48,8.32,8.23,14,9.37,7,1.39,15,1.4,21.64-1.31,6.45-2.63,10.33-8.2,14.36-13.57,5.05-6.75,11-11.64,19.49-13a34.24,34.24,0,0,1,22.14,4c16.9,9.61,20.93,31.72,15.76,49.12-.55,1.85,2.34,2.65,2.89.8,4.5-15.12,2.55-32.56-7.91-44.84-9.5-11.17-26.26-15.68-40-10.24-7.28,2.88-11.75,8.39-16.31,14.48-2.84,3.79-5.78,7.63-10.09,9.83-5.28,2.71-11.73,2.91-17.53,2.37-4.53-.41-9.61-1.54-13.07-4.71-4.58-4.19-3.69-10.1-3.87-15.66-.23-7.14-3.17-12.92-10.25-15.28-16.36-5.43-33.12,8.92-36.5,24.28-.41,1.89,2.48,2.69,2.89.8Z"/><path class="cls-1" d="M1648.13,1454.47c-.51-15.42,7.07-32.11,15.9-44.5,9-12.65,25.94-19.91,39.52-26.57,1.73-.85.21-3.44-1.52-2.59-14.14,6.94-31.22,14.41-40.59,27.64-9.07,12.82-16.83,30.09-16.31,46,.06,1.92,3.06,1.93,3,0Z"/><path class="cls-1" d="M500.25,1224.19s-11.75-119,29.79-176.88,279.25-111.83,376.18,147.08S500.25,1224.19,500.25,1224.19Z"/><path class="cls-3" d="M497.27,1224.49a474.89,474.89,0,0,1-.7-67.21c3-49.66,13.47-87.25,31-111.72,21.78-30.36,91.37-57,165.81-47.11,44,5.85,84,23.2,118.8,51.55,41.21,33.57,73.78,81.79,96.82,143.34l-5.62,2.1c-22.66-60.54-54.62-107.9-95-140.79-33.93-27.64-72.89-44.55-115.8-50.25-33.72-4.48-69.47-1.48-100.67,8.44-27.17,8.64-49.4,22.18-59.47,36.22-40.42,56.32-29.36,173.66-29.24,174.84Z"/><polygon class="cls-3" points="547.03 1339.39 546.88 1443.03 722.62 1443.03 547.03 1339.39"/><path class="cls-5" d="M2084,749s35-24,34-24-46-8.83-45.49-8.92S2053,734,2053,734,2071,755,2084,749Z"/><path class="cls-6" d="M2100,737a95,95,0,1,1,95-95A95.11,95.11,0,0,1,2100,737Zm0-158a63,63,0,1,0,63,63A63.07,63.07,0,0,0,2100,579Z"/><path class="cls-3" d="M2108.73,727.57a96.61,96.61,0,0,1-96.5-96.5h3a93.46,93.46,0,0,0,142.44,79.64l1.57,2.56A96.19,96.19,0,0,1,2108.73,727.57Zm0-32a64.72,64.72,0,0,1-63.18-51.52l2.94-.6a61.71,61.71,0,0,0,60.24,49.12,61,61,0,0,0,23.92-4.84l1.17,2.76A63.93,63.93,0,0,1,2108.73,695.57Zm89.34-28-2.78-1.14a92.64,92.64,0,0,0,6.94-35.35,93.6,93.6,0,0,0-93.5-93.5,92.59,92.59,0,0,0-55.88,18.58l-1.8-2.4a95.61,95.61,0,0,1,57.68-19.18,96.51,96.51,0,0,1,89.34,133Zm-28.75-14.35-2.82-1a61.51,61.51,0,0,0-78-79.18l-1-2.83a64.52,64.52,0,0,1,81.84,83Z"/><path class="cls-5" d="M2068,743s12.94-22.08-16-35c0,0,3.87-17.27-11.06-26.42a3.7,3.7,0,0,0-2-.54h0a3.89,3.89,0,0,0-3.74,2.83L2028,709.55a7.65,7.65,0,0,0,1,6.39l16.82,24.67Z"/><path class="cls-4" d="M927.51,858.79c0,.87,0,1.74,0,2.62a82.69,82.69,0,0,1-30.11,61.39c-10.4,8.55-22.21,15.71-35,19.19l-33.14,12.15s15,52.39,9.25,104.36c-.11,1-.22,2-.35,3a170.36,170.36,0,0,1-3.55,19.44s-3.3,1.26-9.31,3.26l-2.87,1c-42,13.64-183.66,52.6-288.75-3.67-1.1-.58-2.2-1.19-3.3-1.81-1.57-.87-3.14-1.77-4.69-2.69-4.27-2.53-8.07-12.93-10.95-23.37-.29-1.07-.58-2.14-.85-3.2-2-7.81-3.51-15.2-4.27-18.85l-14.24-68.32s-52.12,7.34-90.42-3.6A21.94,21.94,0,0,1,390.78,947l-13-31a30.76,30.76,0,0,1-1.23-20.44c.87-3,1.92-6.63,3.14-10.74l.87-2.88c2.49-8.28,5.62-18.32,9.32-29.55.31-.94.63-1.88.95-2.84,16.89-50.86,45-124.21,78.74-168.67.74-1,1.49-2,2.25-2.92q3-3.75,6-7.19s6.84-3.49,18.86-8.41l3.09-1.26a453.54,453.54,0,0,1,71.44-21.89C615.84,629.55,671.45,625,726,640.39a231.89,231.89,0,0,1,69.19,32.42L900.34,793.94A130.64,130.64,0,0,1,919,822.17c.59,1.22,1.16,2.44,1.68,3.67.45,1,.86,2,1.26,3.07a83.23,83.23,0,0,1,5.53,29.18C927.51,858.32,927.51,858.56,927.51,858.79Z"/><path class="cls-3" d="M614.33,492.19s31.41-15,23.29-50.24c0,0,7-5,52.74,18.88s121.72-7.95,94.44-53.29-86-10.59-112.91-21.46-79.75-10.65-88.15,39.82c-.3,1.83-5.86,6.14-7.07,7.7a78.38,78.38,0,0,0-12.62,24.27c-7.8,24.59-2.95,50,9.21,72.25a424,424,0,0,0,43.36,64.61C641.67,625.37,614.33,492.19,614.33,492.19Z"/><path class="cls-1" d="M674.46,819.32a18.5,18.5,0,1,1,18.5-18.5A18.52,18.52,0,0,1,674.46,819.32Zm0-34a15.5,15.5,0,1,0,15.5,15.5A15.52,15.52,0,0,0,674.46,785.32Z"/><path class="cls-1" d="M685.77,741.14c-67.46-2.56-102.42-71.34-114.65-101.87C615.84,629.55,671.45,625,726,640.39,736.73,672.62,753,743.69,685.77,741.14Z"/><rect class="cls-7" x="674.46" y="713.09" width="194.99" height="243.56"/><path class="cls-3" d="M846.44,736.09V933.65h-149V736.09Zm23-23h-195V956.65h195V713.09Z"/><path class="cls-3" d="M2044,754V740.42s26.55-7.25,40,8.57l4,18Z"/><polygon class="cls-7" points="1233.98 1296.99 1370.98 1437.99 1370.98 1175.99 1233.98 1296.99"/><polygon class="cls-6" points="1233.98 1296.99 1096.98 1175.99 1096.98 1437.99 1233.98 1296.99"/><path class="cls-7" d="M953,1149H839a290,290,0,0,1,290-290V973C1031.93,973,953,1051.94,953,1149Z"/><path class="cls-7" d="M1686,683c.23-2.89-27.36-1-28.75-.83-25.41,3.4-52.43,11-67,33.17-20.2,30.69-35,65-49.49,98.67q-9.5,22.08-18.4,44.4c-1,2.4-4.79,17.62-7.31,18.59,0,0-135,52-132,53s-3,89,0,90c2.49.83,109.79,12.69,146.12,16.69a88.52,88.52,0,0,0,23.67-.57L1654,1020l17-148S1686,683,1686,683Z"/><path class="cls-7" d="M1808.93,682.66s88.8-22.63,131.24,77.15c0,0,24.93,44.08,29.93,100.08,0,0,46.88-93.9,73.88-105.9,0,0,32,2,44,13,4.51,22.07,8,44.42,10.79,66.77,5.65,45.26,4.72,90.84-14.44,133-12.18,26.8-34.33,71.43-70.92,62.7A48,48,0,0,1,2002,1025c-54-29-79.45-77.61-79.45-77.61S1916,983,1925,1006s19,88-8,114-94-64-94-64-16-305-17-309S1808.93,682.66,1808.93,682.66Z"/><path class="cls-1" d="M1581.9,1095.11s18.16-64.82,45.36-99.52,195.31-7.15,200.06-6.13S1959.41,1088.6,1956,1234,1581.9,1095.11,1581.9,1095.11Z"/><path class="cls-3" d="M1959,1234.06l-6-.14c1.76-74-31.31-134.8-59.37-172.81-30.46-41.28-62.88-66.61-67.12-68.76-4.27-.82-46.7-7.65-90.93-10.23-74.23-4.32-98.57,6-105.92,15.32-26.52,33.84-44.65,97.83-44.83,98.47l-5.78-1.61c0-.17,4.67-16.58,12.57-37,10.65-27.54,21.86-48.92,33.32-63.54,12-15.27,49.31-21.2,111-17.61a917.12,917.12,0,0,1,92.07,10.4C1835.25,988.1,1962.41,1088.62,1959,1234.06Z"/><path class="cls-4" d="M1741,681s-43.84-2.7-66.44,27-30.12,46.79-77.19,75c0,0,38.9-26.3,56-74.4s65.1-59.37,81.73-51.33S1741,681,1741,681Z"/><path class="cls-1" d="M1747.47,677.94s-53.4-2.21-78.22,37.39c-20.13,32.13-58.21,58.73-71.86,67.61a20.33,20.33,0,0,0-8.07,10.24c-5.41,15.36-13.17,54.81,21.16,108.32,0,0,15.41,19.52,12,36.27s-50.27,86.57,48,80.41,164-17.87,164-17.87,32.85-94.51,3.54-152.07-29.09-165.58-29.09-165.58Z"/><path class="cls-4" d="M1936,574s31,3,44,32c0,0-7,10-29,19a30.79,30.79,0,0,0-15,15s-29-9-40-39c0,0,3,27,25,47,0,0-4,14-52,5a45.59,45.59,0,0,0-9.63.87c-7.1,1.34-16.65,4.72-23.37,13.13l-49.06-1.82L1782,665l-64-214c-2.62-8.76,12.81-25.2,18.28-29.68,17.74-14.53,41.91-15.2,63.56-11.72,24.64,4,51.67,9,67.39,30.36,9.35,12.74,14.58,27.95,23.94,40.66,11,15,26.86,21.28,44.83,24.38,29,5,63,27,63,89l-12,7S1975,573,1936,574Z"/><path class="cls-3" d="M1859.35,653.86c-7.1,1.34-16.65,4.72-23.37,13.13l-49.06-1.82c-1.54-1.82-4.65-49.63-5.53-50.84s5.16-36.86,7.21-37.67S1818,549,1818,549l17.8,11.47s-9.48,28.76,8.34,55.5C1854.83,632,1858.29,645.57,1859.35,653.86Z"/><path class="cls-3" d="M922,1149H953c0-97,79-176,176-176V940.33C1016.28,944.74,925.53,1036.06,922,1149Z"/><path class="cls-4" d="M1793.08,652.69s40.63.76,48.84,59.3,2.33,97,13.55,133.89,17.72,98.36-14.12,130.15c0,0,13.31-65.64-12.46-127.79S1793.08,652.69,1793.08,652.69Z"/><path class="cls-4" d="M1722,444c-.33-4.18-22.07-3.61-24.35-3.22-16.84,2.92-29.29,17.88-35.73,32.82-6.79,15.74-3.41,35.49-15.56,48.81-7.36,8.06-18.3,10.8-26.06,18.27-13.12,12.64-18.08,37.53-22.38,54.57-.57,2.24-8.86,37.52-7.92,37.75,0,0,41,10,48,24,0,0,6-9,2-24s1-32,1-32-2,19,6,27,12,14,12,29c0,0,7-7,34-2s54.49-2.29,42-11C1729.79,640.38,1722,444.33,1722,444Z"/><path class="cls-4" d="M1718.86,635.73l-3-.1c1.39-40.4.61-186.25.59-190-1.37-2.4-19-3.87-22.4-3.53-14.24,1.42-28,12.4-36.81,29.37-3,5.84-4.62,12.6-6.15,19.13-2.43,10.33-4.93,21-13.17,28.84-4.36,4.14-9.64,6.65-14.75,9.07-4.56,2.17-8.87,4.22-12.62,7.35-12.24,10.2-18.78,30.51-24,46.83q-.88,2.76-1.72,5.31c-.49,1.47-5,15.79-7.93,26.09l-2.88-.83c3-10.33,7.47-24.73,8-26.2.56-1.69,1.13-3.46,1.72-5.29,5.37-16.69,12.07-37.46,25-48.22,4-3.37,8.72-5.59,13.26-7.75,5.12-2.43,9.95-4.73,14-8.54,7.58-7.21,9.88-17,12.31-27.34,1.57-6.72,3.2-13.66,6.41-19.83,9.28-17.87,23.92-29.45,39.17-31,1.7-.17,20.32.33,24.58,4.16a3,3,0,0,1,1.12,2.27C1719.47,447,1720.28,594.56,1718.86,635.73Z"/><path class="cls-5" d="M778,691l-37,9v7l9,6h28l5,26,12,8h41l7-10s12-29,0-50l-4-5-47-2Z"/><path class="cls-5" d="M623,858l24-33,20.78-22.52a4.74,4.74,0,0,1,6.7-.26h0v18.67L666,837l34-10,35,22v7l3,6-8,28-11,3-34-4-12,13-38.92,4.72S618,886,623,858Z"/><circle class="cls-4" cx="1570.94" cy="1134.65" r="71.88"/><path class="cls-3" d="M1711,1130.82a142.74,142.74,0,0,1-142.75,142.72V1126H1711C1711,1127.62,1711,1129.21,1711,1130.82Z"/><path class="cls-7" d="M1549,1253.61a2.5,2.5,0,0,1-2.5-2.5V1103.6a2.5,2.5,0,0,1,2.5-2.5h142.67a2.49,2.49,0,0,1,2.49,2.4c.06,1.47.09,3,.09,4.88C1694.23,1188.46,1629.07,1253.61,1549,1253.61Zm2.5-147.51v142.49c76.18-1.34,137.75-63.72,137.75-140.21,0-.82,0-1.57,0-2.28Z"/><path class="cls-5" d="M687,580l22,65s22,38-11,47-57,6-74-14-21-40-21-40l17-85Z"/><path class="cls-5" d="M609,501s-8-9-22,1,0,40,29,32Z"/><path class="cls-5" d="M733,454s26,19-10,144c0,0-40,7-64,1s-51-123-51-123,21-49,23-48S733,454,733,454Z"/><path class="cls-5" d="M1806,693s-9,68-24,83c-17.46,17.46-83,51-92,0s45-85,45-85l-1.73-13L1726,623l43.61-15.47L1788,601Z"/><path class="cls-3" d="M1733.25,677.94,1726,623l43.61-15.47,12-1.7S1785.33,662.17,1733.25,677.94Z"/><path class="cls-5" d="M1719,474s-66,49-26,132c0,0,25,52,91,12s0-135,0-135S1710,431,1719,474Z"/><path class="cls-4" d="M1717.86,457s-.88,43,58.12,53c0,0,29,14,42,39s38-17,38-17-54-102-57-102S1717.86,457,1717.86,457Z"/><rect class="cls-1" x="1790.09" y="541.15" width="30.57" height="3" transform="matrix(0.97, -0.26, 0.26, 0.97, -79.09, 491.37)"/><path class="cls-5" d="M1809,549s5-17,23-12,16,28,11,33-14,15-35,2S1809,549,1809,549Z"/><rect class="cls-6" x="1182.62" y="617.93" width="68.52" height="24.13" transform="translate(2433.75 1259.98) rotate(180)"/><path class="cls-6" d="M1182.13,617.44h69.48v25.09h-69.48Zm68.52,1H1183.1v23.16h67.55Z"/><rect class="cls-7" x="1096.73" y="617.93" width="68.52" height="24.13" transform="translate(2261.98 1259.98) rotate(180)"/><rect class="cls-6" x="2174.84" y="1343.36" width="68.52" height="24.13" transform="translate(4418.2 2710.85) rotate(180)"/><path class="cls-6" d="M2174.36,1342.88h69.48V1368h-69.48Zm68.51,1h-67.55V1367h67.55Z"/><rect class="cls-7" x="2088.96" y="1343.36" width="68.52" height="24.13" transform="translate(4246.43 2710.85) rotate(180)"/><path class="cls-7" d="M336.6,505.91a11.53,11.53,0,0,1,6,1.35,18.6,18.6,0,0,1,4.68,3.92c1.32,1.46,2.53,2.94,3.85,4.13a10,10,0,0,0,4.26,2.46l1.16.22,1.2,0a5.92,5.92,0,0,0,1.19-.11,4.2,4.2,0,0,0,1.14-.24,8.27,8.27,0,0,0,3.87-2.43,44.12,44.12,0,0,0,3.35-4.28,23.88,23.88,0,0,1,4.38-4.82c.49-.35,1-.71,1.51-1l1.69-.83a14.25,14.25,0,0,1,3.63-.84l.92-.09c.31,0,.61,0,.92,0a16.45,16.45,0,0,1,1.85.14c.63.12,1.26.27,1.88.42s1.2.46,1.8.71a18.64,18.64,0,0,1,5.57,4.36c1.45,1.56,2.64,3.06,3.8,4.22a8.28,8.28,0,0,0,3.29,2.27,2.75,2.75,0,0,0,.82.21l.41.1h.46c.31,0,.62.05.92,0l.91-.12a6.21,6.21,0,0,0,3-1.6,26,26,0,0,0,3.1-3.71,30.42,30.42,0,0,1,4.44-5.11,12.33,12.33,0,0,1,1.6-1.25l.86-.59,1-.49a10.38,10.38,0,0,1,2-.83,16.2,16.2,0,0,1,2.1-.54c.69-.1,1.38-.18,2.08-.24a18.4,18.4,0,0,1,2.1,0c.36,0,.71,0,1.06.08l1.09.23a10.48,10.48,0,0,1,2.14.61,18.58,18.58,0,0,1,6.77,4.6c1.62,1.71,2.86,3.26,3.94,4.42a9.42,9.42,0,0,0,2.64,2.23c.18,0,.33.16.51.23a1.8,1.8,0,0,1,.55.15c.19,0,.45,0,.67.07a2.21,2.21,0,0,0,.68,0,4,4,0,0,0,2.4-.65,15.23,15.23,0,0,0,3.15-2.88,48.06,48.06,0,0,1,4.59-4.66c.52-.41,1-.8,1.57-1.19s1.2-.71,1.81-1a20.33,20.33,0,0,1,2-.8,13.26,13.26,0,0,1,2.07-.49,9.64,9.64,0,0,1,2.05-.18,11.23,11.23,0,0,1,2,.07c.66.09,1.32.2,2,.32s1.32.41,2,.63a14.66,14.66,0,0,1,6,4.62,42.17,42.17,0,0,1,3.33,5.15,17.59,17.59,0,0,0,3.06,4.14,10.17,10.17,0,0,0,4.59,2.42v1.16a11.81,11.81,0,0,1-3.16.17l-.83-.08-.8-.21a8.6,8.6,0,0,1-1.6-.54,19.61,19.61,0,0,1-5.35-3.71c-1.49-1.38-2.83-2.73-4.12-3.69a7.66,7.66,0,0,0-3.59-1.63c-.29,0-.57,0-.85-.07l-.91.09a3.8,3.8,0,0,0-.88.17,2.2,2.2,0,0,0-.8.24,6.08,6.08,0,0,0-2.55,2c-.87,1-1.83,2.4-3,4.06a26.08,26.08,0,0,1-4.91,5.36c-.6.42-1.19.85-1.83,1.23s-1.38.68-2.08,1a16.75,16.75,0,0,1-4.41,1l-1.1.09c-.36,0-.73,0-1.1,0a20.74,20.74,0,0,1-2.2-.22q-1.14-.24-2.25-.57a21.21,21.21,0,0,1-2.14-.92,20.24,20.24,0,0,1-6.13-5.19c-1.43-1.76-2.47-3.33-3.43-4.49a8.06,8.06,0,0,0-2.42-2.26,2,2,0,0,0-.6-.27l-.31-.13a2.32,2.32,0,0,0-.38-.06,6.68,6.68,0,0,0-.78-.13c-.26,0-.52,0-.79,0a5.24,5.24,0,0,0-2.84,1,21.48,21.48,0,0,0-3.36,3.39,33.22,33.22,0,0,1-4.7,4.8,15,15,0,0,1-7.4,3.15l-2,.11a18.46,18.46,0,0,1-2-.16c-.32,0-.65-.06-1-.13l-1-.26a9.93,9.93,0,0,1-1.92-.67,16.34,16.34,0,0,1-5.91-4.58c-1.42-1.71-2.5-3.34-3.57-4.69a12.28,12.28,0,0,0-3.18-3.07c-.29-.13-.56-.31-.85-.44s-.62-.18-.93-.3-.68-.09-1-.15a4.34,4.34,0,0,0-.52-.07l-.52,0a6.63,6.63,0,0,0-3.89,1.14,18.61,18.61,0,0,0-3.68,3.43,46.47,46.47,0,0,1-4.23,4.44,12.76,12.76,0,0,1-6.14,3.06,7.73,7.73,0,0,1-1.71.19,9.65,9.65,0,0,1-1.7,0l-1.67-.21c-.55-.15-1.1-.32-1.65-.49a13.47,13.47,0,0,1-5.32-3.78c-1.39-1.55-2.47-3.19-3.59-4.71a16.53,16.53,0,0,0-3.73-3.94,9.94,9.94,0,0,0-5-1.73Z"/><path class="cls-4" d="M484.63,563a11.55,11.55,0,0,1-6-1.35,18.55,18.55,0,0,1-4.67-3.92c-1.33-1.46-2.54-2.93-3.86-4.13a9.88,9.88,0,0,0-4.26-2.46l-1.15-.22-1.21,0a6.75,6.75,0,0,0-1.19.11,4.28,4.28,0,0,0-1.14.24,8.19,8.19,0,0,0-3.86,2.43A42.63,42.63,0,0,0,454,558a24.12,24.12,0,0,1-4.37,4.82c-.5.35-1,.71-1.51,1l-1.7.83a14.06,14.06,0,0,1-3.63.84l-.92.1c-.3,0-.61,0-.92,0-.61,0-1.23,0-1.85-.13s-1.25-.27-1.88-.43-1.2-.46-1.8-.71a18.77,18.77,0,0,1-5.57-4.35c-1.45-1.57-2.64-3.07-3.8-4.23a8.43,8.43,0,0,0-3.28-2.27,2.89,2.89,0,0,0-.83-.21l-.41-.09c-.15,0-.31,0-.46,0-.31,0-.62,0-.92,0s-.6.09-.91.12a6.21,6.21,0,0,0-3,1.6,25.87,25.87,0,0,0-3.09,3.71,31,31,0,0,1-4.45,5.12A12.88,12.88,0,0,1,407.1,565l-.87.59-1,.49a10.11,10.11,0,0,1-2,.83,13.39,13.39,0,0,1-2.09.54c-.69.1-1.39.18-2.09.25s-1.4,0-2.1,0c-.36,0-.7,0-1.06-.08l-1.09-.22a11.61,11.61,0,0,1-2.14-.62,18.67,18.67,0,0,1-6.77-4.6c-1.62-1.7-2.85-3.26-3.94-4.42a9.56,9.56,0,0,0-2.63-2.23c-.18-.05-.34-.16-.51-.22a2.48,2.48,0,0,1-.55-.15c-.2-.05-.45,0-.67-.07a2,2,0,0,0-.69,0,4.05,4.05,0,0,0-2.4.65,15.34,15.34,0,0,0-3.15,2.89,49,49,0,0,1-4.58,4.65c-.52.41-1,.81-1.58,1.19s-1.2.72-1.81,1-1.32.56-2,.81a14.92,14.92,0,0,1-2.08.48,9.64,9.64,0,0,1-2.05.18,11.12,11.12,0,0,1-2-.07c-.67-.09-1.32-.2-2-.31s-1.32-.42-2-.64a14.64,14.64,0,0,1-6-4.62A42.89,42.89,0,0,1,342,556.1a17.42,17.42,0,0,0-3-4.15,10.16,10.16,0,0,0-4.6-2.42v-1.16a11.89,11.89,0,0,1,3.17-.16l.82.07.81.21a8.76,8.76,0,0,1,1.59.54,19.61,19.61,0,0,1,5.35,3.71c1.49,1.38,2.83,2.73,4.12,3.69a7.66,7.66,0,0,0,3.59,1.63c.29,0,.57,0,.85.07l.91-.09a4.4,4.4,0,0,0,.88-.16,2.42,2.42,0,0,0,.8-.25,6.22,6.22,0,0,0,2.56-2c.87-1,1.82-2.41,3-4.07a26.08,26.08,0,0,1,4.91-5.36c.6-.42,1.19-.84,1.83-1.23s1.38-.68,2.09-1a16.27,16.27,0,0,1,4.4-1l1.1-.1c.37,0,.73,0,1.1,0a20.48,20.48,0,0,1,2.2.22c.76.17,1.51.35,2.25.57a21.21,21.21,0,0,1,2.14.92,20,20,0,0,1,6.13,5.2c1.44,1.75,2.47,3.32,3.43,4.48a8.18,8.18,0,0,0,2.42,2.26,2,2,0,0,0,.6.27l.31.14c.12,0,.26,0,.38.06s.52.12.78.12h.8a5.15,5.15,0,0,0,2.83-1,21.06,21.06,0,0,0,3.36-3.39,33.22,33.22,0,0,1,4.7-4.8,15,15,0,0,1,7.4-3.14c.66,0,1.32-.09,2-.11a16.16,16.16,0,0,1,2,.15c.33,0,.65.07,1,.13l1,.26a9.13,9.13,0,0,1,1.92.68,16.32,16.32,0,0,1,5.91,4.57c1.42,1.71,2.5,3.34,3.57,4.69a12.31,12.31,0,0,0,3.19,3.07c.28.13.55.31.85.44s.61.19.92.3.68.09,1,.15a4.34,4.34,0,0,0,.52.07l.52,0a6.63,6.63,0,0,0,3.89-1.14,18.61,18.61,0,0,0,3.68-3.43,47.76,47.76,0,0,1,4.23-4.44,12.75,12.75,0,0,1,6.15-3.06A7.64,7.64,0,0,1,462,547a9.65,9.65,0,0,1,1.7,0l1.67.22c.56.14,1.11.32,1.65.48a13.44,13.44,0,0,1,5.33,3.78c1.38,1.55,2.47,3.19,3.58,4.71a16.53,16.53,0,0,0,3.73,3.94,9.94,9.94,0,0,0,5,1.73Z"/><path class="cls-7" d="M1960.62,336.21a11.52,11.52,0,0,1,6,1.35,18.42,18.42,0,0,1,4.68,3.92c1.32,1.46,2.54,2.94,3.86,4.13a9.9,9.9,0,0,0,4.25,2.46l1.16.22,1.21,0a6,6,0,0,0,1.19-.11,4.28,4.28,0,0,0,1.14-.24,8.19,8.19,0,0,0,3.86-2.43,42.62,42.62,0,0,0,3.35-4.28,24.49,24.49,0,0,1,4.38-4.82c.5-.35,1-.71,1.51-1s1.12-.56,1.7-.83a14.06,14.06,0,0,1,3.63-.84l.91-.1c.31,0,.62,0,.92,0a16.63,16.63,0,0,1,1.86.14c.62.12,1.25.27,1.88.42s1.2.46,1.8.71a18.9,18.9,0,0,1,5.57,4.35c1.45,1.57,2.64,3.07,3.8,4.23a8.33,8.33,0,0,0,3.28,2.27,2.91,2.91,0,0,0,.82.21l.42.1h.46c.31,0,.61.05.92,0l.9-.12a6.17,6.17,0,0,0,3-1.6,24.7,24.7,0,0,0,3.1-3.71,30.42,30.42,0,0,1,4.44-5.11,13,13,0,0,1,1.6-1.25l.86-.59,1-.49a10.64,10.64,0,0,1,2-.83,16.2,16.2,0,0,1,2.1-.54c.69-.1,1.39-.18,2.09-.24a18.43,18.43,0,0,1,2.1,0c.35,0,.7,0,1.06.08l1.09.23a10.85,10.85,0,0,1,2.14.61,18.75,18.75,0,0,1,6.77,4.6c1.62,1.71,2.85,3.26,3.93,4.42a9.57,9.57,0,0,0,2.64,2.23c.18.05.33.16.51.23a2.12,2.12,0,0,1,.55.14c.2.05.45,0,.67.07a2,2,0,0,0,.69,0,3.93,3.93,0,0,0,2.39-.65,15,15,0,0,0,3.15-2.88,49.25,49.25,0,0,1,4.59-4.66c.52-.41,1-.8,1.57-1.19s1.21-.71,1.81-1.05a20.33,20.33,0,0,1,2-.8,13.65,13.65,0,0,1,2.08-.49,9.59,9.59,0,0,1,2-.18,11.12,11.12,0,0,1,2,.07c.66.09,1.32.2,2,.32s1.31.41,1.95.63a14.69,14.69,0,0,1,6,4.62,43.24,43.24,0,0,1,3.32,5.15,17.59,17.59,0,0,0,3.06,4.14,10.16,10.16,0,0,0,4.6,2.42v1.16a12.31,12.31,0,0,1-3.17.17l-.83-.08-.8-.21a8.86,8.86,0,0,1-1.6-.54,19.61,19.61,0,0,1-5.35-3.71,54.65,54.65,0,0,0-4.12-3.69,7.64,7.64,0,0,0-3.58-1.63c-.3,0-.57,0-.85-.07l-.92.09a4.3,4.3,0,0,0-.87.16,2.42,2.42,0,0,0-.8.25,6.17,6.17,0,0,0-2.56,2c-.87,1-1.83,2.4-3,4.06a26.37,26.37,0,0,1-4.91,5.36c-.6.42-1.2.85-1.84,1.23s-1.37.68-2.08,1a16.75,16.75,0,0,1-4.41,1l-1.09.09c-.37,0-.74,0-1.1,0a20.93,20.93,0,0,1-2.21-.22c-.75-.16-1.51-.35-2.25-.57a22.24,22.24,0,0,1-2.14-.92,20.37,20.37,0,0,1-6.13-5.19c-1.43-1.76-2.47-3.33-3.42-4.49a8.18,8.18,0,0,0-2.42-2.26,2.17,2.17,0,0,0-.6-.27l-.32-.13a2.2,2.2,0,0,0-.37-.06,7,7,0,0,0-.78-.13c-.27,0-.53,0-.8,0a5.21,5.21,0,0,0-2.83,1,21.48,21.48,0,0,0-3.36,3.39,32.81,32.81,0,0,1-4.71,4.8,15.09,15.09,0,0,1-7.39,3.15l-2,.11a18.28,18.28,0,0,1-2-.16c-.33,0-.65-.06-1-.13l-1-.26a10.17,10.17,0,0,1-1.92-.67,16.39,16.39,0,0,1-5.9-4.58c-1.42-1.71-2.5-3.34-3.57-4.69a12.46,12.46,0,0,0-3.19-3.07c-.29-.13-.56-.31-.85-.44s-.61-.19-.92-.3-.68-.09-1-.15a4.63,4.63,0,0,0-.52-.07l-.53,0a6.62,6.62,0,0,0-3.88,1.14,18.92,18.92,0,0,0-3.69,3.43,46.3,46.3,0,0,1-4.22,4.44,12.8,12.8,0,0,1-6.15,3.06,7.66,7.66,0,0,1-1.71.19,9.53,9.53,0,0,1-1.69,0l-1.68-.21c-.55-.15-1.1-.32-1.64-.49a13.44,13.44,0,0,1-5.33-3.78c-1.39-1.55-2.47-3.19-3.59-4.71a16.3,16.3,0,0,0-3.72-3.94,10,10,0,0,0-5-1.73Z"/><path class="cls-4" d="M2108.65,393.34a11.53,11.53,0,0,1-6-1.35,18.42,18.42,0,0,1-4.68-3.92c-1.32-1.46-2.54-2.93-3.86-4.13a9.9,9.9,0,0,0-4.25-2.46l-1.16-.22-1.21,0a6.64,6.64,0,0,0-1.18.11,4.36,4.36,0,0,0-1.15.24,8.24,8.24,0,0,0-3.86,2.43,44.12,44.12,0,0,0-3.35,4.28,23.88,23.88,0,0,1-4.38,4.82c-.5.35-1,.71-1.51,1l-1.69.83a14.25,14.25,0,0,1-3.63.84l-.92.1c-.31,0-.62,0-.92,0-.62,0-1.23,0-1.86-.13s-1.25-.27-1.87-.43-1.21-.46-1.8-.71a18.82,18.82,0,0,1-5.58-4.35c-1.45-1.57-2.64-3.07-3.8-4.23a8.29,8.29,0,0,0-3.28-2.27,2.91,2.91,0,0,0-.82-.21l-.42-.09a3.45,3.45,0,0,0-.46,0c-.31,0-.61-.05-.92,0s-.6.09-.9.12a6.17,6.17,0,0,0-3,1.6,25.86,25.86,0,0,0-3.1,3.71,30.84,30.84,0,0,1-4.44,5.12,13,13,0,0,1-1.6,1.24l-.86.59-1,.49a10,10,0,0,1-2,.83,13.51,13.51,0,0,1-2.1.54c-.69.1-1.39.18-2.08.25s-1.4,0-2.11,0c-.35,0-.7,0-1.06-.08l-1.08-.22a11.18,11.18,0,0,1-2.14-.62,18.58,18.58,0,0,1-6.77-4.6c-1.63-1.7-2.86-3.26-3.94-4.42a9.57,9.57,0,0,0-2.64-2.23c-.18-.05-.33-.16-.51-.22a2.64,2.64,0,0,1-.55-.15c-.2-.05-.45,0-.67-.07a2,2,0,0,0-.69,0,4,4,0,0,0-2.39.65,15.09,15.09,0,0,0-3.15,2.89,50.49,50.49,0,0,1-4.59,4.65c-.52.41-1,.81-1.57,1.19s-1.21.72-1.81,1a20.33,20.33,0,0,1-2,.8,13.53,13.53,0,0,1-2.07.49,9.7,9.7,0,0,1-2,.18,11.2,11.2,0,0,1-2-.07c-.66-.09-1.32-.2-2-.31s-1.31-.42-2-.64a14.68,14.68,0,0,1-6-4.62,44,44,0,0,1-3.32-5.14,17.45,17.45,0,0,0-3.06-4.15,10.17,10.17,0,0,0-4.59-2.42v-1.16a12.24,12.24,0,0,1,3.16-.17l.83.08.8.21a8.86,8.86,0,0,1,1.6.54,19.61,19.61,0,0,1,5.35,3.71c1.49,1.38,2.83,2.73,4.12,3.69a7.64,7.64,0,0,0,3.58,1.63c.3,0,.57,0,.85.07l.92-.09a4.18,4.18,0,0,0,.87-.16,2.42,2.42,0,0,0,.8-.25,6.22,6.22,0,0,0,2.56-1.95c.87-1,1.83-2.41,3-4.07a26,26,0,0,1,4.9-5.36c.6-.42,1.2-.84,1.84-1.23s1.38-.68,2.08-1a16.34,16.34,0,0,1,4.41-1l1.1-.1c.36,0,.73,0,1.09,0a20.93,20.93,0,0,1,2.21.22c.75.17,1.51.35,2.25.57a22.24,22.24,0,0,1,2.14.92,20.24,20.24,0,0,1,6.13,5.19c1.43,1.76,2.47,3.33,3.43,4.49a8,8,0,0,0,2.41,2.26,2.17,2.17,0,0,0,.6.27l.32.14c.11,0,.25,0,.38.06s.51.12.77.12h.8a5.16,5.16,0,0,0,2.84-1,21.91,21.91,0,0,0,3.36-3.39,32.7,32.7,0,0,1,4.7-4.8,15,15,0,0,1,7.4-3.14c.65-.05,1.31-.09,2-.11a16,16,0,0,1,2,.15c.33,0,.65.07,1,.13l1,.26a9.54,9.54,0,0,1,1.92.68,16.28,16.28,0,0,1,5.9,4.57c1.43,1.71,2.5,3.34,3.57,4.69a12.46,12.46,0,0,0,3.19,3.07c.29.13.56.31.85.44s.62.19.92.3.68.09,1,.15a5,5,0,0,0,.52.07l.53,0a6.67,6.67,0,0,0,3.89-1.14,19.18,19.18,0,0,0,3.68-3.43,46.3,46.3,0,0,1,4.22-4.44,12.8,12.8,0,0,1,6.15-3.06,7.66,7.66,0,0,1,1.71-.19,9.53,9.53,0,0,1,1.69,0l1.68.22c.55.14,1.1.32,1.64.48a13.44,13.44,0,0,1,5.33,3.78c1.39,1.55,2.47,3.19,3.59,4.71a16.14,16.14,0,0,0,3.73,3.94,9.91,9.91,0,0,0,5,1.73Z"/><rect class="cls-6" x="1726.01" y="227.24" width="30.02" height="30.02" transform="translate(681.24 -1160.14) rotate(45)"/><rect class="cls-6" x="261.48" y="934.05" width="30.02" height="30.02" transform="translate(752.07 82.46) rotate(45)"/><rect class="cls-6" x="2173.44" y="984.33" width="30.02" height="30.02" transform="translate(1347.63 -1254.77) rotate(45)"/><path class="cls-1" d="M499.68,661.16l-3.09,1.26A15.5,15.5,0,1,1,471.77,678c-.76,1-1.51,1.93-2.25,2.92a18.5,18.5,0,1,0,30.16-19.78Z"/><path class="cls-1" d="M590.52,759.71a18.5,18.5,0,1,1,18.5-18.5A18.52,18.52,0,0,1,590.52,759.71Zm0-34a15.5,15.5,0,1,0,15.5,15.5A15.52,15.52,0,0,0,590.52,725.71Z"/><path class="cls-1" d="M471.35,804.6a18.5,18.5,0,1,1,18.5-18.5A18.52,18.52,0,0,1,471.35,804.6Zm0-34a15.5,15.5,0,1,0,15.5,15.5A15.51,15.51,0,0,0,471.35,770.6Z"/><path class="cls-1" d="M390.78,849.61c-.32,1-.64,1.9-.95,2.84a15.5,15.5,0,0,1-5,30.16,15.18,15.18,0,0,1-4.29-.61l-.87,2.88a18.51,18.51,0,0,0,23.66-17.77A18.5,18.5,0,0,0,390.78,849.61Z"/><path class="cls-1" d="M468.35,944.41a18.5,18.5,0,1,1,18.5-18.5A18.52,18.52,0,0,1,468.35,944.41Zm0-34a15.5,15.5,0,1,0,15.5,15.5A15.51,15.51,0,0,0,468.35,910.41Z"/><path class="cls-1" d="M572,878.13a18.5,18.5,0,1,1,18.5-18.5A18.52,18.52,0,0,1,572,878.13Zm0-34a15.5,15.5,0,1,0,15.5,15.5A15.52,15.52,0,0,0,572,844.13Z"/><path class="cls-1" d="M525.09,1046.6a18.33,18.33,0,0,0-11.24,3.82c.27,1.06.56,2.13.85,3.2a15.49,15.49,0,1,1,15.64,26.06c1.1.62,2.2,1.23,3.3,1.81a18.49,18.49,0,0,0-8.55-34.89Z"/><path class="cls-1" d="M820.48,1077a18.36,18.36,0,0,0,1.91,8.17l2.87-1a15.51,15.51,0,0,1,12.86-22.7c.13-1,.24-2,.35-3A18.52,18.52,0,0,0,820.48,1077Z"/><path class="cls-1" d="M616,1017.84a18.5,18.5,0,1,1,18.5-18.5A18.52,18.52,0,0,1,616,1017.84Zm0-34a15.5,15.5,0,1,0,15.5,15.5A15.51,15.51,0,0,0,616,983.84Z"/><path class="cls-1" d="M691.28,1116.21a18.5,18.5,0,1,1,18.5-18.5A18.52,18.52,0,0,1,691.28,1116.21Zm0-34a15.5,15.5,0,1,0,15.5,15.5A15.53,15.53,0,0,0,691.28,1082.21Z"/><path class="cls-1" d="M779.32,1016.28a18.5,18.5,0,1,1,18.5-18.5A18.52,18.52,0,0,1,779.32,1016.28Zm0-34a15.5,15.5,0,1,0,15.5,15.5A15.52,15.52,0,0,0,779.32,982.28Z"/><path class="cls-1" d="M927.5,858.09a15.5,15.5,0,1,1-7.13-29.26c.54,0,1.07,0,1.6.08-.4-1-.81-2-1.26-3.07h-.34a18.5,18.5,0,1,0,7.1,35.58c0-.88,0-1.75,0-2.62C927.51,858.56,927.51,858.32,927.5,858.09Z"/><rect class="cls-4" x="1128.98" y="806.99" width="146" height="270"/><circle class="cls-4" cx="1237.25" cy="1175.99" r="58"/><circle class="cls-6" cx="1233.98" cy="780.99" r="23"/><rect class="cls-6" x="1368.98" y="1031.99" width="61" height="407"/><path class="cls-3" d="M1741,586.49h-20a1.51,1.51,0,0,1-1.2-.6,1.53,1.53,0,0,1-.25-1.31l9-32.1,2.89.81-8.5,30.2h18Z"/><path class="cls-3" d="M624,476l18,77s57.82-46.48,91.91,2.26a141.81,141.81,0,0,1-9.44,41.94,11.12,11.12,0,0,1-8.87,6.91c-9.94,1.34-31.12,2.8-61.12-2.54C611.78,594,602.53,481.4,602.53,481.4Z"/><path class="cls-3" d="M614.33,492.19S648.11,470.6,631,439.06c0,0,6.31-12.57,35.12,7.75s52.88,30.71,108.43,7.47L685,405.85l-58.4,13.85-24,29.32s-7.85,28.85-3.92,30.61S614.33,492.19,614.33,492.19Z"/><path class="cls-1" d="M1694.23,576.15a29.5,29.5,0,1,1,29.5-29.5A29.54,29.54,0,0,1,1694.23,576.15Zm0-56a26.5,26.5,0,1,0,26.5,26.5A26.53,26.53,0,0,0,1694.23,520.15Z"/><path class="cls-1" d="M1762.63,576.15a29.5,29.5,0,1,1,29.5-29.5A29.54,29.54,0,0,1,1762.63,576.15Zm0-56a26.5,26.5,0,1,0,26.5,26.5A26.53,26.53,0,0,0,1762.63,520.15Z"/><rect class="cls-1" x="1722.23" y="545.15" width="12.4" height="3"/><rect class="cls-1" x="1791.7" y="542.11" width="3" height="7.31" transform="translate(-27.61 100.73) rotate(-3.19)"/><path class="cls-3" d="M1750,917.78c-2.58,0-5-.14-7.19-.36-16-1.62-25.69-8-26.1-8.25l2.22-3.33c.1.06,9.39,6.14,24.5,7.62,14,1.36,35.88-1,61.15-20.16l2.41,3.19C1784.59,913.47,1764.56,917.78,1750,917.78Z"/><path class="cls-4" d="M1031.71,1441.43V1133.37H723.65v308.06ZM877.69,1199a88.8,88.8,0,1,1-88.8,88.8A88.55,88.55,0,0,1,877.69,1199Z"/><path class="cls-6" d="M723.65,1441.43V1133.37h308.06l-91.44,91.43A88.8,88.8,0,0,0,814.7,1350.38Z"/><path class="cls-3" d="M698,1319.49h-3V1108.58a1.5,1.5,0,0,1,1.5-1.5h308.06a1.5,1.5,0,0,1,1.06,2.56l-52.83,52.83-2.12-2.13,50.27-50.26H698Z"/><path class="cls-3" d="M742.55,1372.69l-2.12-2.12,45-45a90.32,90.32,0,0,1,95.89-147.48l-1,2.82a87.31,87.31,0,0,0-91.7,143.62,1.48,1.48,0,0,1,0,2.11Z"/><rect class="cls-3" x="1274.98" y="874.57" width="157.92" height="157.92"/><polygon class="cls-6" points="1274.98 874.57 1432.9 1032.49 1432.9 874.57 1274.98 874.57"/><rect class="cls-6" x="1725.5" y="1361.64" width="293.29" height="80.02"/><ellipse class="cls-6" cx="1725.5" cy="1401.65" rx="18.63" ry="40.01"/><rect class="cls-7" x="1770.21" y="1281.61" width="114.22" height="80.02"/><ellipse class="cls-7" cx="1770.21" cy="1321.62" rx="18.63" ry="40.01"/><polygon class="cls-4" points="1311.03 874.57 1458.61 874.57 1382.11 660.03 1311.03 874.57"/><path class="cls-3" d="M1412.45,834.84H1311a1.5,1.5,0,0,1-1.43-2l71.09-214.54a1.5,1.5,0,0,1,1.41-1h0a1.52,1.52,0,0,1,1.42,1l65.4,183.42-2.83,1-63.94-179.31L1313.1,831.84h99.35Z"/><circle class="cls-3" cx="1051.15" cy="498.46" r="37.82" transform="translate(390.75 1456.2) rotate(-80.78)"/><circle class="cls-3" cx="1435.17" cy="480.18" r="37.82" transform="translate(-74.51 585.77) rotate(-22.5)"/><circle class="cls-3" cx="1435.17" cy="348.4" r="16.38"/><rect class="cls-6" x="920.36" y="488.36" width="261.57" height="74.62"/><polygon class="cls-4" points="920.36 562.99 1038.13 488.36 920.36 488.36 920.36 562.99"/><path class="cls-4" d="M1722.91,444.69c2-22.6,23.19-38.84,45.13-39a1.5,1.5,0,0,0,0-3c-23.69.19-46,17.78-48.13,42-.17,1.93,2.83,1.91,3,0Z"/><path class="cls-4" d="M1718.77,454.19c-3.64,9.48-2.54,21.54.17,31.16,2.51,8.93,7.65,16.79,15.6,21.73,1.65,1,3.16-1.58,1.52-2.59-7.87-4.88-12.54-12.82-14.68-21.69-2.09-8.62-3-19.39.29-27.82.69-1.8-2.21-2.58-2.9-.79Z"/><path class="cls-7" d="M436.53,1264.25c6.73-67.4-57.32-71.75-57.32-71.75C350,1260.57,436.53,1264.25,436.53,1264.25Z"/><path class="cls-7" d="M368.72,1251.18c-10.1-10.42-13.19-25.81-9.21-45.74l.18-.89.9-.13c1.13-.16,28-3.72,49.08,12.67,13.15,10.26,21,26,23.25,46.85l.13,1.21-1.19.19a113.19,113.19,0,0,1-23.76.91c-15.12-1-27.42-5.09-35.92-11.92A36,36,0,0,1,368.72,1251.18Zm39.4-32c-18.09-14.1-41.44-12.73-46.28-12.27-3.53,18.6-.6,32.91,8.71,42.53,17.53,18.11,52.74,14.52,59.69,13.6C427.89,1243.49,420.49,1228.74,408.12,1219.13Z"/><path class="cls-7" d="M2101.1,1240.07c-14.11,92.31-93.29,84.93-93.29,84.93C1994.91,1227.14,2101.1,1240.07,2101.1,1240.07Z"/><path class="cls-7" d="M2015.86,1126.12c42.79,46.17,5.68,84.85,5.68,84.85C1964.49,1176.73,2015.86,1126.12,2015.86,1126.12Z"/><path class="cls-3" d="M2068.06,1288a83.09,83.09,0,0,1-19.18,20.4,92.43,92.43,0,0,1-39.71,17.47l-2,.27-.71-1.9c-10-26.76-9.43-49.55,1.79-67.72.32-.52.66-1,1-1.56,21.3-32.26,69-37.7,71.06-37.92l2.6-.28.2,2.62C2084.64,1239.78,2082.64,1266,2068.06,1288Zm-57.58,32.47a90.75,90.75,0,0,0,35.5-16.24c23.54-18,34.38-45.49,32.23-81.76-10.2,1.62-47.5,9.2-64.75,35.32-.31.47-.61.94-.91,1.42C2002.49,1275.56,2001.79,1296.16,2010.48,1320.5Z"/><path class="cls-3" d="M2002.28,1212.7l-1.93-.62c-18.58-6-30.53-16.06-35.5-29.86-9.18-25.45,8.71-54.1,9.47-55.3l1.4-2.22,2.17,1.47c53.47,36.26,25.72,84.31,25.43,84.79Zm-25-80.76c-3.89,7.11-14.58,29.38-7.65,48.58,4.25,11.74,14.43,20.5,30.29,26C2004.19,1198.05,2018.87,1161.74,1977.28,1131.94Z"/><path class="cls-7" d="M489.72,1262.61c61.64,27.86,41,81.65,41,81.65C460,1334.16,489.72,1262.61,489.72,1262.61Z"/><path class="cls-7" d="M406.76,1306.81c40.56-20.84,60.3,12.59,60.3,12.59C432,1352.52,406.76,1306.81,406.76,1306.81Z"/><path class="cls-3" d="M516.73,1295a60,60,0,0,1,10.48,17.36,66.92,66.92,0,0,1,4.43,31.11l-.2,1.45-1.46.13c-20.63,1.77-36.4-3.1-46.89-14.47l-.9-1c-18.34-21.16-12.82-55.5-12.57-57l.31-1.87,1.86.37C486.3,1274,504.17,1280.54,516.73,1295Zm11.41,46.5a65.81,65.81,0,0,0-4.41-27.93c-8-19.93-25-32.86-50.74-38.45-.86,7.43-2.85,34.94,12,52.07.26.31.53.61.81.91C495.23,1338.32,509.46,1342.83,528.14,1341.52Z"/><path class="cls-3" d="M464.51,1333.18l-.81,1.22c-7.83,11.79-17.17,18.16-27.76,18.94-19.55,1.44-36-16.63-36.73-17.4l-1.27-1.41,1.45-1.23c35.73-30.22,63.83-1.48,64.11-1.18Zm-61.22,1.67c4.2,4.11,17.65,15.91,32.39,14.82,9-.67,17.12-6.06,24.09-16C454.66,1329,432.2,1311.66,403.29,1334.85Z"/><path class="cls-3" d="M473.21,1165.12c-33.94,24.9-14.47,55-14.47,55C500.53,1204.85,473.21,1165.12,473.21,1165.12Z"/><path class="cls-7" d="M419.21,1174.58a6,6,0,1,0,8.4-.92A6,6,0,0,0,419.21,1174.58Z"/><path class="cls-7" d="M323,1165.16s-8.56-26.2-43.77-20.33C279.19,1144.83,292.52,1175.34,323,1165.16Z"/><path class="cls-7" d="M280.11,1119.83s-17.79-8.54-8.09-31.54C272,1088.29,291.94,1101.08,280.11,1119.83Z"/><path class="cls-7" d="M271.82,1130.12s-5.25-10.31-19.25-3.22C252.57,1126.9,257.7,1138.61,271.82,1130.12Z"/><path class="cls-7" d="M2062,1178.9s8.53-42.36,56.68-40.27C2118.7,1138.63,2104.23,1188.61,2062,1178.9Z"/><path class="cls-7" d="M2101,1117.83s28.73-21,9.1-63.08C2110.12,1054.75,2078.42,1084.45,2101,1117.83Z"/><path class="cls-7" d="M2127,1114.34s5.88-17,25.58-8.84C2152.53,1105.5,2147,1124.69,2127,1114.34Z"/><path class="cls-7" d="M2071.78,1178.07c0-.12,0-.25,0-.37.09-.44,9.44-44,58.74-41.87a2,2,0,0,1,1.54.83,2,2,0,0,1,.3,1.72,80,80,0,0,1-12.87,24.46c-12.15,15.41-28.13,21.36-46.19,17.2A2,2,0,0,1,2071.78,1178.07Zm55.93-38.32c-17.95-.17-32.06,6.06-42,18.53a55.28,55.28,0,0,0-9.49,18.28c15.82,3,29.31-2.47,40.14-16.2A77.18,77.18,0,0,0,2127.71,1139.75Z"/><path class="cls-7" d="M2105.63,1091.37c.27-22.31,17.57-38.86,17.81-39.09a2,2,0,0,1,1.74-.5,2,2,0,0,1,1.44,1.11c20.09,43.12-9.43,65.33-9.73,65.55a2,2,0,0,1-2.84-.5C2107.77,1108.66,2105.53,1099.62,2105.63,1091.37Zm18.56-34.09a63.35,63.35,0,0,0-10.63,16.41c-6.11,14-5.23,27.49,2.6,40.15C2121.69,1108.83,2138.25,1090.25,2124.19,1057.28Z"/><path class="cls-7" d="M2136.72,1113.51a1.71,1.71,0,0,1,.11-.63,20,20,0,0,1,10-10.86c5.19-2.33,11.32-2,18.24.82a2,2,0,0,1,1.16,2.41c-.11.36-2.64,8.8-10.29,12.08-5.16,2.22-11.27,1.53-18.14-2A2,2,0,0,1,2136.72,1113.51Zm25-7.67c-5.1-1.78-9.55-1.84-13.25-.17a15.59,15.59,0,0,0-7.13,6.91c5,2.26,9.41,2.62,13,1.08C2158.45,1111.9,2160.71,1108.07,2161.72,1105.84Z"/><path class="cls-3" d="M636.6,927.64s-6.89,19.29-141.26,35.61l7.19,34.53S604.32,988.17,636.6,927.64Z"/><path class="cls-3" d="M602.63,852.71s-26.19-7.66-55.29-2.82c0,0,8.59-23.42,10.53-69.56C557.87,780.33,603.46,830.73,602.63,852.71Z"/><rect class="cls-3" x="1431.67" y="229.26" width="7" height="227.71"/><rect class="cls-3" x="1047.65" y="110.84" width="7" height="359.12"/><path class="cls-3" d="M1714.74,1024.12c-29.73,0-52.32-2.36-54.31-2.57l.65-6A561.91,561.91,0,0,0,1721,1018c30.61-.36,73.57-3.55,104.36-16.7a15.75,15.75,0,0,0,9-10.22c3.59-12.6,9.25-39.11,6.82-75.1l6-.41c2.5,36.9-3.33,64.18-7,77.15a21.71,21.71,0,0,1-12.4,14.09C1794.91,1020.83,1749.85,1024.12,1714.74,1024.12Z"/><path class="cls-1" d="M1736.3,634.51h-1.7c-23.39-.39-40.48-15.47-49.4-43.59-6.66-21-6.46-42.11-6.45-42.32l3,0c0,.21-.2,20.92,6.33,41.44,8.62,27.11,24.29,41.06,46.57,41.43h1.66c52.6,0,71.29-42.67,71.47-43.11l2.77,1.17c-.2.48-5,11.66-16.81,22.86C1783.07,622.57,1764.52,634.51,1736.3,634.51Z"/><path class="cls-1" d="M1804.23,532.73c-12.08-14.51-18.52-16.39-29.19-19.49a136.48,136.48,0,0,1-31-12.74c-35.27-19.4-25-70.31-24.9-70.82l2.93.62c-.1.49-9.9,49.24,23.42,67.57a133.74,133.74,0,0,0,30.43,12.49c10.83,3.15,18,5.24,30.65,20.45Z"/><path class="cls-1" d="M1275,978v3a59.66,59.66,0,0,0-14.37-.93c-16.51.91-31.59,9-43.71,19.92a126.29,126.29,0,0,0-16.74,18.6c-4.32,5.82-7.71,12.48-12.52,17.9-8.65,9.74-23.32,8.82-29.39-3.18-2.12-4.2-3.48-8.76-7.8-11.29-3.83-2.25-8.71-2.45-12.94-1.38a23.69,23.69,0,0,0-8.53,4.26v-3.65a27.57,27.57,0,0,1,5.06-2.63c6.74-2.64,15.53-2.27,20.92,3.06,6.69,6.62,6.43,18.11,18.22,18.69,10.32.52,15.34-10.18,20.25-17.44,9.42-13.93,21-26.85,35.47-35.64C1242.44,979.07,1259.43,975.41,1275,978Z"/><path class="cls-1" d="M1275,839.77v3.39a83.41,83.41,0,0,0-38.6-9.41c-19,0-49.82,8.1-41,33.5,6,17.26,25.77,32.2,15.39,52-9.67,18.49-34.31,21.6-53,21.24-9.17-.18-19.58-1.18-28.8-4.48v-3.32a65.93,65.93,0,0,0,11.47,3.09,105.61,105.61,0,0,0,40.86-.38c11.49-2.49,23.48-8.42,28-20.07,4.37-11.36-2.08-21.94-8.13-31.22-5-7.62-10.38-16-10.42-25.49,0-8.18,4.56-14.9,11.21-19.3,14.18-9.38,34.22-10.13,50.43-7.13A86.27,86.27,0,0,1,1275,839.77Z"/><path class="cls-1" d="M1256.39,926.68c3.46,8.66,10.63,12.56,18.59,13.29v3.21a29.48,29.48,0,0,1-3.41-.62c-8.18-2-15.43-7.53-18.31-15.6a20.57,20.57,0,0,1,5.74-22.72c4.58-4,10.17-5.78,16-6.37v3a26.67,26.67,0,0,0-11.73,3.95A17.69,17.69,0,0,0,1256.39,926.68Z"/><path class="cls-1" d="M1176.29,807c-2.15,3.31-4.08,6.7-5.83,9.82a124.86,124.86,0,0,0-7.92,17c-1.82,4.84-3.06,9.92-5.16,14.65-3.76,8.43-11.49,14.52-20.85,15.25a19.91,19.91,0,0,1-7.55-.84v-3c6.79,2.33,16-.51,20.8-5.37,6.82-6.86,8.27-18.07,12-26.73A129.08,129.08,0,0,1,1173,807Z"/><path class="cls-1" d="M1264.92,1077h-3c-.36-13.38-7.11-26.62-18.72-33.74-8.59-5.26-16.54,2.92-20,10.53-3.33,7.21-3.45,15.33-3.06,23.21h-3c-.42-9.37-.06-19,4.76-27.27,3.43-5.92,11-13.31,18.53-11.22,8,2.22,15.18,11,19,17.92A44.26,44.26,0,0,1,1264.92,1077Z"/><path class="cls-1" d="M1147.14,974c-.07,5.67-1.94,12.91-6.53,16.68-2.67,2.19-5.82,2.57-9.15,2.88-.83.08-1.65.15-2.48.21v-2.62a31.54,31.54,0,0,0,6.74-1.21c6.07-1.9,8.4-10.22,8.42-15.94,0-9.46-7.15-13.18-15.16-14.49v-2.9C1138.53,958.21,1147.27,962.75,1147.14,974Z"/><rect class="cls-3" x="1368.98" y="1031.54" width="22.27" height="407.93"/><path class="cls-3" d="M1114.74,1003.27h-3V827.71a1.5,1.5,0,0,1,1.5-1.5H1217v3H1114.74Z"/><path class="cls-3" d="M1230.25,1099.21h-117a1.5,1.5,0,0,1-1.5-1.5v-65.22h3v63.72h115.51Z"/><rect class="cls-3" x="1257.74" y="859.3" width="3" height="168.33"/><rect class="cls-1" x="900.88" y="525.93" width="149.1" height="5" transform="translate(-131.15 607.06) rotate(-32.51)"/><circle class="cls-1" cx="1435.17" cy="480.18" r="19.01" transform="translate(-74.51 585.77) rotate(-22.5)"/><circle class="cls-1" cx="1237.25" cy="1175.99" r="30.73"/><rect class="cls-1" x="1691.73" y="1387.79" width="314.66" height="13.86"/><rect class="cls-1" x="1705.01" y="1304.06" width="187.62" height="13.86"/><ellipse class="cls-3" cx="2018.79" cy="1401.65" rx="18.63" ry="40.01"/><ellipse class="cls-3" cx="1884.43" cy="1321.62" rx="18.63" ry="40.01"/><path class="cls-1" d="M642.72,918.45c-26.75-20.16-24-50.35-22.61-58.8-59.38-20-135.58,1.52-136.35,1.74l-1.39-4.8c.8-.23,80.25-22.65,141.44-1a2.5,2.5,0,0,1,1.59,3c-.34,1.39-8.18,34.37,20.33,55.86Z"/><path class="cls-1" d="M549.62,850.91l-4.57-2c14.46-32.5,13.94-99.38,13.93-100l5-.05c0,.17.16,17.28-1.51,38.25C560.22,815.32,555.9,836.81,549.62,850.91Z"/><path class="cls-1" d="M1964.89,916.26c-7.58-39,10.58-80.41,11.36-82.16l4.56,2c-.18.42-18.29,41.78-11,79.18Z"/><path class="cls-2" d="M1525.34,899c-17.39-34.39-25.33-33.06-25.4-33a1.09,1.09,0,0,0,.28-.16l-2.87-4.09a5.64,5.64,0,0,1,4.7-.53c7.42,1.85,16.76,13.81,27.75,35.55Z"/><path class="cls-3" d="M1842.44,977.06l-2.18-2.06c36.21-38.39,21.42-97.51,13.47-129.26-.4-1.6-.78-3.12-1.13-4.56-4.8-19.5-4.85-21.2-5.43-42-.31-11.14-.78-28-2.22-56.06-2.09-41-12.77-63-21.35-74.26-9.24-12.1-18.09-14.64-18.18-14.67l.78-2.9c.4.11,9.74,2.73,19.58,15.49,8.93,11.58,20,34.2,22.17,76.18,1.44,28.13,1.91,45,2.22,56.14.58,21,.62,22.23,5.34,41.42.35,1.43.73,2.95,1.13,4.54C1864.73,877.32,1879.78,937.47,1842.44,977.06Z"/><path class="cls-3" d="M1654.82,709.09,1652,708a113.07,113.07,0,0,1,21-32.46c18.66-19.91,41.34-26.47,65.6-19l-.89,2.86c-23.41-7.24-44.45-1.13-62.52,18.15A112.16,112.16,0,0,0,1654.82,709.09Z"/><rect class="cls-3" x="1055.7" y="1255.99" width="41.28" height="185.67"/><path class="cls-1" d="M749.25,1432.33a6.86,6.86,0,1,1-6.86-6.85A6.86,6.86,0,0,1,749.25,1432.33Z"/><path class="cls-1" d="M818.45,1432.33a6.85,6.85,0,1,1-6.85-6.85A6.85,6.85,0,0,1,818.45,1432.33Z"/><path class="cls-1" d="M887.66,1432.33a6.85,6.85,0,1,1-6.85-6.85A6.85,6.85,0,0,1,887.66,1432.33Z"/><path class="cls-1" d="M956.87,1432.33a6.85,6.85,0,1,1-6.85-6.85A6.85,6.85,0,0,1,956.87,1432.33Z"/><path class="cls-1" d="M1026.08,1432.33a6.86,6.86,0,1,1-6.85-6.85A6.85,6.85,0,0,1,1026.08,1432.33Z"/><path class="cls-1" d="M818.45,1373.57a6.85,6.85,0,1,1-6.85-6.85A6.85,6.85,0,0,1,818.45,1373.57Z"/><path class="cls-1" d="M887.66,1373.57a6.85,6.85,0,1,1-6.85-6.85A6.86,6.86,0,0,1,887.66,1373.57Z"/><path class="cls-1" d="M956.87,1373.57a6.85,6.85,0,1,1-6.85-6.85A6.86,6.86,0,0,1,956.87,1373.57Z"/><path class="cls-1" d="M1026.08,1373.57a6.86,6.86,0,1,1-6.85-6.85A6.86,6.86,0,0,1,1026.08,1373.57Z"/><path class="cls-1" d="M1026.08,1304.94a6.86,6.86,0,1,1-6.85-6.85A6.85,6.85,0,0,1,1026.08,1304.94Z"/><path class="cls-1" d="M887.66,1225.3a6.85,6.85,0,1,1-6.85-6.85A6.86,6.86,0,0,1,887.66,1225.3Z"/><path class="cls-1" d="M956.87,1231.3a6.85,6.85,0,1,1-6.85-6.85A6.86,6.86,0,0,1,956.87,1231.3Z"/><path class="cls-1" d="M1026.08,1231.3a6.86,6.86,0,1,1-6.85-6.85A6.86,6.86,0,0,1,1026.08,1231.3Z"/><path class="cls-1" d="M1026.08,1173.55a6.86,6.86,0,1,1-6.85-6.85A6.85,6.85,0,0,1,1026.08,1173.55Z"/><rect class="cls-3" x="304.98" y="1436.66" width="1874" height="10"/><rect class="cls-6" x="1444.51" y="1076.99" width="6" height="226.44"/><rect class="cls-6" x="656.57" y="1163.12" width="6" height="226.44"/><polygon class="cls-1" points="850.81 935.66 712.54 935.66 712.54 930.66 845.81 930.66 845.81 786.1 850.81 786.1 850.81 935.66"/><path class="cls-4" d="M530.17,648.62c1.49,1.54,3,3.12,4.49,4.62,1.31,1.3,2.75,2.43,4.71,1.84,1.81-.55,2.52-2.18,3.35-3.72l3.4-6.28c1.84-3.4-3.34-6.43-5.18-3L538.81,646c-.18.33-2.3,3.64-2.12,3.92l2.77-.32-.56-.58a11.86,11.86,0,0,0-1.4-1.44l-3.09-3.18c-2.69-2.78-6.93,1.47-4.24,4.24Z"/><path class="cls-4" d="M786.72,671.92a24.36,24.36,0,0,0,2.84-7,3,3,0,1,0-5.78-1.59,19.2,19.2,0,0,1-2.24,5.56c-2,3.32,3.19,6.34,5.18,3Z"/><path class="cls-4" d="M785.62,674.62a27.31,27.31,0,0,1,9-2.67,3.1,3.1,0,0,0,3-3c0-1.48-1.4-3.18-3-3a35.77,35.77,0,0,0-12,3.49c-3.46,1.7-.43,6.88,3,5.18Z"/><path class="cls-4" d="M400,949.08a34.29,34.29,0,0,0-8.24,8.15,3,3,0,0,0,1.08,4.11,3.06,3.06,0,0,0,4.1-1.08,25.8,25.8,0,0,1,6.08-6,3.08,3.08,0,0,0,1.08-4.11,3,3,0,0,0-4.1-1.08Z"/><path class="cls-4" d="M397.67,950.91a66.57,66.57,0,0,1-11.29-3.45c-1.51-.62-3.28.67-3.69,2.09a3.07,3.07,0,0,0,2.1,3.69,65.41,65.41,0,0,0,11.29,3.45c3.77.79,5.38-5,1.59-5.78Z"/><path class="cls-4" d="M919.09,877.09l8.43,2.34c3.73,1,5.32-4.75,1.6-5.78l-8.43-2.34c-3.73-1-5.32,4.75-1.6,5.78Z"/><path class="cls-4" d="M924.78,877.07a70,70,0,0,0,10-6.59c1.28-1,1-3.19,0-4.24a3.08,3.08,0,0,0-4.24,0,62.38,62.38,0,0,1-8.74,5.65c-3.4,1.84-.37,7,3,5.18Z"/><path class="cls-1" d="M688.63,606.85c-45.77,0-54.19-13.3-61.17-24.31-.89-1.42-1.74-2.75-2.64-4-7.34-10.22-13.58-29.67-18.53-57.82-3.67-20.86-5.24-39-5.25-39.18l3-.25c.06.71,6.28,71.91,23.23,95.5,1,1.33,1.82,2.7,2.74,4.15,7.73,12.22,17.36,27.42,85.46,21.68l.25,3C705.46,606.46,696.49,606.85,688.63,606.85Z"/><path class="cls-1" d="M721.78,469.66c-16.69,0-33.43-4.26-47.7-15.7-19.6-15.73-30.64-17.85-36.45-16.87-3.91.66-5.31,2.75-5.32,2.77l-2.55-1.59c.09-.14,2.08-3.24,7.36-4.13,6.42-1.09,18.37,1.06,38.84,17.48,35.88,28.78,88.43,10.19,113.82-5.32l1.57,2.56C775.28,458.67,748.6,469.65,721.78,469.66Z"/><rect class="cls-1" x="586.79" y="417.84" width="3" height="22.39" transform="matrix(0.57, -0.82, 0.82, 0.57, -98.93, 669.64)"/><path class="cls-3" d="M775.34,451.67c15.82-9.29,23.58-29,17.21-46.49-.65-1.8-3.55-1-2.89.8,5.92,16.26-1.1,34.44-15.83,43.1a1.5,1.5,0,0,0,1.51,2.59Z"/><path class="cls-3" d="M699.56,531.94l-1.33-2.69,17.52-8.69L703.46,495.4l2.69-1.31,13,26.5a1.5,1.5,0,0,1-.68,2Z"/><path class="cls-3" d="M1214.18,537.28H952.61a1.5,1.5,0,0,1-1.5-1.5V461.15a1.5,1.5,0,0,1,1.5-1.5h37v3H954.11v71.63h258.57V462.65h-96.87v-3h98.37a1.5,1.5,0,0,1,1.5,1.5v74.63A1.5,1.5,0,0,1,1214.18,537.28Z"/></g></g></svg>