<svg xmlns="http://www.w3.org/2000/svg" xmlns:xlink="http://www.w3.org/1999/xlink" viewBox="0 0 1160 777.64"><defs><style>.cls-1{fill:#9cdadb;}.cls-2{fill:#007391;}.cls-3{fill:#fff;}.cls-4{fill:#349fa0;}.cls-5{fill:#ffbf49;}.cls-6{fill:#ff9d00;}.cls-7{fill:#e1ffff;}.cls-8{fill:#d76855;}.cls-9{fill:#f48c7d;}.cls-10{fill:#004c5e;}.cls-11{fill:#003d47;}.cls-12{fill:#edecf2;}.cls-13{fill:#004951;}.cls-14{fill:#632f2a;}.cls-15{fill:#232927;}.cls-16{fill:url(#linear-gradient);}.cls-17{fill:#e1dfed;}.cls-18{fill:url(#linear-gradient-2);}.cls-19{fill:#c14f40;}.cls-20{fill:#a30008;}.cls-21{fill:#ca0708;}.cls-22{fill:#af0415;}.cls-23{fill:#efa701;}.cls-24{fill:url(#linear-gradient-3);}.cls-25{fill:url(#linear-gradient-4);}</style><linearGradient id="linear-gradient" x1="711.26" y1="334.8" x2="728.66" y2="323.49" gradientUnits="userSpaceOnUse"><stop offset="0" stop-color="#ff9d00"/><stop offset="1" stop-color="#ffbf49"/></linearGradient><linearGradient id="linear-gradient-2" x1="496.96" y1="332.22" x2="512.38" y2="322.19" gradientUnits="userSpaceOnUse"><stop offset="0" stop-color="#c14f40"/><stop offset="1" stop-color="#d76855"/></linearGradient><linearGradient id="linear-gradient-3" x1="989.82" y1="637.59" x2="1026.27" y2="700.45" gradientTransform="matrix(-1, 0, 0, 1, 2072.23, 0)" gradientUnits="userSpaceOnUse"><stop offset="0" stop-color="#ff7087"/><stop offset="1" stop-color="#ca0708"/></linearGradient><linearGradient id="linear-gradient-4" x1="386.95" y1="651.36" x2="317.47" y2="740.98" gradientTransform="matrix(1, 0, 0, 1, 0, 0)" xlink:href="#linear-gradient-3"/></defs><title>Asset 1</title><g id="Layer_2" data-name="Layer 2"><g id="Running"><g id="G3"><path class="cls-1" d="M268.45,428.33C398.87,386.05,505.28,287.8,652.38,298.42c122.54,8.85,192.66,80.13,200.9,83.07,44.31,15.79,202.72,5.06,306.72,68.39v53.79H439.89Z"/><path class="cls-2" d="M962.12,504.67a1,1,0,0,1-.88-1.47l111-210a1,1,0,1,1,1.76.93l-111,210A1,1,0,0,1,962.12,504.67Z"/><path class="cls-2" d="M863.45,504.67a.92.92,0,0,1-.36-.07c-12.24-4.78-41.63-33.71-46.33-50.42-1.13-4-.83-7.18.9-9.45,11.18-14.72,66.44,7,83.57,14.21-12-11.9-47-48.53-46.31-68.38a11.65,11.65,0,0,1,4.23-9c16.66-13.65,56.45,26.56,73,44.77-10.78-18.45-32.37-58.52-27.28-75.6a10.54,10.54,0,0,1,5.8-7,13.39,13.39,0,0,1,10.72,0c16.29,6.28,33.3,38.18,40.76,53.66-3.66-17.78-10.36-56.5-2.55-69.11a8.43,8.43,0,0,1,5.26-4.08c18.16-4.22,32.2,40.55,35.56,52.33,7.47-16.64,48.24-103.93,78.27-95.46a12.51,12.51,0,0,1,8.39,7.62c11,25.91-30.36,106.43-38.73,122.26,8.14-3.56,32.37-13.36,43.54-9.21a8.53,8.53,0,0,1,5.11,4.53,10.66,10.66,0,0,1,0,8.48c-4.85,12.66-29.24,25.48-38.77,30.08,12.57.63,48.83,3.66,48.83,17.85a13,13,0,0,1-4.29,9.45c-12.7,12.42-50.81,14.68-69.18,15,12.7,2.8,33.65,8.45,38.32,16a1,1,0,1,1-1.7,1.05c-6.19-10-46.41-17-46.82-17a1,1,0,0,1-.83-1.08,1,1,0,0,1,1-.9c.61,0,61.78,1.18,77.79-14.48a10.93,10.93,0,0,0,3.69-8c0-12.33-36.83-15.73-51-16a1,1,0,0,1-1-.81,1,1,0,0,1,.57-1.11c.36-.16,35.85-16,41.48-30.73a8.67,8.67,0,0,0,0-6.94,6.59,6.59,0,0,0-4-3.48c-12.47-4.62-44.37,10.21-44.69,10.35a1,1,0,0,1-1.15-.21,1,1,0,0,1-.15-1.17c.52-.95,51.57-95.81,40-123.11a10.44,10.44,0,0,0-7.09-6.47c-30.81-8.69-76.57,95.83-77,96.89a1,1,0,0,1-1.89-.14c-.15-.58-15.35-57.91-33.91-53.6a6.45,6.45,0,0,0-4,3.18c-9.61,15.52,4.62,76,4.76,76.62a1,1,0,0,1-1.89.62c-.23-.53-23.06-53.1-43.5-61a11.49,11.49,0,0,0-9.17,0,8.53,8.53,0,0,0-4.71,5.73c-6.32,21.21,32.42,82.87,32.81,83.49A1,1,0,0,1,938,436c-.58-.69-58.26-68.73-77.6-52.87a9.59,9.59,0,0,0-3.5,7.52c-.82,22.53,49.05,70.17,49.55,70.65a1,1,0,0,1,.15,1.28,1,1,0,0,1-1.24.35c-.74-.33-74.08-32.82-86.13-17-1.32,1.74-1.52,4.33-.57,7.69,4.48,15.92,33.51,44.57,45.14,49.11a1,1,0,0,1,.57,1.29A1,1,0,0,1,863.45,504.67Z"/><path class="cls-2" d="M989,453.85a1,1,0,0,1-.92-.61,1,1,0,0,1,.53-1.31l107.13-46.18a1,1,0,1,1,.79,1.84L989.38,453.76A.93.93,0,0,1,989,453.85Z"/><path class="cls-2" d="M974.8,480.68a1,1,0,0,1-1-.88,1,1,0,0,1,.86-1.12l131.32-17a1,1,0,0,1,.26,2l-131.32,17Z"/><path class="cls-2" d="M929.12,504.67a1,1,0,0,1-.47-.12L818,446.22a1,1,0,1,1,.93-1.77l110.67,58.33a1,1,0,0,1-.47,1.89Z"/><path class="cls-2" d="M970.33,489.14a1,1,0,0,1-.7-.27L859.09,383.06a1,1,0,1,1,1.39-1.45L971,487.42a1,1,0,0,1,0,1.41A1,1,0,0,1,970.33,489.14Z"/><path class="cls-2" d="M979,472.82a1,1,0,0,1-.89-.53L910.24,345.14a1,1,0,1,1,1.76-.94l67.84,127.15a1,1,0,0,1-.88,1.47Z"/><path class="cls-2" d="M995.45,441.61a1,1,0,0,1-1-.75L964.15,325.42a1,1,0,0,1,1.94-.51l30.33,115.44a1,1,0,0,1-.71,1.22A.82.82,0,0,1,995.45,441.61Z"/><path class="cls-2" d="M889.54,503.67C903.46,339.45,924.47,68.64,929.21,0h41.58c-3.29,65.16-12.85,315.62,23.08,503.67Z"/><path class="cls-2" d="M961.6,259.83C1002,257.49,1041,101.44,1043.93,0h17.26c-2.51,62.7-17.25,288.73-99.59,305.29Z"/><path class="cls-3" d="M974.14,348.41a1.24,1.24,0,0,1-.67-.19A66.93,66.93,0,0,1,946,294.62c0-9.46,1.8-21.65,3.9-35.76,3.27-22.07,7-47.09,5.2-70.89-.53-7.12-3.9-34.66-6.62-56.79-1.37-11.2-2.55-20.87-3.09-25.63-2.74-24.21,9.09-51.9,23.36-54.62l-.06,2c-11.76,2.73-24.1,27.72-21.31,52.35.53,4.74,1.72,14.41,3.09,25.61,2.71,22.15,6.09,49.71,6.62,56.88,1.79,24-1.93,49.16-5.22,71.33-2.08,14-3.87,26.16-3.87,35.47a64.89,64.89,0,0,0,26,51.47Z"/><path class="cls-3" d="M919.58,504.77a1.11,1.11,0,0,1-1.08-.91c-3.53-19.41,3.35-98.79,10.86-106.95a2.45,2.45,0,0,1,2.08-.94,6.15,6.15,0,0,1,4.25,2.7c4.84,6.39,6.27,23.64,4.83,31.7-1.84,10.29-4.77,57.19,4.59,72.73a1.1,1.1,0,0,1-1.89,1.13c-9.64-16-6.74-63.79-4.87-74.25,1.38-7.72-.05-24.22-4.42-30a4,4,0,0,0-2.7-1.84c-1.79.53-5.7,13.17-8.94,45.78-2.6,26.06-3.26,50.54-1.62,59.53a1.11,1.11,0,0,1-.89,1.28Z"/><path class="cls-3" d="M974.3,255.2a1,1,0,0,1-.82-.41l3.66-3.14c9.62-5.24,23.23-16,26.88-27.9a19.81,19.81,0,0,0-1.39-15.44s.94-2.42,1-2.38a21.9,21.9,0,0,1,2.34,18.41c-4.81,15.73-24.17,27.55-31.22,30.77A1,1,0,0,1,974.3,255.2Z"/><path class="cls-2" d="M928.84,69.57l-1.06-.15-1.28-.17c-.26,0-.49-.06-.83-.12l-1.2-.27c-.84-.2-1.81-.41-2.77-.71l-2.93-1.08c-1-.46-2.06-1-3.17-1.57s-2.15-1.35-3.25-2.12a37.32,37.32,0,0,1-6.17-5.82c-1-1.1-1.84-2.34-2.76-3.56-.44-.62-.82-1.28-1.24-1.92s-.83-1.31-1.18-2a66.78,66.78,0,0,1-4-8.51,87.45,87.45,0,0,1-2.84-9c-.43-1.52-.71-3-1.07-4.57s-.62-3.05-.84-4.56c-.52-3-.85-6-1.13-8.89s-.42-5.69-.48-8.34c-.06-2.17,0-4.24,0-6.19h8.68c0,1.82.09,3.76.24,5.78.16,2.47.43,5.06.77,7.73s.79,5.41,1.38,8.15c.26,1.38.63,2.74.94,4.13s.7,2.74,1.14,4.07a77.15,77.15,0,0,0,2.83,7.83,54,54,0,0,0,3.61,7c.3.55.66,1,1,1.54s.67,1,1,1.46c.75.89,1.41,1.83,2.18,2.58a26.62,26.62,0,0,0,4.47,3.88c.76.48,1.49.89,2.18,1.29s1.41.65,2.06.91l1.88.6c.54.14,1,.2,1.43.3l.6.15.78.08,1.28.12,1.07.1A6,6,0,1,1,929.1,69.6l-.23,0Z"/><path class="cls-3" d="M967.17,139.37c-13.63-24.35-13-50.82-6.58-65.22,2.16-4.85,5-7.85,7.71-8.44l0,2.06c-2,.65-4.07,3.25-5.83,7.2-5.94,13.32-6.74,37.37,4.77,60.18Z"/><path class="cls-3" d="M932.23,237.11a5.23,5.23,0,0,1-3.35-1.4c-4.64-3.9-4.12-19.8-2.87-45.43,1.27-26.17,2.84-58.6-5.94-67.74l.18-2.29a1,1,0,0,1,.58.25c10.13,8.95,8.56,41.32,7.18,69.88-1,20.74-2,40.34,2.16,43.79,1.44,1.21,2.34,1,2.9.75,6-2.79,9.7-31,9.79-56.65.14-38.1-8.42-84.55-20.13-90.57l.16-2.07a1.32,1.32,0,0,1,.33.08c14.31,6.4,21.77,57.87,21.64,92.57-.05,14.87-2.12,54.36-11,58.46A4,4,0,0,1,932.23,237.11Z"/><path class="cls-3" d="M970.38,256.94s3.75-2.6,3.75-2.6c10-2.66,29.58-14,37.36-30.09,5-10.41,3.89-20.59-3.37-30.27l.8-2.25c8.34,10.49,9.86,22,4.37,33.39C1004.54,243.26,979.63,256.94,970.38,256.94Z"/><path class="cls-4" d="M0,503.67V474.39c117.67-47.19,232.93-37.69,268.45-46.06,100.93-23.8,182.18-72.56,271.89-77.16,113-5.8,197.19,46.89,248.66,81.45,106.7-2.86,103.8,50.28,253.55,71.05Z"/><path class="cls-5" d="M858.71,502.13c3.8,1.2,16.71-75.43-5.44-73.46S855.42,501.09,858.71,502.13Z"/><path class="cls-5" d="M841.23,503.58c-2.49-1.24-25.47-26.54-17-31.41,13.58-7.82,32.73,31.41,32.73,31.41Z"/><path class="cls-5" d="M867.39,503.58c1.66-2.76,29.61-26.38,37.78-17.55s-8.72,17.5-8.72,17.5Z"/><path class="cls-6" d="M858.71,503.13h-.15a1,1,0,0,1-.84-1.13c.74-5.09-4.55-66.5-6-69.91a1,1,0,0,1,.46-1.33,1,1,0,0,1,1.31.39c1.6,2.88,7.08,65.38,6.23,71.14A1,1,0,0,1,858.71,503.13Z"/><path class="cls-6" d="M849.57,503.78a1,1,0,0,1-.91-.59c-1.91-4.21-21.43-25.55-23.23-26.86a1,1,0,0,1,1.16-1.63c1.67,1.19,21.72,22.86,23.89,27.67a1,1,0,0,1-.5,1.32A1,1,0,0,1,849.57,503.78Z"/><path class="cls-6" d="M881.83,504.67a1,1,0,0,1-.17-2c6.51-1.11,16.88-8.27,19.87-12.8.8-1.22.78-1.81.73-2a1,1,0,0,1,.74-1.21,1,1,0,0,1,1.21.74,4.78,4.78,0,0,1-1,3.57c-3.26,4.94-14.13,12.46-21.2,13.67Z"/><path class="cls-5" d="M982.93,422.66c10.54-5.85,45.08-45.13,26.91-52.9S983.4,407.61,982.93,422.66Z"/><path class="cls-5" d="M970.25,452.37c10,0,63.27-20.12,57-35.49S979.33,433.87,970.25,452.37Z"/><path class="cls-5" d="M959.49,482.9c18.94-1.82,63.52-10.26,57.13-26.71S972.48,470.53,959.49,482.9Z"/><path class="cls-5" d="M970.31,453.93c7.58-14.83,1.51-66.12-10.82-64.38S951.92,426,970.31,453.93Z"/><path class="cls-5" d="M965,504.52c4.83-4.33,43-29.94,50.56-19.77s-12.23,19.77-12.23,19.77Z"/><path class="cls-6" d="M953.3,504.67l-.21,0a1,1,0,0,1-.78-1.19c8.48-40.79,45.3-115,55.54-127.23a1,1,0,0,1,1.41-.12,1,1,0,0,1,.12,1.41c-10.16,12.09-46.69,85.8-55.11,126.35A1,1,0,0,1,953.3,504.67Z"/><path class="cls-6" d="M970.12,454h0a1,1,0,0,1-1-1c0-7.11-8.68-52.16-10.55-56.79a1,1,0,1,1,1.85-.75c1.9,4.69,10.72,50.35,10.7,57.55A1,1,0,0,1,970.12,454Z"/><path class="cls-6" d="M971.34,452.47a1,1,0,0,1-.8-.4,1,1,0,0,1,.2-1.4c7.1-5.34,47-30.44,53.34-32.64a1,1,0,0,1,.65,1.89c-6.18,2.13-46.27,27.45-52.79,32.35A1,1,0,0,1,971.34,452.47Z"/><path class="cls-6" d="M959,483.9a1,1,0,0,1-.28-2c8.28-2.41,49-22.1,53.45-25.46a1,1,0,1,1,1.21,1.59c-4.68,3.54-45.39,23.26-54.1,25.79A.86.86,0,0,1,959,483.9Z"/><path class="cls-6" d="M979.44,503.66l1.92-1.12c9.41-5.45,25.16-14.59,31.17-16a1,1,0,0,1,.46,1.95c-5.72,1.33-21.31,10.37-30.63,15.77C982.36,504.27,979,503.93,979.44,503.66Z"/><path class="cls-5" d="M934.22,420.33c12-5.64,24.76,48.66,24.76,61.34C948.82,472.08,919.55,427.23,934.22,420.33Z"/><path class="cls-5" d="M949.55,503.67c-3-10-18.66-54.17-31.33-48.34s20.67,48.34,20.67,48.34Z"/><path class="cls-5" d="M934.22,503.58c-3.32-4.5-13.5-17.62-20.17-14.43s2.17,14.52,2.17,14.52Z"/><path class="cls-6" d="M959,482.67a1,1,0,0,1-.86-.5c-4.77-8.18-23.33-55.81-23.5-56.27a1,1,0,0,1,1.87-.71c1.41,3.71,19,48.44,23.36,56a1,1,0,0,1-.36,1.37A1,1,0,0,1,959,482.67Z"/><path class="cls-6" d="M943.72,504.58a1,1,0,0,1-.93-.62c-2.22-5.49-22.29-43.35-23.22-44.72a1,1,0,0,1,.25-1.39,1,1,0,0,1,1.38.24c.87,1.21,21,39.1,23.45,45.12a1,1,0,0,1-.55,1.3A1,1,0,0,1,943.72,504.58Z"/><path class="cls-6" d="M925.62,504.67a1,1,0,0,1-.82-.42,73.8,73.8,0,0,0-9.5-11.06l-.66-.65a1,1,0,0,1,1.41-1.42l.65.65a76.08,76.08,0,0,1,9.73,11.32,1,1,0,0,1-.23,1.39A1,1,0,0,1,925.62,504.67Z"/><rect class="cls-2" y="502.67" width="1160" height="2"/></g><g id="Running_track" data-name="Running track"><path class="cls-7" d="M1160,599.06c-143.68-48-589.35-24.12-609.54,30.23-12.24,32.93,136,48.45,121.52,65.81-40.61,48.78-388.3-93.45-498.55-82.26L139.5,772H1160Z"/><path class="cls-1" d="M914.13,672.33c2.7,4.44-15.32,12.49-27.44,13.71s-21.26-2.48-25.22-2.65-127.2,6.7-136.22,5.69-11.09-5-14.75-4.73-106,.86-113.68.43-8.71-2.51-11.71-2.41-44.27,4-51,3.53-25.79-3.57-28.93-3.62-86.37,2.34-84.63-1.14,35.54-7.09,45.61-7.1,42.29-1.59,45.65-2.32,13.66-3.35,18.66-3.22,89.43,4.53,94.42,4,69.11-2,78-2.68,143.27-1.39,147.29.21S911.19,667.5,914.13,672.33Z"/><path class="cls-1" d="M691.2,672.33c2.7,4.44-15.32,12.49-27.44,13.71s-21.26-2.48-25.22-2.65-127.2,6.7-136.22,5.69-11.09-5-14.75-4.73-106,.86-113.68.43-8.71-2.51-11.71-2.41-44.27,4-50.94,3.53-25.8-3.57-28.93-3.62-86.37,2.34-84.64-1.14,35.55-7.09,45.61-7.1,42.29-1.59,45.66-2.32,13.65-3.35,18.65-3.22S397,673,402,672.49s69.12-2,78-2.68,143.26-1.39,147.29.21S688.26,667.5,691.2,672.33Z"/><rect class="cls-1" y="530" width="1160" height="2"/><rect class="cls-1" y="610.1" width="1160" height="2"/><rect class="cls-1" y="747.56" width="1160" height="2"/></g><g id="Girl_2" data-name="Girl 2"><path class="cls-8" d="M671.94,409.09l-18,99.41L521.67,582.36l3.46,12.74s133.38-58.57,146.76-67.18c28-18,52-91.42,52-91.42Z"/><path class="cls-9" d="M749.43,374l-13,21s66,92,67,97,68.19,154.53,68.19,154.53l-10.44,8L782.1,512.33S658.43,441,673.1,400.65c8.17-22.49,39.33-43.65,39.33-43.65Z"/><path class="cls-3" d="M515.85,585.83a12.83,12.83,0,0,0-5.12-1.89c-2.82-.34-15.82,47.33-15.82,47.33s23.33-32.65,23.38-33.18S515.85,585.83,515.85,585.83Z"/><path class="cls-3" d="M865.6,662.17s1,6.84,3.17,8.83,44.33-25.63,44.33-25.63l-39,6.69Z"/><path class="cls-10" d="M508.37,600.46a14.49,14.49,0,0,1,1.52-7.79c3.38-6.11,6-7.3,6-8s-6.66-6.18-11.86-5.72-6,20.19-6,20.19Z"/><path class="cls-10" d="M488.48,644.05c.7.16,2.8-1,4.15-4.78a61.68,61.68,0,0,1,24-30s-4.68-10.72-19.55-6.77l-5.39,19.35Z"/><path class="cls-11" d="M493.28,618c.54,1.36,4.65,9.71,7.52,7.26,5.14-6.17,12.7-11.18,11.65-15.33s-6-12.15-5-16.58,6.89-10.25,6.89-10.25l-3.45-2.29s-10.56,14-12.12,15.65S493.28,618,493.28,618Z"/><path class="cls-3" d="M488.48,644.05c-1,1.73-6.59.15-6.59.15s.44-16,4.23-28.88c6.52-22.16,10.24-38.12,11.55-38s6.32,1.58,6.32,1.58-6.84,22.47-8.84,30.82C491.07,626.74,488.48,644.05,488.48,644.05Z"/><path class="cls-12" d="M481.89,644.2a148.17,148.17,0,0,1,2.37-21.14l5.69,1.09s-2.29,12.92-3,20.67A16.44,16.44,0,0,1,481.89,644.2Z"/><path class="cls-13" d="M511.74,607.8a17.46,17.46,0,0,1,.71,2.11c1,4.15-6.51,9.16-11.65,15.33-1.05.9-2.51.45-4.11-1.54C498,621.47,505.12,612.91,511.74,607.8Z"/><path class="cls-3" d="M511.47,614.72a1,1,0,0,1-.77-.35l-1.47-1.77a1,1,0,0,1,1.53-1.29l1.48,1.77a1,1,0,0,1-.13,1.41A1,1,0,0,1,511.47,614.72Z"/><path class="cls-3" d="M508.51,618.27a1,1,0,0,1-.75-.34l-1.7-1.94a1,1,0,0,1,.09-1.41,1,1,0,0,1,1.41.09l1.7,1.94a1,1,0,0,1-.09,1.41A1,1,0,0,1,508.51,618.27Z"/><path class="cls-3" d="M505.17,621.6a1,1,0,0,1-.75-.34l-1.63-1.84a1,1,0,1,1,1.49-1.33l1.64,1.84a1,1,0,0,1-.09,1.42A1,1,0,0,1,505.17,621.6Z"/><path class="cls-3" d="M502,624.91a1,1,0,0,1-.69-.28l-1.78-1.71a1,1,0,0,1,0-1.42,1,1,0,0,1,1.41,0l1.78,1.71a1,1,0,0,1,0,1.41A1,1,0,0,1,502,624.91Z"/><path class="cls-10" d="M880.36,658.34a14.44,14.44,0,0,1-5.87,5.35c-6.35,2.9-9.17,2.28-9.57,2.9s1.66,8.93,6.12,11.66,16.82-12.66,16.82-12.66Z"/><path class="cls-10" d="M922.31,635.19c-.48-.55-2.89-.83-6.19,1.37a61.64,61.64,0,0,1-37.15,9.8s-2.63,11.4,11.66,17.09l15.86-12.32Z"/><path class="cls-11" d="M902.91,653.26c.38-1.41,2.05-10.57-1.71-10.31-7.8,1.89-16.86,1.41-18.49,5.37s-2.38,13.35-5.88,16.28-11.64,4.13-11.64,4.13l1.41,3.89s16.79-4.91,19-5.34S902.91,653.26,902.91,653.26Z"/><path class="cls-3" d="M922.31,635.19c1.86-.78,5.37,3.81,5.37,3.81s-9.9,12.6-20.6,20.67c-18.45,13.91-30.94,24.51-31.91,23.62s-4.13-5-4.13-5,18.88-14,25.46-19.48C909.9,647.55,922.31,635.19,922.31,635.19Z"/><path class="cls-12" d="M927.68,639a146.55,146.55,0,0,1-14.5,15.55l-3.91-4.26s9.54-9,14.74-14.79A16.11,16.11,0,0,1,927.68,639Z"/><path class="cls-13" d="M882,650.44a17.66,17.66,0,0,1,.69-2.12c1.63-4,10.69-3.48,18.49-5.37,1.38-.1,2.28,1.13,2.38,3.69C901.19,647.64,890.39,650.28,882,650.44Z"/><path class="cls-3" d="M885.9,649.14a1,1,0,0,1-1-.94l-.13-2.3a1,1,0,0,1,2-.12l.13,2.3a1,1,0,0,1-.94,1.06Z"/><path class="cls-3" d="M890.47,648.33a1,1,0,0,1-1-.92l-.21-2.57a1,1,0,0,1,.92-1.08,1,1,0,0,1,1.08.91l.21,2.58a1,1,0,0,1-.92,1.08Z"/><path class="cls-3" d="M895.14,647.53a1,1,0,0,1-1-.92l-.21-2.45a1,1,0,1,1,2-.17l.22,2.45a1,1,0,0,1-.91,1.08Z"/><path class="cls-3" d="M899.88,646.76a1,1,0,0,1-1-.84l-.4-2.43a1,1,0,1,1,2-.33l.41,2.43a1,1,0,0,1-.83,1.15Z"/><polygon class="cls-3" points="515.85 585.83 521.67 582.36 525.13 595.1 518.29 598.09 515.85 585.83"/><polygon class="cls-3" points="865.6 662.17 861.18 654.55 871.62 646.53 874.08 652.06 865.6 662.17"/><path class="cls-11" d="M671.94,409.09l-18,99.41L542.29,570.85l5,14.47c38.51-17.05,114.66-51,124.6-57.4,28-18,52-91.42,52-91.42Z"/><path class="cls-10" d="M749.43,374l-13,21s66,92,67,97c.77,3.81,39.91,91.44,58.54,133l-12.49,8.5L782.1,512.33S658.43,441,673.1,400.65c8.17-22.49,39.33-43.65,39.33-43.65Z"/><path class="cls-3" d="M855.69,630.39a1.1,1.1,0,0,1-1-.6l-67.23-131.3c-6.31-4.5-95.77-69.26-81.19-109.36,4.55-12.52,13.44-21.21,20.1-26.28a1.1,1.1,0,1,1,1.34,1.74c-6.43,4.9-15,13.27-19.38,25.29C694.14,429,788,496.18,789,496.85a1.19,1.19,0,0,1,.34.4l67.36,131.54a1.09,1.09,0,0,1-.48,1.47A1,1,0,0,1,855.69,630.39Z"/><path class="cls-14" d="M734.41,223.25a1,1,0,0,1-.08-2c24.3-2,37.16-9.08,37.19-20.37,0-13.32-18.17-28.49-28.36-29.39a1,1,0,1,1,.18-2c11.11,1,30.22,16.88,30.18,31.4,0,8.71-6.81,19.66-39,22.35Z"/><path class="cls-14" d="M701.69,183.25c-1.25-3.25-5.5-19.92-25.69-14.41-31.43,8.59-34.48,58.83-101.31,47.95a80.43,80.43,0,0,0,5.75,30.84c11.5,28.05,45.95,37.82,70.88,20.57a71.91,71.91,0,0,0,18.62-18.45c19.5-28.5,26.25-49.62,26.25-49.62Z"/><path class="cls-15" d="M706.07,183.92l-4.38-.67a50.13,50.13,0,0,0-5.5,16.88l3.5,1Z"/><path class="cls-14" d="M727.89,243.15c-5-6.82-44.17-19.54-22.72-59.9,16.07-30.25,62.52-12.32,60.53,8.94C764.91,200.66,727.89,243.15,727.89,243.15Z"/><path class="cls-8" d="M746.86,276.67l57.87,45,38.92-25.85,6,5.5s-36.83,40-44.5,43-56.64-25-56.64-25Z"/><path class="cls-6" d="M746.86,276.67l37.91,29.48-11.47,26.4c-12-6.15-24.79-13.32-24.79-13.32Z"/><path class="cls-16" d="M723.93,337.25c-.75-3.25-38.75-68.77,2.75-72.75,10.42-1,47.5,34.61,47.75,45.5.11,4.79,1.25,16-13.5,23-.78,17.79-5.61,31.5-11.5,41l-37-17S724.68,340.5,723.93,337.25Z"/><path class="cls-9" d="M749.32,278.16c-4.41-7.89-7.79-19.25-2.39-30.16,8.5-17.17-20.16-24-20.16-24s4.66,33.75-4.14,41.14c1.62,7.36,9,13.49,17.84,16.25C748,283.74,751.85,282.69,749.32,278.16Z"/><path class="cls-8" d="M727.89,240.51s7.92,11.16,16.36,17.18a29,29,0,0,1,2.68-9.69c2.36-4.75,1.86-8.7-.09-11.95l-19.58-7.43C727.47,231,727.77,237.14,727.89,240.51Z"/><path class="cls-9" d="M752.2,180.26c5.27,1.05,13.45,8.18,15.12,16.6,3.22,16.33,5.78,30.54-.28,50.34-.49,1.62-2.06,2.29-3.41,3.31-3.61,2.74-18.46,3.44-31.94-12.86C714.92,217.38,722.21,174.3,752.2,180.26Z"/><path class="cls-9" d="M770.09,216.79c2.76,5.74,7.44,5.63,7.75,7.1s-2.74,5.42-7,6.91S770.09,216.79,770.09,216.79Z"/><path class="cls-8" d="M757.76,185.67c2,7.33,6.73,36-28.26,32.68S757.76,185.67,757.76,185.67Z"/><path class="cls-9" d="M720.52,265.7s-76,38.47-72.54,49,53.34,45,53.34,45l6-7.7L678,315.67l48.21-19.17Z"/><path class="cls-14" d="M723.62,218.49c6.49.16,42.06.28,34.58-35.24-2.43-11.55-35.2-1.2-35.2-1.2l-9.41,28.45Z"/><circle class="cls-9" cx="726.19" cy="226" r="8.34" transform="translate(52.89 579.69) rotate(-45)"/><path class="cls-8" d="M731.13,226a4.95,4.95,0,1,0-4.94,4.95A4.94,4.94,0,0,0,731.13,226Z"/><path class="cls-3" d="M724,226a3.36,3.36,0,0,0,3.22,4.77l4.08,5.77a1.72,1.72,0,0,0,2.39.41l0,0a1.72,1.72,0,0,0,.41-2.39l-4-5.65.06-.09A3.39,3.39,0,1,0,724,226Z"/><path class="cls-14" d="M724.59,230c-8.23,0-17.16-2.26-26.25-6.83a1,1,0,0,1,.9-1.79c19.76,9.95,38.7,8.61,50.67-3.58,9.08-9.25,11.64-22.92,6.21-33.23a1,1,0,1,1,1.77-.93c5.83,11.07,3.13,25.69-6.55,35.56C744.3,226.35,735,230,724.59,230Z"/><path class="cls-14" d="M609.48,209.55c-.59,0-1.18,0-1.78-.05a1,1,0,0,1,.1-2c15.87.83,27.69-10.3,39.13-21.05,13.86-13,27-25.32,45.85-16a1,1,0,1,1-.89,1.79c-17.65-8.69-30.25,3.14-43.59,15.68C637,198.55,625.28,209.55,609.48,209.55Z"/><path class="cls-14" d="M621.12,284.78c-12.82,0-26.75-4.42-41.63-13.25a1,1,0,0,1-.35-1.37,1,1,0,0,1,1.37-.35c21.63,12.83,41.13,16.16,58,9.9,31.83-11.85,46.23-54.93,51.65-71.14.49-1.47.91-2.73,1.27-3.74a1,1,0,0,1,1.89.67c-.36,1-.77,2.25-1.26,3.7-5.5,16.46-20.12,60.2-52.86,72.38A51.16,51.16,0,0,1,621.12,284.78Z"/><path class="cls-14" d="M622,279c-10.53,0-28.11-3.48-41.53-23.65a1,1,0,1,1,1.66-1.1c13.84,20.78,32.2,23.14,41.92,22.7,14.16-.64,27.64-7.72,32.79-17.21a1,1,0,0,1,1.35-.4,1,1,0,0,1,.41,1.35c-5.46,10.08-19.63,17.58-34.46,18.26C623.41,278.93,622.7,279,622,279Z"/><path class="cls-6" d="M708.15,295a128,128,0,0,0,6.26,21.08c8.09-4.95,10.84-13.62,11.78-19.62Z"/><path class="cls-5" d="M720.52,265.7c-1.64,0-20.42,10.17-39.59,21.63l9.15,23.53,36.11-14.36Z"/><path class="cls-8" d="M841,282.45c-.68,3.37.86,15.08-4.34,19.23l7.21,5.8s18.6-10.37,18.86-15.55c.07-1.52-1.66-3.13-2-5.3-.15-.84.89-1.91.44-3-.6-1.39-1.79-1.28-2.2-2.4-.73-2,0-2.62-1.41-4.46s-10.29,3.11-10.29,3.11S841.64,279.08,841,282.45Z"/><path class="cls-8" d="M843.12,287.28H843a2.05,2.05,0,0,1-2.13-2l-.26-7a2,2,0,0,1,1.64-2.09l8-1.63a2.05,2.05,0,1,1,.82,4l-6.25,1.28.2,5.3A2.05,2.05,0,0,1,843.12,287.28Z"/><path class="cls-9" d="M721.71,348.9c-3.43-.16-14.78,3.13-19.67-1.39l-4.64,8s13.07,16.82,18.22,16.29c1.51-.16,2.84-2.11,4.93-2.8.81-.26,2,.6,3,0,1.29-.79,1-2,2-2.54,1.84-1,2.59-.43,4.2-2.06s-4.62-9.7-4.62-9.7S725.14,349.06,721.71,348.9Z"/><path class="cls-9" d="M717.27,351.77a.29.29,0,0,1,0-.09,2,2,0,0,1,1.63-2.4L725.8,348a2.07,2.07,0,0,1,2.31,1.31l2.81,7.61a2.05,2.05,0,1,1-3.85,1.42l-2.21-6-5.21,1A2.05,2.05,0,0,1,717.27,351.77Z"/><polygon class="cls-17" points="680.93 287.33 690.08 310.86 683.68 313.4 674.34 291.43 680.93 287.33"/><path class="cls-12" d="M671.05,310.48l-4.08-8a3.35,3.35,0,0,1,1.66-4.43l20.17-10.34a3.36,3.36,0,0,1,4.57,1.25l4.08,7.95a3.36,3.36,0,0,1-1.66,4.44l-20.17,10.34A3.36,3.36,0,0,1,671.05,310.48Z"/></g><g id="Girl_1" data-name="Girl 1"><path class="cls-18" d="M505.65,337.25c-.75-3.25-38.75-68.77,2.75-72.75,10.42-1,47.5,34.61,47.75,45.5.11,4.79,1.25,16-13.5,23-.78,17.79-5.61,31.5-11.5,41l-37-17S506.4,340.5,505.65,337.25Z"/><path class="cls-17" d="M544.09,286.86a1,1,0,0,1-1-.83c-1.39-8-1.43-17.33-1.46-26.4-.06-13.28-.1-25.83-4.33-32.25a1,1,0,0,1,.29-1.38,1,1,0,0,1,1.39.28c4.54,6.91,4.59,19.75,4.65,33.35,0,9,.07,18.27,1.43,26.06a1,1,0,0,1-.81,1.15Z"/><path class="cls-19" d="M528.57,276.67l57.88,45,38.92-25.85,6,5.5s-36.83,40-44.5,43-56.64-25-56.64-25Z"/><path class="cls-19" d="M453.66,409.09l-18,99.41L303.39,582.36l3.46,12.74s133.38-58.57,146.76-67.18c28-18,52-91.42,52-91.42Z"/><path class="cls-20" d="M453.66,409.09l-7.47,41.26h0c4.71.9,19.55,24.44,46.51,19.42,8-18.18,12.95-33.27,12.95-33.27Z"/><path class="cls-8" d="M531.15,374l-13,21s66,92,67,97,68.19,154.53,68.19,154.53l-10.44,8L563.82,512.33S440.15,441,454.82,400.65C463,378.16,494.15,357,494.15,357Z"/><path class="cls-3" d="M297.57,585.83a12.83,12.83,0,0,0-5.12-1.89c-2.83-.34-15.83,47.33-15.83,47.33S300,598.62,300,598.09,297.57,585.83,297.57,585.83Z"/><path class="cls-3" d="M647.32,662.17s1,6.84,3.17,8.83,44.33-25.63,44.33-25.63l-39,6.69Z"/><path class="cls-21" d="M518.15,395l13-21-37-17-5.1,3.74c-9.18,7-28.47,18.62-34.23,39.91-6.82,25.18,21.08,49.27,50.83,72.4,1.84-2.06,17.63-28.58,42.07-36.48C532.38,414.83,518.15,395,518.15,395Z"/><path class="cls-21" d="M290.09,600.46a14.49,14.49,0,0,1,1.52-7.79c3.38-6.11,6-7.3,5.95-8s-6.65-6.18-11.85-5.72-6,20.19-6,20.19Z"/><path class="cls-21" d="M270.2,644.05c.7.16,2.8-1,4.15-4.78a61.68,61.68,0,0,1,24-30s-4.69-10.72-19.55-6.77l-5.39,19.35Z"/><path class="cls-20" d="M275,618c.54,1.36,4.65,9.71,7.52,7.26,5.14-6.17,12.7-11.18,11.65-15.33s-6-12.15-5-16.58,6.89-10.25,6.89-10.25l-3.45-2.29s-10.56,14-12.12,15.65S275,618,275,618Z"/><path class="cls-3" d="M270.2,644.05c-1,1.73-6.59.15-6.59.15s.44-16,4.23-28.88c6.52-22.16,10.24-38.12,11.55-38s6.32,1.58,6.32,1.58-6.84,22.47-8.84,30.82C272.79,626.74,270.2,644.05,270.2,644.05Z"/><path class="cls-12" d="M263.61,644.2A148.17,148.17,0,0,1,266,623.06l5.69,1.09s-2.29,12.92-3,20.67A16.35,16.35,0,0,1,263.61,644.2Z"/><path class="cls-22" d="M293.46,607.8a19.41,19.41,0,0,1,.71,2.11c1.05,4.15-6.51,9.16-11.65,15.33-1,.9-2.51.45-4.11-1.54C279.74,621.47,286.84,612.91,293.46,607.8Z"/><path class="cls-3" d="M293.19,614.72a1,1,0,0,1-.77-.35L291,612.6a1,1,0,0,1,1.53-1.29l1.48,1.77a1,1,0,0,1-.13,1.41A1,1,0,0,1,293.19,614.72Z"/><path class="cls-3" d="M290.23,618.27a1,1,0,0,1-.75-.34L287.77,616a1,1,0,0,1,1.51-1.32l1.7,1.94a1,1,0,0,1-.75,1.66Z"/><path class="cls-3" d="M286.89,621.6a1,1,0,0,1-.75-.34l-1.63-1.84a1,1,0,0,1,1.49-1.33l1.64,1.84a1,1,0,0,1-.09,1.42A1,1,0,0,1,286.89,621.6Z"/><path class="cls-3" d="M283.68,624.91a1,1,0,0,1-.69-.28l-1.78-1.71a1,1,0,0,1,0-1.42,1,1,0,0,1,1.41,0l1.78,1.71a1,1,0,0,1,0,1.41A1,1,0,0,1,283.68,624.91Z"/><path class="cls-21" d="M662.08,658.34a14.44,14.44,0,0,1-5.87,5.35c-6.35,2.9-9.18,2.28-9.57,2.9s1.66,8.93,6.12,11.66,16.82-12.66,16.82-12.66Z"/><path class="cls-21" d="M704,635.19c-.48-.55-2.89-.83-6.19,1.37a61.64,61.64,0,0,1-37.15,9.8s-2.63,11.4,11.66,17.09l15.86-12.32Z"/><path class="cls-20" d="M684.63,653.26c.38-1.41,2-10.57-1.71-10.31-7.8,1.89-16.86,1.41-18.49,5.37s-2.39,13.35-5.88,16.28-11.64,4.13-11.64,4.13l1.4,3.89s16.8-4.91,19.06-5.34S684.63,653.26,684.63,653.26Z"/><path class="cls-3" d="M704,635.19c1.86-.78,5.37,3.81,5.37,3.81s-9.9,12.6-20.6,20.67c-18.45,13.91-30.94,24.51-31.91,23.62s-4.13-5-4.13-5,18.88-14,25.46-19.48C691.62,647.55,704,635.19,704,635.19Z"/><path class="cls-12" d="M709.4,639a146.55,146.55,0,0,1-14.5,15.55L691,650.29s9.53-9,14.74-14.79A16.11,16.11,0,0,1,709.4,639Z"/><path class="cls-22" d="M663.74,650.44a17.66,17.66,0,0,1,.69-2.12c1.63-4,10.69-3.48,18.49-5.37,1.38-.1,2.28,1.13,2.38,3.69C682.91,647.64,672.1,650.28,663.74,650.44Z"/><path class="cls-3" d="M667.62,649.14a1,1,0,0,1-1-.94l-.13-2.3a1,1,0,0,1,.94-1.06,1,1,0,0,1,1.06.94l.13,2.3a1,1,0,0,1-.94,1.06Z"/><path class="cls-3" d="M672.19,648.33a1,1,0,0,1-1-.92l-.21-2.57a1,1,0,0,1,2-.17l.21,2.58a1,1,0,0,1-.92,1.08Z"/><path class="cls-3" d="M676.86,647.53a1,1,0,0,1-1-.92l-.21-2.45a1,1,0,0,1,2-.17l.21,2.45a1,1,0,0,1-.9,1.08Z"/><path class="cls-3" d="M681.6,646.76a1,1,0,0,1-1-.84l-.4-2.43a1,1,0,1,1,2-.33l.4,2.43a1,1,0,0,1-.82,1.15Z"/><polygon class="cls-3" points="297.56 585.83 303.39 582.36 306.85 595.1 300.01 598.09 297.56 585.83"/><polygon class="cls-3" points="647.32 662.17 642.9 654.55 653.34 646.53 655.79 652.06 647.32 662.17"/><path class="cls-15" d="M448.42,218.76c-4.82-.63-35.83-16.19-54.92,3.47-22.67,23.33,8.39,35.84,6.17,40.55C398,266.32,364.54,283,381,302c15.58,18,48.52-18,75.57-18C485.54,284,453.24,219.39,448.42,218.76Z"/><path class="cls-8" d="M538.15,287.92c-4.5-6.75-18-22.75-9.5-39.92s-20.16-24-20.16-24,4.39,33.44-4.14,41.14S538.15,287.92,538.15,287.92Z"/><path class="cls-19" d="M509.15,239.88s8.38,11.79,16.82,17.81a28.58,28.58,0,0,1,2.68-9.69c2.35-4.75,1.85-8.7-.09-11.95L509,228.62C509.19,231,509,236.51,509.15,239.88Z"/><path class="cls-8" d="M533.92,180.26c5.27,1.05,13.45,8.18,15.12,16.6,3.22,16.33,5.77,30.54-.28,50.34a4.86,4.86,0,0,1-3.41,3.31c-5.62,1.5-19.27,2.94-31.94-12.86C497,217.13,503.93,174.3,533.92,180.26Z"/><path class="cls-8" d="M551.81,216.79c2.76,5.74,7.44,5.63,7.75,7.1s-2.74,5.42-7,6.91S551.81,216.79,551.81,216.79Z"/><path class="cls-19" d="M490.14,296.5A109,109,0,0,0,495.31,314h0a33.93,33.93,0,0,0,12.6-17.51Z"/><path class="cls-8" d="M502.2,265.5s-76,38.67-72.5,49.17,53.34,45,53.34,45l6-7.7-29.34-36.3,48.21-19.17Z"/><path class="cls-19" d="M533.92,180.26a26.18,26.18,0,0,0-8.61-.33c-2.16,5.95-5.21,16.5,1.49,13.78,9.19-3.72,18.49-1.17,21.66,1C546,187.28,538.74,181.22,533.92,180.26Z"/><path class="cls-19" d="M510.76,218.18c7.54,1.74,24.68-3.2,21.93-26.06S525,180.94,525,180.94Z"/><path class="cls-21" d="M556.44,308.69c-1.7-11.89-37.62-45.19-48-44.19-.55.05-1.08.12-1.6.2l2.17,1c11.71,6.79,21.26,46.12,1.23,53.52-5.6,2.07-10.64-.63-14.89-5.22,4.59,12.13,10.06,22,10.34,23.24,8.51-.58,28-3.31,36.7.45.16-1.92.23-3.28.3-4.7C557.4,326,557.16,313.69,556.44,308.69Z"/><path class="cls-15" d="M481.07,253.43l-.07-2c24.91-.86,41.22-7.56,48.47-19.89,10-17,0-40.52-4.79-49.83l-.16-.31,1.78-.91.16.31c4.92,9.6,15.24,33.87,4.73,51.75C523.57,245.51,506.71,252.54,481.07,253.43Z"/><path class="cls-15" d="M506.79,238.2l-.74-1.86a32.07,32.07,0,0,0,18.38-17.74c5-11.68,3.23-24.73,1-30.21l1.85-.76c2.37,5.78,4.2,19.51-1,31.75A34,34,0,0,1,506.79,238.2Z"/><path class="cls-15" d="M529.69,190.35c5.09-4.79,16.82.18,16.82.18,4.8-45-32.65-46.11-42.47-38.2-7.14,5.75-2.41,13.14-5.92,15.48s-18.08-3.64-28,4.15c-13.06,10.29,2,16.11-.06,18.76s-32.57-2.33-40.5,11c-12.23,20.58,19.89,36.24,16.72,39.93-23.82,27.65,22.19,62.49,36.51,38.32,11.09-18.72,27.2-4.51,31.67-22.31,3.83-15.27-11.52-34.77-10-37.24s17.3-2.34,21.24-11.29S527.16,192.72,529.69,190.35Z"/><circle class="cls-8" cx="507.91" cy="226" r="8.34" transform="translate(-22.18 393.49) rotate(-41.52)"/><circle class="cls-19" cx="507.91" cy="226" r="4.94"/><path class="cls-12" d="M505.69,226a3.36,3.36,0,0,0,3.22,4.77l4.08,5.77a1.72,1.72,0,0,0,2.39.41l0,0a1.72,1.72,0,0,0,.41-2.39l-4-5.65a.41.41,0,0,0,.05-.09,3.39,3.39,0,1,0-6.17-2.8Z"/><path class="cls-15" d="M407.7,321.17a1,1,0,0,1-.54-.17,1,1,0,0,1-.29-1.38c.12-.19,12.94-19.32,41.8-24.63,31-5.7,33.26-14.5,35.06-21.57a1,1,0,0,1,1.22-.72,1,1,0,0,1,.72,1.21c-2.29,9-6.82,17.57-36.64,23-28,5.14-40.37,23.57-40.49,23.76A1,1,0,0,1,407.7,321.17Z"/><path class="cls-15" d="M392.4,312.53a22.71,22.71,0,0,1-8.57-1.6,1,1,0,0,1,.75-1.86c12.16,4.92,27.18-3.56,41.71-11.75,12-6.8,24.51-13.83,35.62-13.42a1,1,0,0,1,1,1,1,1,0,0,1-1,1c-10.53-.41-22.75,6.5-34.55,13.16S403.39,312.53,392.4,312.53Z"/><path class="cls-15" d="M419.2,203a1,1,0,0,1-.78-1.62c10.72-13.5,24.45-12.66,37.73-11.85a98.89,98.89,0,0,0,13.85.2,1,1,0,0,1,.17,2,99.81,99.81,0,0,1-14.14-.2c-12.77-.78-26-1.58-36,11.1A1,1,0,0,1,419.2,203Z"/><path class="cls-15" d="M545.24,189.56a1,1,0,0,1-.57-.18,1,1,0,0,1-.24-1.4c2.12-3,4.47-13.17,1.59-22.89-2.16-7.32-6.67-12.37-13.4-15a1,1,0,0,1-.56-1.3,1,1,0,0,1,1.3-.56,24.2,24.2,0,0,1,14.58,16.32c3,10,.77,20.91-1.88,24.62A1,1,0,0,1,545.24,189.56Z"/><path class="cls-20" d="M453.64,409.09l-18,99.41L324,570.85l5,14.47c38.51-17.05,114.66-51,124.6-57.4,28-18,52-91.42,52-91.42Z"/><path class="cls-21" d="M531.13,374l-13,21s66,92,67,97c.77,3.81,39.91,91.44,58.54,133l-12.49,8.5L563.8,512.33S440.13,441,454.8,400.65C463,378.16,494.13,357,494.13,357Z"/><path class="cls-3" d="M637.39,630.39a1.1,1.1,0,0,1-1-.6l-67.23-131.3c-6.31-4.5-95.77-69.26-81.19-109.36,4.55-12.52,13.44-21.21,20.1-26.28a1.1,1.1,0,0,1,1.34,1.74c-6.43,4.9-15,13.27-19.38,25.29-14.21,39.11,79.67,106.3,80.62,107a1.19,1.19,0,0,1,.34.4l67.36,131.54a1.09,1.09,0,0,1-.48,1.47A1,1,0,0,1,637.39,630.39Z"/><path class="cls-19" d="M621.94,282.45c-.68,3.37.86,15.08-4.34,19.23l7.21,5.8s18.61-10.37,18.86-15.55c.07-1.52-1.65-3.13-2-5.3-.14-.84.9-1.91.44-3-.59-1.39-1.79-1.28-2.2-2.4-.72-2,0-2.62-1.41-4.46s-10.29,3.11-10.29,3.11S622.62,279.08,621.94,282.45Z"/><path class="cls-19" d="M624.1,287.28H624a2,2,0,0,1-2.12-2l-.27-7a2.07,2.07,0,0,1,1.64-2.09l8-1.63a2.05,2.05,0,0,1,.83,4l-6.25,1.28.2,5.3A2.06,2.06,0,0,1,624.1,287.28Z"/><path class="cls-8" d="M503.57,348.9c-3.43-.16-14.78,3.13-19.67-1.39l-4.64,8s13.06,16.82,18.22,16.29c1.51-.16,2.84-2.11,4.93-2.8.81-.26,2,.6,3,0,1.28-.79,1-2,2-2.54,1.84-1,2.59-.43,4.2-2.06s-4.62-9.7-4.62-9.7S507,349.06,503.57,348.9Z"/><path class="cls-8" d="M499.12,351.77a.29.29,0,0,0,0-.09,2.05,2.05,0,0,1,1.63-2.4l6.92-1.33a2.06,2.06,0,0,1,2.31,1.31l2.82,7.61a2.05,2.05,0,1,1-3.85,1.42l-2.21-6-5.21,1A2.07,2.07,0,0,1,499.12,351.77Z"/><path class="cls-12" d="M539.92,391.15a11,11,0,0,1-8.76-4.55c-3-4-3.86-10.57,2.56-17.16q2.1-2.18,3.94-4.39c-.34-.16-.68-.32-1-.46a10.46,10.46,0,0,0-11.7,2,1,1,0,0,1-1.36-1.47,12.46,12.46,0,0,1,13.82-2.4,15.35,15.35,0,0,1,1.54.72c32.73-42-4.4-96.62-20.68-120.55-2.87-4.22-5.14-7.56-6.29-9.73a1,1,0,0,1,1.77-.93c1.09,2.07,3.34,5.37,6.17,9.54,16.52,24.28,54.15,79.58,20.77,122.7C546,368,550,374.26,550.24,380a10.25,10.25,0,0,1-5.72,10A9.78,9.78,0,0,1,539.92,391.15Zm-.5-25.08q-2,2.4-4.27,4.76c-5.54,5.7-4.87,11.26-2.39,14.58,2.28,3,6.73,5,10.83,2.84a8.25,8.25,0,0,0,4.65-8.14C548,375,544.24,369.23,539.42,366.07Z"/><rect class="cls-12" x="517.49" y="365.38" width="10.28" height="9.5" rx="1.92" transform="translate(-49.8 657.3) rotate(-61.95)"/></g><g id="Clouds"><path class="cls-12" d="M25.81,243.82H335.93s13.78-43.13-26.18-43.12c-27.77,0-64,22.78-77.86,21.49s-11.61-19.6-25-20.05-56.26,30.17-61.17,28.26-8.26-17.6-28.36-20.48C91.21,206.18,84.89,231,25.81,243.82Z"/><path id="Cloud" class="cls-12" d="M841.2,110.29H650.42c38-3,40.08-26.08,55.33-28.33,7.44-1.1,21.52,6.25,30.77,6.25S761.77,63,773,63c12.5,0,18.61,30,24,32,4,1.52,14-10.06,24.35-12C834.9,80.43,848.27,89,841.2,110.29Z"/><path id="Cloud-2" data-name="Cloud" class="cls-12" d="M445.85,86.63H338.6c11.67-1.67,14.17-10.5,20-11.75,4.16-.89,16.84,7.08,24.17,5.58,7.9-1.61,22.83-27.33,40.08-30.83S452.45,67.94,445.85,86.63Z"/></g><g id="G2"><path class="cls-1" d="M1160,664C989.85,621.62,943.48,731.5,739.48,772H1160Z"/><path class="cls-5" d="M926.55,744.85c28.5-13.33,75.67-35.8,55.66-52.67C961,674.27,928.55,727.52,926.55,744.85Z"/><path class="cls-5" d="M919.88,695.68c16.14.9,9.16,32.77-16,76.27C896.54,756.62,901.88,694.68,919.88,695.68Z"/><path class="cls-5" d="M891.1,772c6.57-17.88,9.84-39.92-4.05-39.48-13.1.41-15,22.18-13.07,39.48Z"/><path class="cls-23" d="M906.19,768.28c3.66-4.35,7.32-8.94,11.15-13.74,15.31-19.2,32.67-41,61-61.83a1,1,0,0,1,1.4.21,1,1,0,0,1-.22,1.4c-28.14,20.72-45.41,42.36-60.65,61.46-3.69,4.64-7.23,9.08-10.77,13.3C907.12,770.29,905.32,769.32,906.19,768.28Z"/><path class="cls-23" d="M903.28,769.3c1.43-13.88,12.17-64.9,14.51-67.61a1,1,0,0,1,1.52,1.3c-1.84,2.68-12.75,52-14.08,66C905.09,770.4,903.13,770.77,903.28,769.3Z"/><path class="cls-23" d="M881.74,771.86c.63-4.56,1.57-12.1,2.41-18.76,1-7.79,1.81-14.53,2.08-16a1,1,0,0,1,1.16-.8,1,1,0,0,1,.81,1.16c-.26,1.42-1.14,8.45-2.07,15.89-.83,6.66-1.76,14.08-2.39,18.65Z"/><path class="cls-24" d="M1088.76,720c3.18-1.91,8-12.58,0-17.08,11.84-11.84,23.64-25.89,18.52-38.5-2.34-5.73-11.15-5.73-11.15-5.73s32.48-38.43,12-49.77c-17.53-9.69-34.83,18.34-34.83,18.34s-5.44-9.44-13.34-9.34c-12.83.17-16.75,27.45-16.75,27.45s-5-8-16-3.43c-15.36,6.38.26,43.28.26,43.28s-7-5.5-12.26-.63c-7.25,6.75,4,29.29,4,29.29Z"/><path class="cls-5" d="M1077.13,718.61c-2.13-1.81-18.39-31.87-9-34.58,15.05-4.34,24.27,38.33,24.27,38.33Z"/><path class="cls-6" d="M1085.41,720.82a1,1,0,0,1-1-.82c-.84-4.55-14.7-29.93-16.13-31.64a1,1,0,0,1,.11-1.41,1,1,0,0,1,1.4.11c1.34,1.56,15.63,27.39,16.58,32.58a1,1,0,0,1-.8,1.16Z"/><path class="cls-4" d="M1160,724.18c-144.85-42.56-213.85,2.88-312.38,47.82H1160Z"/><path class="cls-3" d="M900.58,772c9.87-5.21,18.52-10.5,26.41-15.32,26.74-16.34,47.9-29.27,89.65-24.77,8.37-26,24.41-43.83,46.41-51.7,27.74-9.92,62.14-3,97,19.6v2.29c-34.52-22.58-69-29.78-96.28-20-21.61,7.73-37.32,25.43-45.43,51.2l-.24.79-.82-.09c-41.61-4.68-62.61,8.15-89.2,24.4-7,4.29-14.65,9-23.22,13.61Z"/><path class="cls-5" d="M1130,654.46c5.86,3.35,1.23,24.08-23.75,32C1106,673.83,1120.75,649.16,1130,654.46Z"/><path class="cls-5" d="M1092,707.19c12.33,1.81,40.32-9,34.75-20.35S1093.67,698.17,1092,707.19Z"/><path class="cls-5" d="M1092.67,670.11c7.34,0,13.58,19.22-.67,37.08C1084,699.16,1084.17,670.07,1092.67,670.11Z"/><path class="cls-6" d="M1089.61,709.36c10.34-17,33.49-47.36,37.17-50.87a1,1,0,0,1,1.42,0,1,1,0,0,1,0,1.41c-3.58,3.41-25.88,32.65-36.37,49.68Z"/><path class="cls-6" d="M1093.35,706.41a1,1,0,0,1-1-.8c-1-4.81-2.27-26.51.06-31.84a1,1,0,1,1,1.83.8c-2,4.57-1,25.55.07,30.64a1,1,0,0,1-.78,1.18Z"/><path class="cls-6" d="M1092,708.4a1,1,0,0,1-.39-1.92c3.11-1.3,27.32-15.81,30.2-18.55a1,1,0,0,1,1.38,1.44c-3.38,3.23-27.76,17.68-30.8,19A1.07,1.07,0,0,1,1092,708.4Z"/><path class="cls-3" d="M1054.89,685.86a1.05,1.05,0,0,1-.49-.13,1,1,0,0,1-.38-1.36c17-30.24,44.84-65.21,48-68.24a1,1,0,0,1,1.41,0,1,1,0,0,1,0,1.42c-3.13,3-30.74,37.7-47.65,67.77A1,1,0,0,1,1054.89,685.86Z"/><path class="cls-3" d="M1061.21,675.17a1,1,0,0,1-.87-.5c-5.83-10.11-6.1-41.66-3.45-49.33a1,1,0,0,1,1.89.65c-2.49,7.23-2.2,38.17,3.29,47.68a1,1,0,0,1-.37,1.36A1,1,0,0,1,1061.21,675.17Z"/><path class="cls-3" d="M1044.17,692.8a1,1,0,0,1-.88-.53c-9.91-18.3-14.69-33-14.62-44.94a1,1,0,0,1,1-1h0a1,1,0,0,1,1,1c-.07,11.59,4.64,26,14.38,44a1,1,0,0,1-.41,1.36A1,1,0,0,1,1044.17,692.8Z"/></g><g id="G1"><path class="cls-25" d="M339.67,669.14s27.23-38,47.32-26.72c18.29,10.26-16.76,53.91-16.76,53.91s20.51-2.2,23.19,8.79-33,30.77-33,30.77,20.7-.07,24.12,9.82S353.44,771.33,301.2,767c-36.89-3-51.72-71.37-13.17-49.84-4.94-9.85-7.09-34.86,8.88-40,7.51-2.43,15.95,11.26,15.95,11.26s-3.63-37.28,8.7-39.61S339.67,669.14,339.67,669.14Z"/><path class="cls-3" d="M308,777.64h-.15a1,1,0,0,1-.85-1.14c5.27-35.52,68.27-124.22,75.42-131.38a1,1,0,1,1,1.42,1.42c-7.11,7.1-69.64,95.09-74.86,130.26A1,1,0,0,1,308,777.64Z"/><path class="cls-3" d="M346.52,720.9A37.48,37.48,0,0,1,334,718.84a1,1,0,0,1,.67-1.89c18.28,6.49,40.76-5.31,47.88-10.41a1,1,0,0,1,1.16,1.63C383.47,708.32,365.62,720.9,346.52,720.9Z"/><path class="cls-3" d="M332,761.79a63.51,63.51,0,0,1-18.73-2.74.81.81,0,0,1,.48-1.54c29.48,9.1,58.56-7.58,61.93-10.41a.8.8,0,0,1,1.13.1.81.81,0,0,1-.1,1.13C374,750.63,354.83,761.79,332,761.79Z"/><path class="cls-3" d="M338.29,712.23a1,1,0,0,1-.6-.2c-11.8-8.85-17.9-49.72-17.05-53.56a1,1,0,1,1,1.95.43c-.62,2.85,5.4,43.35,16.3,51.53a1,1,0,0,1,.2,1.4A1,1,0,0,1,338.29,712.23Z"/><path class="cls-3" d="M321.56,742a1.06,1.06,0,0,1-.42-.09c-20-9.25-22.9-39.54-23.87-49.5-.11-1.14-.19-2-.27-2.58a1,1,0,0,1,2-.29c.09.59.18,1.51.29,2.68.94,9.67,3.79,39.1,22.72,47.88a1,1,0,0,1-.42,1.9Z"/><path class="cls-2" d="M36.31,609.57a1,1,0,0,1-.37-.07c-7.56-3-25.7-20.82-28.61-31.15-.73-2.57-.52-4.63.61-6.12,6.73-8.85,37.36,2.64,49.84,7.81-8.36-8.47-27.51-29.17-27.08-40.78a7.48,7.48,0,0,1,2.73-5.8c13.06-10.71,48.3,30.83,49.79,32.6a1,1,0,0,1-1.53,1.29c-9.82-11.66-37.41-40.2-47-32.34a5.52,5.52,0,0,0-2,4.32C32.2,553,62.62,582,62.93,582.32a1,1,0,0,1-1.1,1.63c-12.52-5.58-46.32-18.37-52.29-10.51-.74,1-.83,2.43-.29,4.37,2.89,10.25,21.05,27.34,27.42,29.83a1,1,0,0,1-.36,1.93Z"/><path class="cls-2" d="M76.54,609.57a1,1,0,0,1-.47-.12L8.27,573.72a1,1,0,0,1-.41-1.35A1,1,0,0,1,9.21,572L77,607.68a1,1,0,0,1-.46,1.89Z"/><path class="cls-2" d="M101.78,600.06a1,1,0,0,1-.69-.28L33.37,535a1,1,0,0,1,1.38-1.45l67.72,64.82a1,1,0,0,1-.69,1.73Z"/><path class="cls-2" d="M139.5,669.45a1,1,0,0,1-.47-.11,1,1,0,0,1-.42-1.35L245.94,464.93a1,1,0,1,1,1.77.94l-107.33,203A1,1,0,0,1,139.5,669.45Z"/><path class="cls-2" d="M248.5,669.45a1,1,0,0,1-.85-.47c-6.19-10-46.41-17-46.82-17a1,1,0,0,1-.82-1.09,1,1,0,0,1,1-.9c.4,0,39.29,1.61,52.88-11.39a13.88,13.88,0,0,0,4.58-10.31c0-14.88-26.79-16.78-27.06-16.8a1,1,0,0,1-.39-1.89c.37-.18,36.73-18.49,40.46-35a10.47,10.47,0,0,0-2.1-9.26c-10-12.74-45,13.09-45.31,13.36a1,1,0,0,1-1.26,0,1,1,0,0,1-.22-1.24c.43-.78,42.76-78,32-103.68a11.9,11.9,0,0,0-8.11-7.31c-17.67-5-38.28,16.48-61.28,63.79a1,1,0,1,1-1.79-.88c23.81-49,44.61-70.19,63.61-64.83a13.91,13.91,0,0,1,9.41,8.46c9.82,23.5-21.58,85.57-30.11,101.66,9.48-6.45,35.34-22.32,44.58-10.51A12.53,12.53,0,0,1,273.46,575c-3.33,14.75-29.6,30-38.57,34.83,7.63,1.05,25.61,5,25.61,18.44A15.82,15.82,0,0,1,255.3,640c-9.84,9.4-31.32,11.55-44.15,12,12.72,2.81,33.55,8.45,38.2,16a1,1,0,0,1-.32,1.37A1,1,0,0,1,248.5,669.45Z"/><path class="cls-2" d="M166.36,618.63a1,1,0,0,1-.43-1.9L271.19,566a1,1,0,0,1,.86,1.81L166.8,618.53A1,1,0,0,1,166.36,618.63Z"/><path class="cls-2" d="M152.18,645.46a1,1,0,0,1-1-.85,1,1,0,0,1,.84-1.14l107.32-16.21a1,1,0,0,1,1.14.84,1,1,0,0,1-.84,1.14L152.33,645.45Z"/><path class="cls-2" d="M27.62,671.89S81.66,264.82,68.25,0h78.06s38.5,520.94,49,689.1L91,692.68Z"/><path class="cls-3" d="M67.59,215.94l.08-2c15,0,26.19-5.29,33-15.7,13.45-20.46,7.68-57.34-3.37-82.95C89.93,98.13,83,79.53,82.69,59.83c-.35-19.94,5.87-39,19.56-59.83h2.18a1,1,0,0,1-.17.58C76.67,42.32,81.19,72.82,99.18,114.52c11.63,27,17.13,63.65,3.2,84.84C95.14,210.36,83.34,215.94,67.59,215.94Z"/><path class="cls-3" d="M36.7,596.72c56.26-34.58,64.58-97.14,67.74-120.9.27-2.05.51-3.81.73-5.21,1.87-11.75-4.46-31.49-12.48-56.47C81.89,380.48,68,337.12,64,285.74l1-18.41c1.59,59.19,17.48,108.72,29.5,146.2,8.42,26.22,14.5,45.17,12.55,57.4-.22,1.37-.45,3.11-.72,5.15-3.22,24.21-11.73,88.25-70,123.15Z"/><path class="cls-3" d="M188.93,593c-50.19-43.5-39.41-116.58-33.6-155.93.92-6.22,1.71-11.58,2.13-15.91,1-10.42-.27-21-1.64-32.24-2.85-23.43-6.08-50,13-79.78l.25,3.39c-17.14,28.21-14.18,52.57-11.3,76.15,1.38,11.33,2.68,22,1.64,32.68-.42,4.37-1.22,9.76-2.14,16-5.69,38.55-16.14,109.88,31.43,152.83Z"/><path class="cls-3" d="M40.93,558.41C62.53,531.5,67.28,496.78,67.38,472c.11-27.85-5.84-52.76-12-64.47l.29-3.47c7,10.88,13.88,37.32,13.76,68-.1,25.86-5.21,62.36-28.84,90Z"/><path class="cls-3" d="M150.48,720.4h0a1,1,0,0,1-1-1c.17-15.52-3.49-51.64-8.89-87.83-6.47-43.31-12-64.33-14.66-65.95a1.55,1.55,0,0,0-1.62-.18c-5.41,2.57-9,29.9-11.59,49.85l-.5,3.79c-2,15.15-.26,35,1.27,52.44,1,11.72,1.92,21.84,1.5,28.55a1,1,0,0,1-2-.13c.41-6.55-.47-16.61-1.49-28.25-1.54-17.58-3.29-37.5-1.26-52.87l.5-3.79c3.7-28.31,6.78-48.57,12.71-51.39a3.54,3.54,0,0,1,3.53.28c5.49,3.38,12.73,48.23,15.58,67.35,5.42,36.29,9.09,72.54,8.92,88.15A1,1,0,0,1,150.48,720.4Z"/><path class="cls-3" d="M68.05,204.52c9.48-2.28,16.12-7,19.74-14.14,10.26-20.11-4.46-54.65-14.19-77.5-1.19-2.78-2.29-5.36-3.25-7.7l0-5.39c1.25,3.34,3,7.53,5.07,12.3,9.88,23.2,24.81,58.25,14.13,79.2-4,7.79-11.25,12.94-21.62,15.31Z"/><path class="cls-3" d="M136.2,404.9a5.36,5.36,0,0,1-2-.45c-5.85-2.39-19.48-24.1-28.4-54-7.85-26.37-14.27-66.19-.2-106.1C129,177.84,156.82,162.49,158,161.86l.18-.07.16,2.2c-4.19,2.63-29.62,20.67-50.88,81-13.89,39.4-7.54,78.77.23,104.86,9.26,31.12,22.65,50.88,27.23,52.75,1.34.55,2,.24,2.3,0,4.71-3.81-.31-32-6.12-64.66-.57-3.17-1.14-6.41-1.73-9.7-7.9-44.72,21.6-99.44,32.94-109.65l.19,2.61c-11.81,12.31-38.69,64.07-31.16,106.7.59,3.29,1.16,6.52,1.73,9.69,7.05,39.6,10.78,62.22,5.41,66.56A3.51,3.51,0,0,1,136.2,404.9Z"/><path class="cls-2" d="M140,62c16-.93,31.73-25.88,45.11-62L213,0c-14.81,54.75-37.69,100.38-73,107.49Z"/><path class="cls-5" d="M417.58,718.08c21-3.71,55.92-10.11,45.78-24.7C452.59,677.89,422,707.07,417.58,718.08Z"/><path class="cls-5" d="M380.24,740.46c9.59-.67,39.56,5.52,39.3,13.89S403,757.76,403,757.76Z"/><path class="cls-5" d="M397.58,733.18c6.12,1.65,48.29,16.11,48-.87C445.39,716.19,402.8,728.17,397.58,733.18Z"/><path class="cls-5" d="M421.88,684.68c10.43,3.43.1,23.58-24.07,47.65C395.71,721,410.26,680.85,421.88,684.68Z"/><path class="cls-5" d="M378.63,741.35c7.9-4.55,29.22-35,15.23-38.32S375.25,738.21,378.63,741.35Z"/><path class="cls-6" d="M373.24,744.88a1,1,0,0,1-1-.77,1,1,0,0,1,.74-1.2c13.2-3.11,24.06-11.1,36.64-20.36,13.44-9.89,28.67-21.11,51-29.8a1,1,0,1,1,.73,1.86c-22.07,8.6-37.19,19.73-50.53,29.55-12.75,9.39-23.77,17.5-37.36,20.69A.91.91,0,0,1,373.24,744.88Z"/><path class="cls-6" d="M398.07,733.07H398a1,1,0,0,1-.87-1.11c.49-4.12,19.78-42.34,22.19-44a1,1,0,0,1,1.39.27,1,1,0,0,1-.23,1.36c-1.91,1.86-20.89,38.56-21.37,42.58A1,1,0,0,1,398.07,733.07Z"/><path class="cls-6" d="M378.63,742.35a1,1,0,0,1-.39-.08,1,1,0,0,1-.53-1.31c1.18-2.8,4.19-10.16,7.11-17.28,3.58-8.73,7-17,7.41-17.93a1,1,0,1,1,1.8.86c-.43.9-3.95,9.51-7.36,17.83-2.92,7.12-5.94,14.49-7.12,17.3A1,1,0,0,1,378.63,742.35Z"/><path class="cls-6" d="M396.5,734.12a1,1,0,0,1-.14-2c7.77-1.1,41.81-2.46,46.78-2.43a1,1,0,0,1,0,2h-.35c-5.89,0-38.84,1.38-46.13,2.41Z"/><path class="cls-23" d="M417.12,755.61H417c-4.72-.37-33.6-10-38.81-12.38a1,1,0,0,1,.84-1.82c5.62,2.62,34,11.88,38.13,12.21a1,1,0,0,1-.08,2Z"/><path class="cls-1" d="M520,772c-37.64-20.06-92.72-40.23-134-42.4-63.17-3.31-114.82,8.67-114.82,8.67s30.77-59.77-19.07-84C191.57,624.86,125,687.71,125,687.71s13-39.63-19.09-62.11C66.82,598.31,0,606.15,0,606.15V772Z"/><path class="cls-4" d="M433.12,772C354.5,758,333,748.59,302,747c-25.95-1.33-62,5.33-69.31,0s11-49.33-23.64-61.67c-32.47-11.55-95.12,19.36-103.14,16.75-11.53-3.75,5.81-23.41-3.27-39-7-11.93-56.88-25.55-102.59-16.89V772Z"/><path class="cls-3" d="M214.41,772c22.68-16.61,31.59-37.28,31.42-49.24-.09-6.12-2.7-11.24-6.42-13.8-28.27-19.49-69.1-9.51-98.81,2a333,333,0,0,0-58.54,30.11l-1.63,1.1.07-2a71.87,71.87,0,0,0-9.29-34.32c-12.78-22.4-37.39-35-71.21-36.4v-2c28,1.16,49.47,9.57,63.84,25C80.27,710.14,82.26,732,82.48,738.41a338.18,338.18,0,0,1,57.36-29.31c43.27-16.76,77.71-17.64,100.67-1.82,4.26,2.94,7.22,8.67,7.31,15.45C248,735,240.2,755.1,217.74,772Z"/><path class="cls-5" d="M37.58,677.43c12.17-6.77,52.09-52.15,31.09-61.12S38.13,660,37.58,677.43Z"/><path class="cls-5" d="M22.92,711.74c11.5,0,73.1-23.25,65.8-41S33.42,690.37,22.92,711.74Z"/><path class="cls-5" d="M10.5,747c21.88-2.11,73.39-11.86,66-30.86S25.5,732.73,10.5,747Z"/><path class="cls-5" d="M23,713.55c8.75-17.14,1.74-76.39-12.51-74.39S1.75,681.29,23,713.55Z"/><path class="cls-5" d="M16.83,772c5.59-5,49.67-34.59,58.42-22.84S61.13,772,61.13,772Z"/><path class="cls-5" d="M9.91,747.31S4,702.91,0,697.91V733Z"/><path class="cls-6" d="M2.12,772c9.25-46.52,52.12-133.54,64.36-148.12A1,1,0,0,1,68,625.17C55.89,639.61,13.51,725.66,4.16,772Z"/><path class="cls-6" d="M22.78,713.41h0a1,1,0,0,1-1-1c0-8.22-10-60.32-12.21-65.68a1,1,0,0,1,1.86-.75c2.19,5.42,12.37,58.12,12.35,66.43A1,1,0,0,1,22.78,713.41Z"/><path class="cls-6" d="M24.19,711.7a1,1,0,0,1-.81-.4,1,1,0,0,1,.2-1.4c8.2-6.16,54.23-35.15,61.59-37.68a1,1,0,1,1,.66,1.89c-7.15,2.46-53.51,31.73-61,37.39A1,1,0,0,1,24.19,711.7Z"/><path class="cls-6" d="M9.91,748a1,1,0,0,1-.28-2c9.56-2.78,56.66-25.56,61.81-29.45a1,1,0,1,1,1.2,1.6c-5.4,4.09-52.4,26.85-62.45,29.77A.9.9,0,0,1,9.91,748Z"/><path class="cls-6" d="M32.12,772l3.72-2.15c10.86-6.3,29.05-16.85,36-18.46a1,1,0,1,1,.46,1.94c-6.63,1.55-24.66,12-35.43,18.25l-.72.42Z"/><path class="cls-5" d="M138.88,770.32c4.58,1.44,20.12-90.85-6.55-88.47S134.92,769.07,138.88,770.32Z"/><path class="cls-5" d="M117.73,772c-3-1.5-30.68-32-20.5-37.83,16.36-9.42,39.42,37.83,39.42,37.83Z"/><path class="cls-5" d="M149.33,772.07c2-3.34,35.66-31.78,45.5-21.14S184.33,772,184.33,772Z"/><path class="cls-6" d="M138.08,772c0-13.53-5.85-82.57-7.46-86.13a1,1,0,0,1,.44-1.34,1,1,0,0,1,1.31.38c1.72,3.1,7.73,72.54,7.7,87.09Z"/><path class="cls-6" d="M127.38,772c-5.07-7.64-26.56-31.56-28.46-32.93a1,1,0,0,1,1.16-1.63c2.1,1.5,25.66,27.67,29.65,34.56Z"/><path class="cls-6" d="M163.29,772c8.25-1.8,23.82-11.37,27.57-17.06.73-1.11.71-1.65.67-1.84a1,1,0,1,1,1.94-.46,4.36,4.36,0,0,1-.94,3.4c-3.24,4.91-14.23,12.27-23,16Z"/></g></g></g></svg>